<svg width="205" height="205" viewBox="0 0 205 205" fill="none" xmlns="http://www.w3.org/2000/svg">
<path fill-rule="evenodd" clip-rule="evenodd" d="M104.195 57.1082L129.492 66.1073L96.8082 121.087L71.4453 112.088L104.195 57.1082Z" fill="#F7F7F7" stroke="black" stroke-width="1.1353"/>
<path fill-rule="evenodd" clip-rule="evenodd" d="M96.0241 97.5058L95.5012 97.3087H95.3704C95.3051 97.243 95.3051 97.243 95.2397 97.243C94.2592 96.9146 93.2133 96.192 92.5596 95.4695C92.3635 95.3381 92.2328 95.141 92.102 94.944C92.0366 94.8126 91.9713 94.7469 91.9059 94.6155C91.8405 94.5499 91.7752 94.4185 91.7098 94.3528C91.7098 94.2871 91.6444 94.2214 91.6444 94.2214C91.5791 94.0244 91.5137 93.893 91.4483 93.6959C91.3176 93.4332 91.2522 93.3018 91.1869 93.039C90.9908 92.2508 90.9254 91.1341 91.2522 90.0174C91.7752 87.9811 93.2786 86.1419 95.3704 84.9595C95.5012 84.8281 95.5665 84.7625 95.6973 84.6968C96.6124 84.237 97.5276 83.7772 98.4427 83.3173L103.999 80.6242C104.391 80.4271 104.914 80.1644 105.372 79.9673C105.503 79.9016 105.503 79.9016 105.568 79.9016H105.633C105.699 79.9673 105.699 79.9673 105.764 79.9673C105.764 80.033 105.764 80.033 105.764 80.033L105.895 80.5585C105.96 80.6899 105.96 80.8212 106.025 80.8869L107.071 84.6311C107.137 84.8281 107.202 85.0909 107.267 85.288L107.398 85.8135C107.464 85.8791 107.464 85.8791 107.464 85.9448C107.529 86.2076 107.594 86.4046 107.66 86.6674C107.79 87.0615 107.921 87.5213 108.052 87.9811C108.313 88.9008 108.379 89.8204 108.117 91.0027C107.856 92.1851 107.137 93.4332 106.222 94.4185C105.764 94.8783 105.306 95.3381 104.783 95.6665C104.522 95.8636 104.326 95.995 104.064 96.192C103.803 96.3234 103.541 96.4548 103.28 96.5862C103.215 96.6518 103.149 96.6518 103.084 96.7175C102.888 96.7832 102.757 96.8489 102.496 96.9803C101.842 97.243 101.057 97.4401 100.338 97.5715C99.9462 97.7028 99.4233 97.7685 99.0311 97.7685C98.1813 97.8342 97.3315 97.7685 96.5471 97.6371C96.4163 97.5715 96.0895 97.5058 96.0241 97.5058ZM93.2786 92.5135C93.2133 92.4479 93.1479 91.8567 93.0825 91.7253C93.0172 90.74 93.2786 89.689 93.8016 88.7037C94.1938 88.0468 94.7821 87.3899 95.3704 86.9301C95.828 86.536 96.1548 86.2733 96.6778 86.0105C96.8085 85.8791 97.0046 85.8135 97.1354 85.7478C98.4427 85.0909 99.6847 84.4997 100.927 83.8428C101.254 83.7115 101.58 83.5801 101.907 83.383L102.888 82.9232C103.149 82.7918 103.541 82.5948 103.803 82.4634C103.999 82.332 104.195 82.332 104.326 82.3977C104.457 82.5291 104.522 82.6605 104.522 82.7918C104.587 83.0546 104.653 83.3173 104.783 83.6458C105.045 84.434 104.914 85.485 104.457 86.4703C104.064 87.3243 103.345 87.9811 102.496 88.4409C102.234 88.5723 102.169 88.5723 101.973 88.638C101.842 88.7037 101.646 88.7694 101.515 88.8351C101.319 88.9008 101.188 88.9664 100.992 89.0321C100.404 89.1635 99.4886 89.2949 98.9003 89.4263C98.4427 89.5576 97.7237 89.7547 97.3315 89.8861L96.9393 90.0174C96.9393 90.0174 96.8739 90.0174 96.8085 90.0831L96.4817 90.2145C96.2202 90.2802 96.0895 90.3459 95.828 90.4772C94.0631 91.3969 93.4094 92.4479 93.2786 92.5135ZM96.8085 95.7322C95.8934 95.4695 95.109 95.0753 94.5206 94.4842L94.4553 94.4185C94.3899 94.3528 94.8475 93.6959 94.9129 93.5645C95.4358 92.842 96.0895 92.3165 96.9393 91.9224C97.0046 91.9224 97.07 91.8567 97.07 91.8567C97.2661 91.791 97.6583 91.5939 97.8544 91.5282C97.9198 91.5282 97.9852 91.4626 98.0505 91.4626C98.5081 91.3312 99.2272 91.1341 99.6847 91.0684C100.469 90.9371 100.992 90.8057 101.711 90.6086C102.365 90.4116 102.692 90.2802 103.28 90.0174C103.738 89.7547 104.261 89.4919 104.718 89.0978C105.045 88.8351 105.372 88.5066 105.633 88.1782C105.764 88.0468 105.829 87.9811 105.96 87.8498C105.96 87.8498 106.156 88.4409 106.156 88.5066C106.352 89.2292 106.352 90.0174 106.156 90.8057C106.025 91.4626 105.764 92.0537 105.306 92.7106C104.98 93.2361 104.457 93.6959 103.999 94.1557C103.019 94.944 101.777 95.4695 100.731 95.7322C99.554 96.0607 98.1813 96.1263 96.8085 95.7322Z" fill="black"/>
<path fill-rule="evenodd" clip-rule="evenodd" d="M79.1057 139.341L104.403 148.34L96.2975 121.999L71 113L79.1057 139.341Z" fill="url(#paint0_linear_6050_3556)" stroke="black" stroke-width="1.1353"/>
<defs>
<linearGradient id="paint0_linear_6050_3556" x1="87.7016" y1="113" x2="87.7016" y2="148.34" gradientUnits="userSpaceOnUse">
<stop stop-color="#F7F7F7"/>
<stop offset="1" stop-color="#EBCD81"/>
</linearGradient>
</defs>
</svg>
