<svg width="205" height="205" viewBox="0 0 205 205" fill="none" xmlns="http://www.w3.org/2000/svg">
<path fill-rule="evenodd" clip-rule="evenodd" d="M115.319 61.8144L72.9597 53.6548L35 80.1911L39.3991 114.958L81.6869 123.118L119.647 96.5812L115.319 61.8144Z" fill="#2A74C4" stroke="black" stroke-width="1.22631" stroke-linecap="round" stroke-linejoin="round"/>
<path fill-rule="evenodd" clip-rule="evenodd" d="M92.7563 57.4863L80.9781 55.2158L69.2709 52.9453L58.6989 60.3244L48.127 67.7035L49.3332 77.424L50.5393 87.0736L62.3175 89.3441L74.0957 91.6146L84.6676 84.2355L95.1687 76.8564L93.9625 67.2068L92.7563 57.4863Z" fill="#96C9FF" stroke="black" stroke-width="1.22631" stroke-linecap="round" stroke-linejoin="round"/>
<path fill-rule="evenodd" clip-rule="evenodd" d="M119.646 96.5811L81.6152 122.834L95.1672 135.534L119.646 96.5811Z" fill="url(#paint0_linear_6050_3311)" stroke="black" stroke-width="1.09807" stroke-linejoin="bevel"/>
<path fill-rule="evenodd" clip-rule="evenodd" d="M39.3984 114.958L95.1673 135.534L81.6863 123.118L39.3984 114.958Z" fill="black" stroke="black" stroke-width="1.22631" stroke-linecap="round" stroke-linejoin="round"/>
<path fill-rule="evenodd" clip-rule="evenodd" d="M39.3984 114.958L81.6863 123.118L74.0944 91.6147L50.538 87.0737L39.3984 114.958Z" fill="#96C9FF" stroke="black" stroke-width="1.22631" stroke-linecap="round" stroke-linejoin="round"/>
<path fill-rule="evenodd" clip-rule="evenodd" d="M81.6147 122.834L119.645 96.5813L95.1667 76.8564L74.0938 91.6146L81.6147 122.834Z" fill="url(#paint1_linear_6050_3311)" stroke="black" stroke-width="1.09807" stroke-linejoin="bevel"/>
<path fill-rule="evenodd" clip-rule="evenodd" d="M50.5387 87.0737L48.1263 67.7036L35 80.1913L39.3991 114.958L50.5387 87.0737Z" fill="#F7F7F7" stroke="black" stroke-width="1.22631" stroke-linecap="round" stroke-linejoin="round"/>
<defs>
<linearGradient id="paint0_linear_6050_3311" x1="96.6693" y1="118.994" x2="120.474" y2="107.699" gradientUnits="userSpaceOnUse">
<stop stop-color="#0094FF"/>
<stop offset="1" stop-color="#F3A6FF"/>
</linearGradient>
<linearGradient id="paint1_linear_6050_3311" x1="92.1249" y1="103.311" x2="120.482" y2="89.6578" gradientUnits="userSpaceOnUse">
<stop stop-color="#0094FF"/>
<stop offset="1" stop-color="#F3A6FF"/>
</linearGradient>
</defs>
</svg>
