<svg width="205" height="205" viewBox="0 0 205 205" fill="none" xmlns="http://www.w3.org/2000/svg">
<path fill-rule="evenodd" clip-rule="evenodd" d="M188.256 84.1892C189.304 88.0529 190.483 91.5891 190.941 95.4528C191.334 102.001 189.763 106.847 186.357 112.348C178.826 123.088 166.646 128.981 152.37 128.785C139.797 128.065 128.926 122.695 123.884 111.104L123.426 109.794L121.461 102.656L121.919 103.9C127.158 116.081 138.946 121.451 152.108 121.647C162.324 121.32 170.51 118.307 177.975 112.217C183.148 107.699 186.226 103.311 188.191 96.7625C189.042 93.2262 189.239 90.6068 188.78 86.9396L188.518 85.5644L188.256 84.1892Z" fill="url(#paint0_linear_6050_3268)" stroke="black" stroke-width="1.09807" stroke-linejoin="bevel"/>
<path fill-rule="evenodd" clip-rule="evenodd" d="M148.179 128.392C137.701 126.69 128.271 121.123 123.884 111.104L123.426 109.794L121.461 102.656L121.919 103.9C126.372 114.182 135.475 119.617 146.149 121.189L148.179 128.392Z" fill="black" stroke="black" stroke-width="1.13182" stroke-linejoin="round"/>
<path fill-rule="evenodd" clip-rule="evenodd" d="M167.237 65.133C184.918 69.717 193.627 85.8265 186.62 101.085C179.679 116.343 159.706 124.987 142.025 120.403C124.343 115.819 115.699 99.7095 122.641 84.4513C129.648 69.1931 149.621 60.549 167.237 65.133Z" fill="#FFD731" stroke="black" stroke-width="1.13182" stroke-linejoin="round"/>
<path fill-rule="evenodd" clip-rule="evenodd" d="M166.32 67.163C182.692 71.4195 190.747 86.3503 184.264 100.495C177.846 114.575 159.313 122.629 142.942 118.373C126.571 114.116 118.581 99.1855 124.999 85.0406C131.482 70.8956 149.949 62.9064 166.32 67.163Z" fill="#FFD731" stroke="black" stroke-width="1.13182" stroke-linejoin="round"/>
<path fill-rule="evenodd" clip-rule="evenodd" d="M147.132 106.455L146.215 106.193L146.018 106.062C145.953 106.062 145.887 106.062 145.822 105.996C144.119 105.407 142.286 104.294 141.238 103.05C140.976 102.722 140.714 102.46 140.452 102.133C140.321 101.936 140.256 101.805 140.125 101.609C140.059 101.478 139.928 101.281 139.863 101.15C139.797 101.02 139.732 100.954 139.666 100.889C139.601 100.561 139.47 100.43 139.339 100.037C139.142 99.6443 139.077 99.3824 138.946 98.924C138.553 97.5488 138.487 95.7152 139.011 93.8816C139.928 90.4108 142.482 87.333 145.953 85.2375C146.215 85.1065 146.411 85.041 146.608 84.91C148.179 84.1242 149.685 83.3384 151.257 82.5526L160.622 77.9686C161.342 77.6411 162.193 77.1827 162.979 76.8553C163.11 76.7243 163.241 76.7898 163.307 76.7898H163.437C163.503 76.8553 163.568 76.8553 163.568 76.9208C163.634 76.9863 163.634 76.9863 163.634 77.0518L163.896 77.9031C163.961 78.0995 164.027 78.296 164.092 78.4924L165.86 84.7136C165.991 85.1065 166.057 85.4994 166.188 85.8923L166.45 86.7436C166.45 86.8091 166.515 86.8746 166.515 87.0056C166.646 87.3985 166.777 87.7914 166.843 88.1188C167.039 88.9047 167.301 89.6905 167.498 90.4108C167.891 91.917 168.021 93.4887 167.563 95.4532C167.105 97.4178 165.926 99.5788 164.354 101.281C163.634 102.067 162.848 102.788 161.997 103.377C161.604 103.639 161.211 103.966 160.753 104.228C160.294 104.49 159.836 104.752 159.443 104.949C159.312 105.014 159.246 105.014 159.115 105.08C158.723 105.276 158.526 105.342 158.068 105.538C156.954 105.996 155.645 106.389 154.466 106.586C153.746 106.782 152.96 106.848 152.174 106.913C150.733 106.979 149.358 106.913 147.983 106.651C147.852 106.586 147.263 106.455 147.132 106.455ZM142.482 98.0727C142.351 97.8762 142.22 96.9594 142.22 96.6975C142.024 95.0603 142.417 93.2922 143.399 91.6551C144.054 90.4763 144.971 89.3631 145.953 88.5772C146.739 87.9224 147.393 87.5295 148.245 87.0056C148.507 86.8746 148.769 86.7436 149.031 86.6127C151.192 85.5649 153.353 84.5171 155.514 83.4694C156.038 83.2074 156.561 82.9455 157.085 82.6835L158.723 81.8977C159.181 81.6358 159.901 81.3083 160.294 81.0464C160.622 80.9154 160.949 80.8499 161.211 81.0464C161.473 81.1774 161.473 81.4393 161.538 81.7012C161.669 82.0942 161.8 82.5526 161.931 83.011C162.39 84.4516 162.259 86.1543 161.473 87.7914C160.753 89.2976 159.574 90.4108 158.068 91.1967C157.675 91.3276 157.609 91.3931 157.216 91.5241C156.954 91.6551 156.692 91.786 156.431 91.8515C156.103 91.9825 155.841 92.048 155.514 92.1135C154.531 92.4409 153.025 92.6374 151.977 92.8338C151.257 93.0303 150.013 93.3577 149.358 93.6196L148.703 93.8161C148.638 93.8161 148.572 93.8816 148.507 93.8816L147.852 94.1435C147.459 94.34 147.263 94.4055 146.87 94.6019C143.726 96.1736 142.679 97.9417 142.482 98.0727ZM148.441 103.442C146.87 103.05 145.56 102.329 144.578 101.347L144.512 101.281C144.381 101.15 145.101 99.9718 145.232 99.8408C146.149 98.5966 147.197 97.7452 148.638 97.0249C148.769 97.0249 148.834 96.9594 148.965 96.8939C149.162 96.763 149.947 96.501 150.275 96.37C150.34 96.37 150.471 96.3046 150.602 96.2391C151.323 95.9771 152.501 95.7152 153.353 95.5842C154.597 95.3223 155.579 95.1913 156.823 94.7984C157.871 94.471 158.395 94.2745 159.443 93.8161C160.229 93.4232 161.08 92.8993 161.866 92.3099C162.455 91.8515 162.979 91.3276 163.437 90.8038C163.634 90.5418 163.765 90.3454 163.961 90.1489C163.961 90.2144 164.289 91.1967 164.289 91.3276C164.616 92.5064 164.682 93.8161 164.354 95.1913C164.027 96.3046 163.568 97.2214 162.914 98.3346C162.259 99.2514 161.407 100.103 160.622 100.758C158.984 102.133 156.889 103.05 155.121 103.508C153.091 103.966 150.799 104.163 148.441 103.442Z" fill="#FFD731" stroke="black" stroke-width="1.13182" stroke-linecap="round" stroke-linejoin="round"/>
<path fill-rule="evenodd" clip-rule="evenodd" d="M146.934 105.734L146.017 105.472L145.821 105.407C145.756 105.407 145.69 105.341 145.625 105.341C143.922 104.752 142.088 103.573 141.041 102.395C140.779 102.067 140.517 101.805 140.255 101.478C140.124 101.281 140.058 101.15 139.927 100.954C139.796 100.823 139.731 100.626 139.6 100.43C139.6 100.365 139.534 100.299 139.469 100.168C139.338 99.9061 139.272 99.7752 139.141 99.3823C138.945 98.9239 138.88 98.7274 138.749 98.269C138.356 96.8938 138.29 95.0602 138.814 93.1611C139.731 89.7559 142.219 86.678 145.756 84.5825C145.952 84.4515 146.148 84.3205 146.41 84.2551C147.917 83.4037 149.488 82.6834 151.06 81.8976L160.424 77.3136C161.145 76.9207 161.996 76.5277 162.716 76.1348C162.913 76.0693 162.978 76.1348 163.109 76.0693L163.24 76.1348C163.24 76.2003 163.306 76.2003 163.371 76.2658C163.437 76.2658 163.437 76.3313 163.437 76.3313L163.699 77.2481C163.764 77.3791 163.83 77.5755 163.83 77.772L165.663 84.0586C165.794 84.4515 165.86 84.8444 165.991 85.1719L166.253 86.0232C166.253 86.1541 166.318 86.2196 166.318 86.3506C166.449 86.678 166.515 87.0709 166.645 87.4639C166.842 88.2497 167.104 88.97 167.3 89.7559C167.693 91.262 167.824 92.8337 167.366 94.7983C166.907 96.7628 165.729 98.9239 164.157 100.561C163.437 101.347 162.585 102.133 161.8 102.657C161.341 102.984 160.948 103.246 160.555 103.508C160.097 103.77 159.639 104.032 159.246 104.228C159.115 104.294 158.984 104.359 158.918 104.425C158.525 104.621 158.263 104.687 157.87 104.883C156.757 105.341 155.447 105.734 154.269 105.931C153.548 106.062 152.697 106.193 151.977 106.193C150.536 106.324 149.161 106.193 147.786 105.931C147.655 105.931 147 105.734 146.934 105.734ZM142.285 97.4177C142.154 97.2212 142.023 96.2389 141.957 96.0425C141.826 94.4053 142.219 92.5717 143.136 90.9346C143.791 89.8213 144.773 88.7081 145.756 87.9223C146.541 87.2674 147.131 86.809 148.048 86.3506C148.309 86.2196 148.571 86.0887 148.833 85.9577C150.994 84.9099 153.155 83.7967 155.251 82.8144C155.84 82.4869 156.364 82.225 156.888 81.9631L158.525 81.1772C158.984 80.9808 159.704 80.6533 160.097 80.3914C160.424 80.2604 160.752 80.1949 161.014 80.3259C161.21 80.5224 161.276 80.7188 161.341 80.9808C161.472 81.4392 161.603 81.8976 161.734 82.356C162.192 83.7967 161.996 85.4993 161.276 87.1364C160.555 88.6426 159.311 89.7559 157.87 90.4762C157.477 90.6727 157.347 90.7381 157.019 90.8691C156.757 91.0001 156.495 91.0656 156.168 91.1965C155.906 91.262 155.644 91.393 155.316 91.4585C154.334 91.7204 152.828 91.9824 151.715 92.1788C151.06 92.3753 149.816 92.6372 149.095 92.8992L148.506 93.1611C148.44 93.1611 148.375 93.2266 148.244 93.2266L147.655 93.4885C147.262 93.6195 147.065 93.7505 146.607 93.9469C143.529 95.5186 142.481 97.2867 142.285 97.4177ZM148.179 102.788C146.672 102.329 145.363 101.609 144.315 100.692L144.249 100.626C144.184 100.496 144.904 99.3168 145.035 99.1203C145.952 97.8761 147 97.0903 148.44 96.3699C148.506 96.3044 148.637 96.3044 148.768 96.2389C148.964 96.108 149.75 95.7805 150.012 95.7151C150.143 95.6496 150.274 95.6496 150.34 95.5841C151.125 95.3221 152.304 95.0602 153.09 94.9292C154.4 94.6673 155.316 94.5363 156.626 94.1434C157.608 93.816 158.198 93.6195 159.246 93.0956C160.031 92.7682 160.817 92.2443 161.603 91.6549C162.192 91.1965 162.782 90.6727 163.24 90.0833C163.437 89.8868 163.568 89.6904 163.764 89.4939C163.764 89.4939 164.026 90.5417 164.092 90.6072C164.419 91.7859 164.484 93.1611 164.092 94.5363C163.83 95.6496 163.371 96.5664 162.651 97.6141C162.061 98.5964 161.21 99.3823 160.359 100.103C158.722 101.478 156.626 102.395 154.924 102.853C152.828 103.311 150.601 103.442 148.179 102.788Z" fill="#FFD731" stroke="black" stroke-width="1.13182" stroke-linecap="round" stroke-linejoin="round"/>
<defs>
<linearGradient id="paint0_linear_6050_3268" x1="148.987" y1="109.852" x2="182.864" y2="84.1829" gradientUnits="userSpaceOnUse">
<stop stop-color="#4B9D54"/>
<stop offset="1" stop-color="#FFD731"/>
</linearGradient>
</defs>
</svg>
