<svg width="237" height="237" viewBox="0 0 237 237" fill="none" xmlns="http://www.w3.org/2000/svg">
<path fill-rule="evenodd" clip-rule="evenodd" d="M100.241 94.832C94.956 96.1224 90.9003 94.3404 90.9003 97.9045C90.8389 98.3346 92.3137 104.234 92.4366 104.664C92.8667 107.368 94.8946 109.887 98.3358 110.993L162.121 133.177C172.445 137.478 177.299 132.317 177.238 126.356C177.238 124.574 176.5 119.596 175.579 117.814C174.227 115.356 165.193 98.1503 161.076 89.916C156.468 80.637 149.585 80.4527 141.167 83.095L100.241 94.832Z" fill="#FF6600" stroke="black" stroke-width="1.45459"/>
<path fill-rule="evenodd" clip-rule="evenodd" d="M100.241 94.832C94.956 96.1224 90.9003 94.3404 90.9003 97.9045C90.8389 98.3346 92.3137 104.234 92.4366 104.664C92.8667 107.368 94.8946 109.887 98.3358 110.993L162.121 133.177C167.098 135.266 170.785 135.143 173.243 133.791L164.272 96.1839C163.043 93.8488 161.937 91.6366 161.076 89.916C156.468 80.637 149.585 80.4527 141.166 83.095L100.241 94.832Z" fill="black" stroke="black" stroke-width="1.45459"/>
<path fill-rule="evenodd" clip-rule="evenodd" d="M80.4531 144.299L82.5424 154.07C84.0172 159.17 87.6428 162.427 92.866 164.578L93.7263 164.885L120.273 173.857C128.876 176.561 139.568 174.963 144.914 167.097L145.344 166.421L162.735 135.389C164.025 132.931 164.455 131.088 164.21 128.322L164.087 127.646L161.997 117.876L162.059 118.552C162.305 121.194 161.936 123.16 160.646 125.618L143.194 156.651L142.825 157.327C137.663 164.824 127.524 166.667 119.105 164.393L118.183 164.086L91.637 155.115L90.7767 154.807C85.9836 152.841 82.7268 150.076 80.8833 145.713L80.6375 145.037L80.4531 144.299Z" fill="url(#paint0_linear_6050_3138)" stroke="black" stroke-width="0.962657" stroke-linejoin="bevel"/>
<path fill-rule="evenodd" clip-rule="evenodd" d="M80.4531 144.299L82.5424 154.07C84.0172 159.17 87.6428 162.427 92.866 164.578L93.7263 164.885L120.273 173.857C124.636 175.27 129.552 175.516 134.038 174.41L131.887 164.578C127.708 165.622 123.222 165.499 119.105 164.393L118.183 164.086L91.637 155.114L90.7767 154.807C85.9836 152.841 82.7268 150.075 80.8833 145.712L80.6375 145.036L80.4531 144.299Z" fill="black" stroke="black" stroke-width="1.45459" stroke-linejoin="bevel"/>
<path fill-rule="evenodd" clip-rule="evenodd" d="M150.629 106.384L124.082 97.4127C114.435 94.1558 103.189 97.4741 99.0723 104.787L81.6205 135.88C77.5033 143.193 81.9892 151.857 91.6368 155.114L118.183 164.086C127.831 167.343 139.076 164.025 143.193 156.651L160.645 125.618C164.762 118.306 160.277 109.641 150.629 106.384Z" fill="#FFB27F" stroke="black" stroke-width="1.45459"/>
<path fill-rule="evenodd" clip-rule="evenodd" d="M98.7054 88.1952C88.7505 90.5303 88.2589 101.591 96.8619 104.295L160.586 126.479C174.105 132.071 178.283 121.624 174.289 114.189C172.999 111.731 163.658 91.452 159.541 83.2177C154.994 73.9388 148.111 73.7544 139.631 76.4582L98.7054 88.1952Z" fill="#FF6600" stroke="black" stroke-width="1.45459"/>
<path fill-rule="evenodd" clip-rule="evenodd" d="M120.519 62.3247L120.335 62.2633C117.508 61.2186 113.76 62.5091 111.916 64.9671L122.363 68.7155C124.145 66.1961 123.346 63.3079 120.519 62.3247Z" fill="#CCCCCC" stroke="black" stroke-width="1.45459"/>
<path fill-rule="evenodd" clip-rule="evenodd" d="M118.491 64.9057L118.368 64.8443C117.446 64.537 116.217 64.9672 115.664 65.766L119.044 66.995C119.658 66.1347 119.413 65.213 118.491 64.9057Z" fill="black" stroke="black" stroke-width="1.45459"/>
<path fill-rule="evenodd" clip-rule="evenodd" d="M127.155 71.8497L106.57 65.0287C105.402 64.5986 103.866 65.2131 103.313 66.3192L101.899 68.9615C101.285 70.0676 101.776 71.3581 103.005 71.7268L123.591 78.6092C124.759 78.9779 126.295 78.4249 126.848 77.2573L128.261 74.6764C128.876 73.5089 128.384 72.2798 127.155 71.8497Z" fill="black" stroke="black" stroke-width="1.45459"/>
<path fill-rule="evenodd" clip-rule="evenodd" d="M59.8047 115.787L60.3577 119.351C60.7264 121.194 61.894 122.3 63.5531 122.976L63.8604 123.099L104.54 136.249C107.367 137.11 110.931 136.311 112.836 133.361L113.02 133.054L138.154 86.905C138.584 85.9832 138.768 85.3073 138.707 84.3241V84.0783L138.215 80.5142V80.76C138.276 81.7432 138.092 82.4806 137.601 83.4023L112.467 129.551L112.345 129.797C110.501 132.624 107.121 133.484 104.356 132.808L104.049 132.747L63.3688 119.535L63.0615 119.412C61.5253 118.798 60.4806 117.876 59.9276 116.278L59.8661 116.032L59.8047 115.787Z" fill="white" stroke="black" stroke-width="1.45459" stroke-linejoin="bevel"/>
<path fill-rule="evenodd" clip-rule="evenodd" d="M59.8047 115.786L60.3577 119.35C60.7264 121.194 61.894 122.3 63.5531 122.976L63.8604 123.099L104.54 136.249C106.015 136.679 107.613 136.679 109.088 136.188L108.596 132.624C107.183 133.115 105.708 133.115 104.356 132.808L104.049 132.747L63.3688 119.535L63.0615 119.412C61.5253 118.797 60.4806 117.876 59.9276 116.278L59.8661 116.032L59.8047 115.786Z" fill="black" stroke="black" stroke-width="1.45459" stroke-linejoin="bevel"/>
<path fill-rule="evenodd" clip-rule="evenodd" d="M134.652 76.5198L93.9721 63.3081C90.8381 62.3249 87.0282 63.7382 85.4919 66.5035L60.3588 112.652C58.884 115.418 60.2359 118.552 63.3699 119.535L104.05 132.747C107.184 133.73 110.994 132.317 112.469 129.551L137.602 83.4022C139.138 80.637 137.786 77.503 134.652 76.5198Z" fill="white" stroke="black" stroke-width="1.45459"/>
<path d="M128.323 89.6086L86.4141 75.8438" stroke="black" stroke-width="1.45459"/>
<path d="M125.434 94.8932L83.5254 81.1284" stroke="black" stroke-width="1.45459"/>
<path d="M122.546 100.117L80.6367 86.3518" stroke="black" stroke-width="1.45459"/>
<path d="M119.657 105.34L77.748 91.575" stroke="black" stroke-width="1.45459"/>
<path d="M107 107.429L75.3535 96.9827" stroke="black" stroke-width="1.45459"/>
<path d="M104.112 112.652L72.4648 102.206" stroke="black" stroke-width="1.45459"/>
<path d="M101.223 117.876L69.5762 107.49" stroke="black" stroke-width="1.45459"/>
<path d="M98.3343 123.099L66.6875 112.714" stroke="black" stroke-width="1.45459"/>
<path fill-rule="evenodd" clip-rule="evenodd" d="M126.602 69.2688L105.401 62.2635C104.172 61.8333 102.636 62.4478 102.022 63.6154L100.608 66.3192C99.9938 67.4867 100.485 68.7772 101.714 69.1459L122.915 76.2126C124.144 76.6428 125.68 76.0283 126.294 74.8607L127.708 72.1569C128.322 70.9894 127.831 69.6989 126.602 69.2688Z" fill="#CCCCCC" stroke="black" stroke-width="1.45459"/>
<path fill-rule="evenodd" clip-rule="evenodd" d="M130.842 122.669L144.607 127.401C146.02 127.892 146.512 129.367 145.713 130.719L138.155 143.316C137.356 144.668 135.512 145.344 134.099 144.852L120.396 140.121C118.921 139.691 118.429 138.154 119.228 136.864L126.787 124.205C127.585 122.915 129.429 122.239 130.842 122.669Z" fill="white" stroke="black" stroke-width="1.45459"/>
<path d="M122.979 130.534L141.967 136.987" stroke="black" stroke-width="1.45459"/>
<path d="M127.217 142.517L137.725 125.065" stroke="black" stroke-width="1.45459"/>
<defs>
<linearGradient id="paint0_linear_6050_3138" x1="113.633" y1="150.788" x2="156.283" y2="120.415" gradientUnits="userSpaceOnUse">
<stop stop-color="#0094FF"/>
<stop offset="1" stop-color="#FF7A00"/>
</linearGradient>
</defs>
</svg>
