<svg width="205" height="205" viewBox="0 0 205 205" fill="none" xmlns="http://www.w3.org/2000/svg">
<path fill-rule="evenodd" clip-rule="evenodd" d="M76.0832 40.6208C82.8815 48.0434 83.2737 54.1523 100.792 60.1956L167.076 82.989C169.56 83.8429 170.279 82.2008 170.933 84.3028C170.998 84.5655 171.913 88.1783 171.978 88.441C172.24 90.1489 171.913 92.0538 170.802 93.8274L147.335 132.649C144.655 136.984 138.706 139.217 133.999 137.575C113.605 130.415 89.8105 122.598 69.3502 115.373C52.2891 109.33 45.883 102.958 41.5687 94.55C39.3462 90.1489 38.8886 85.4851 41.5034 81.1498C49.3476 68.2094 57.061 55.9259 64.8398 43.0512C67.5199 38.6502 72.7494 36.9423 76.0832 40.6208Z" fill="url(#paint0_linear_6050_3602)" stroke="black" stroke-width="1.09807" stroke-linejoin="bevel"/>
<path fill-rule="evenodd" clip-rule="evenodd" d="M76.347 40.8835C83.1453 48.3062 83.5375 54.2837 101.056 60.4583L162.96 82.2007C167.666 83.8429 170.02 89.1636 166.686 93.0391L135.701 128.576C133.479 131.138 137.859 138.101 136.551 138.101C134.852 138.101 131.452 137.312 129.884 136.787C109.489 129.561 90.009 122.861 69.6141 115.636C52.5529 109.592 44.3819 101.25 40.133 92.8421C37.8451 88.441 37.4529 83.7772 40.0676 79.4419C47.9118 66.5015 56.8019 53.0356 64.6461 40.0953C65.8881 37.9933 69.9409 35.4972 72.2942 35.3001C74.7782 35.0374 74.5821 38.9786 76.347 40.8835Z" fill="black" stroke="black" stroke-width="1.1353"/>
<path fill-rule="evenodd" clip-rule="evenodd" d="M78.4384 37.008C85.2367 44.4307 85.629 50.4082 103.148 56.5828L166.032 78.785C170.738 80.4272 172.373 85.2881 169.758 89.6234L146.291 128.445C143.611 132.78 137.662 135.079 132.956 133.371C112.561 126.211 92.1004 118.986 71.7055 111.76C54.6444 105.717 48.1729 99.3451 43.924 90.9372C41.6361 86.5361 41.2439 81.8723 43.8586 77.537C51.7028 64.5966 59.3509 52.3131 67.1951 39.4384C69.8752 35.0374 75.0393 33.3295 78.4384 37.008Z" fill="#55DB9C" stroke="black" stroke-width="1.1353"/>
<path fill-rule="evenodd" clip-rule="evenodd" d="M101.122 60.1956L152.174 78.2596C149.69 84.7626 153.024 91.594 160.149 93.9588C160.541 94.0902 160.868 94.2215 161.261 94.2872L146.16 119.183C138.708 116.884 130.08 120.365 126.746 126.999C126.746 127.131 126.681 127.196 126.681 127.262C108.835 120.956 91.055 114.65 73.2748 108.344C59.4167 103.615 54.7756 97.2431 54.7756 97.2431C58.5669 93.1049 59.7435 81.1498 51.834 74.1213C56.4751 66.5016 61.0509 58.8818 65.6921 51.2621C74.4514 57.0426 80.2692 51.1308 81.838 48.0435C81.838 48.0435 84.7142 55.0063 101.122 60.1956Z" fill="#55DB9C" stroke="black" stroke-width="1.1353"/>
<defs>
<linearGradient id="paint0_linear_6050_3602" x1="92.1048" y1="95.865" x2="163.687" y2="49.5954" gradientUnits="userSpaceOnUse">
<stop stop-color="#0094FF"/>
<stop offset="1" stop-color="#70CF42"/>
</linearGradient>
</defs>
</svg>
