<svg width="237" height="237" viewBox="0 0 237 237" fill="none" xmlns="http://www.w3.org/2000/svg">
<path fill-rule="evenodd" clip-rule="evenodd" d="M85.4453 140.078L87.6847 150.603C89.2522 155.977 93.1711 159.56 98.7696 161.799L99.7773 162.135L128.217 171.765C137.511 174.676 148.932 172.996 154.754 164.599L155.09 163.815L190.584 100.777C191.927 98.2013 192.375 96.1858 192.039 93.2747L191.927 92.4909L189.688 81.9658L189.8 82.7496C190.024 85.5488 189.688 87.6762 188.233 90.3635L152.85 153.29L152.403 154.074C146.916 162.135 136.055 164.039 126.986 161.576L125.978 161.352L97.426 151.722L96.5302 151.274C91.3796 149.259 87.9086 146.236 85.8932 141.533L85.6692 140.749L85.4453 140.078Z" fill="url(#paint0_linear_6048_2928)" stroke="black" stroke-width="1.37664" stroke-linejoin="bevel"/>
<path fill-rule="evenodd" clip-rule="evenodd" d="M85.4453 140.078L87.6847 150.603C89.2522 155.977 93.1711 159.56 98.7696 161.8L99.7773 162.136L128.217 171.765C132.92 173.333 138.183 173.557 142.997 172.325L140.646 161.8C136.279 162.919 131.352 162.808 126.986 161.576L125.978 161.352L97.426 151.723L96.5302 151.275C91.3797 149.259 87.9086 146.236 85.8932 141.533L85.6692 140.75L85.4453 140.078Z" fill="black" stroke="black" stroke-width="1.37664" stroke-linejoin="bevel"/>
<path fill-rule="evenodd" clip-rule="evenodd" d="M177.489 69.6494L148.937 60.0201C138.635 56.4371 126.543 60.0201 122.064 67.9698L86.682 131.008C82.2033 138.846 87.1299 148.139 97.431 151.722L125.983 161.352C136.284 164.823 148.489 161.24 152.856 153.29L188.238 90.3636C192.716 82.4138 187.79 73.1204 177.489 69.6494Z" fill="#E9CCFF" stroke="black" stroke-width="1.37664"/>
<path fill-rule="evenodd" clip-rule="evenodd" d="M162.835 73.3555L153.99 70.2203C151.974 69.5485 149.399 70.2203 148.615 71.7879L148.391 72.2358C147.607 73.8033 148.503 75.7068 150.519 76.3786L159.364 79.5137C161.492 80.2975 163.955 79.5137 164.739 77.9462L164.963 77.4983C165.858 75.9307 164.963 74.1392 162.835 73.3555Z" fill="black" stroke="black" stroke-width="1.37664"/>
<path fill-rule="evenodd" clip-rule="evenodd" d="M149.098 102.111L150.322 107.938L150.341 108.357L150.413 108.827L150.38 109.248L150.35 109.722L150.321 110.196L150.238 110.62L150.106 111.098L149.975 111.577L149.843 112.055L149.659 112.483L149.426 112.966L149.193 113.449L148.957 113.88L148.766 114.151L148.574 114.422L148.431 114.638L148.24 114.909L148.048 115.18L147.854 115.399L147.61 115.62L147.416 115.838L147.224 116.109L146.977 116.278L146.733 116.499L146.539 116.717L146.294 116.938L146.047 117.107L145.803 117.327L145.556 117.496L145.258 117.667L145.011 117.835L144.764 118.004L144.466 118.174L144.219 118.343L143.919 118.461L143.672 118.629L143.372 118.748L143.074 118.918L142.825 119.035L142.525 119.153L142.223 119.219L141.923 119.337L141.623 119.455L141.32 119.521L141.02 119.64L139.846 113.81L140.149 113.744L140.449 113.626L140.751 113.56L141.051 113.442L141.3 113.326L141.601 113.207L141.901 113.089L142.201 112.971L142.448 112.802L142.748 112.684L142.995 112.516L143.295 112.397L143.542 112.229L143.839 112.058L144.086 111.89L144.331 111.669L144.578 111.5L144.825 111.332L145.069 111.111L145.316 110.942L145.561 110.722L145.755 110.503L145.999 110.282L146.244 110.061L146.438 109.843L146.629 109.572L146.823 109.353L147.017 109.134L147.209 108.863L147.4 108.592L147.592 108.321L147.735 108.105L148.019 107.62L148.252 107.137L148.436 106.708L148.618 106.228L148.801 105.747L148.935 105.321L149.015 104.845L149.096 104.369L149.177 103.893L149.209 103.471L149.188 102.999L149.169 102.58L149.098 102.111Z" fill="#FFD731" stroke="black" stroke-width="1.37664" stroke-linejoin="bevel"/>
<path fill-rule="evenodd" clip-rule="evenodd" d="M139.912 114.122L141.086 119.952L141.151 120.264L141.165 120.578L141.179 120.893L141.195 121.26L141.158 121.576L141.121 121.893L141.087 122.262L140.999 122.581L140.914 122.953L140.826 123.272L140.69 123.645L140.551 123.966L140.413 124.288L140.226 124.663L140.037 124.987L139.748 125.367L139.511 125.745L139.222 126.126L138.881 126.456L138.592 126.836L138.248 127.114L137.907 127.444L137.512 127.724L137.118 128.004L136.774 128.282L136.326 128.512L135.929 128.739L135.532 128.967L135.082 129.145L134.683 129.32L134.23 129.445L133.008 123.67L133.458 123.493L133.908 123.315L134.307 123.14L134.755 122.91L135.152 122.682L135.549 122.455L135.946 122.227L136.341 121.947L136.682 121.617L137.026 121.339L137.368 121.009L137.709 120.679L137.998 120.298L138.288 119.971L138.577 119.59L138.812 119.16L139.001 118.836L139.191 118.513L139.378 118.137L139.516 117.816L139.604 117.497L139.74 117.123L139.827 116.804L139.913 116.433L139.95 116.116L139.984 115.747L140.021 115.43L140.007 115.116L139.991 114.749L139.977 114.435L139.912 114.122Z" fill="#FFD731" stroke="black" stroke-width="1.37664" stroke-linejoin="bevel"/>
<path fill-rule="evenodd" clip-rule="evenodd" d="M133.361 124.757L134.533 130.534L134.6 130.899L134.618 131.318L134.635 131.685L134.653 132.104L134.619 132.473L134.536 132.897L134.501 133.266L134.367 133.692L134.231 134.066L134.098 134.492L133.913 134.92L133.726 135.296L133.488 135.674L133.202 136.107L132.965 136.485L132.674 136.813L132.335 137.195L132.044 137.523L131.702 137.854L131.358 138.131L130.966 138.464L130.622 138.742L130.225 138.969L129.828 139.197L129.38 139.427L128.984 139.654L128.533 139.832L128.134 140.007L127.684 140.184L126.459 134.357L126.912 134.232L127.362 134.055L127.759 133.827L128.209 133.65L128.606 133.422L129.003 133.194L129.398 132.914L129.792 132.634L130.136 132.357L130.478 132.026L130.819 131.696L131.161 131.366L131.451 131.038L131.74 130.658L132.028 130.277L132.266 129.899L132.504 129.521L132.688 129.093L132.873 128.665L133.06 128.289L133.194 127.863L133.279 127.491L133.362 127.068L133.396 126.699L133.429 126.277L133.463 125.908L133.445 125.489L133.428 125.122L133.361 124.757Z" fill="#FFD731" stroke="black" stroke-width="1.37664" stroke-linejoin="bevel"/>
<path fill-rule="evenodd" clip-rule="evenodd" d="M126.813 135.444L127.986 141.274L128.053 141.638L128.12 142.003L128.088 142.424L128.104 142.791L128.072 143.213L128.038 143.582L127.955 144.006L127.819 144.379L127.685 144.805L127.551 145.231L127.364 145.607L127.18 146.035L126.942 146.413L126.653 146.794L126.416 147.172L126.127 147.552L125.786 147.882L125.495 148.21L125.153 148.541L124.812 148.871L124.417 149.151L124.073 149.429L123.679 149.709L123.282 149.936L122.834 150.166L122.437 150.394L121.987 150.571L121.588 150.746L121.135 150.871L119.964 145.094L120.363 144.919L120.813 144.742L121.212 144.567L121.66 144.337L122.057 144.109L122.454 143.881L122.849 143.601L123.246 143.374L123.587 143.044L123.931 142.766L124.273 142.436L124.614 142.105L124.903 141.725L125.193 141.397L125.482 141.017L125.717 140.586L125.955 140.208L126.193 139.83L126.326 139.404L126.511 138.976L126.647 138.602L126.73 138.178L126.815 137.807L126.898 137.383L126.882 137.016L126.914 136.595L126.898 136.228L126.88 135.809L126.813 135.444Z" fill="#FFD731" stroke="black" stroke-width="1.37664" stroke-linejoin="bevel"/>
<path fill-rule="evenodd" clip-rule="evenodd" d="M120.268 146.184L121.439 151.961L121.506 152.326L121.576 152.743L121.592 153.109L121.56 153.531L121.525 153.9L121.493 154.322L121.407 154.693L121.274 155.119L121.138 155.493L121.004 155.919L120.819 156.347L120.632 156.723L120.395 157.101L120.157 157.479L119.917 157.805L119.677 158.13L119.386 158.458L119.146 158.784L118.802 159.062L118.509 159.337L118.216 159.613L117.872 159.891L117.526 160.116L117.18 160.341L116.834 160.567L116.488 160.792L116.088 160.967L115.74 161.14L115.34 161.315L114.167 155.486L114.517 155.365L114.917 155.19L115.263 154.965L115.662 154.79L116.008 154.564L116.355 154.339L116.698 154.061L116.992 153.786L117.338 153.56L117.628 153.232L117.922 152.957L118.215 152.681L118.455 152.356L118.745 152.028L118.983 151.65L119.172 151.326L119.408 150.896L119.645 150.517L119.779 150.091L119.966 149.716L120.1 149.29L120.185 148.918L120.268 148.494L120.353 148.123L120.386 147.702L120.369 147.335L120.351 146.915L120.335 146.549L120.268 146.184Z" fill="#FFD731" stroke="black" stroke-width="1.37664" stroke-linejoin="bevel"/>
<path fill-rule="evenodd" clip-rule="evenodd" d="M114.926 157.71L116.148 163.485L116.16 163.747L116.222 164.007L116.234 164.269L116.245 164.531L116.257 164.793L116.271 165.107L116.232 165.371L116.193 165.636L116.204 165.898L116.165 166.162L116.126 166.426L116.038 166.745L115.999 167.01L115.909 167.276L115.819 167.543L115.729 167.809L115.641 168.128L115.501 168.397L115.411 168.663L115.27 168.932L115.129 169.201L114.938 169.472L114.797 169.741L114.513 170.226L114.176 170.661L113.839 171.096L113.5 171.479L113.161 171.861L112.771 172.246L112.381 172.631L111.938 172.966L111.545 173.298L111.1 173.58L110.606 173.917L110.158 174.147L109.713 174.429L109.214 174.662L108.716 174.894L108.215 175.073L107.714 175.253L107.213 175.433L106.71 175.56L106.156 175.69L105.651 175.764L105.145 175.839L104.589 175.917L104.081 175.939L103.573 175.961L103.063 175.932L102.502 175.904L101.99 175.822L101.477 175.739L101.016 175.655L100.501 175.52L99.986 175.385L99.5197 175.196L99.1041 175.004L98.6863 174.76L98.2684 174.516L97.8506 174.272L97.4835 174.025L97.1649 173.725L96.8463 173.424L96.5277 173.123L96.2576 172.767L95.9897 172.464L95.7704 172.106L95.551 171.748L95.3293 171.338L95.1607 170.978L94.9898 170.565L93.8183 164.788L93.9869 165.148L94.1578 165.561L94.3263 165.921L94.5457 166.279L94.7651 166.637L95.0352 166.992L95.3538 167.293L95.624 167.649L95.9426 167.95L96.3096 168.196L96.679 168.495L97.0461 168.741L97.464 168.985L97.8795 169.177L98.3458 169.366L98.8121 169.556L99.2761 169.693L99.7909 169.827L100.306 169.962L100.818 170.045L101.328 170.074L101.838 170.104L102.349 170.134L102.907 170.11L103.415 170.087L103.923 170.065L104.479 169.988L104.982 169.86L105.485 169.733L105.989 169.606L106.543 169.476L107.043 169.296L107.542 169.064L107.99 168.834L108.488 168.602L108.987 168.37L109.432 168.088L109.878 167.806L110.321 167.471L110.764 167.136L111.156 166.804L111.548 166.471L111.939 166.087L112.329 165.702L112.665 165.267L113.002 164.832L113.288 164.399L113.575 163.966L113.766 163.695L113.907 163.426L114.048 163.158L114.186 162.836L114.327 162.568L114.417 162.301L114.507 162.035L114.647 161.766L114.684 161.449L114.774 161.182L114.864 160.916L114.903 160.652L114.943 160.387L114.98 160.071L115.019 159.806L115.058 159.542L115.046 159.28L115.035 159.018L115.023 158.756L115.011 158.494L115 158.232L114.988 157.97L114.926 157.71Z" fill="#FFD731" stroke="black" stroke-width="1.37664" stroke-linejoin="bevel"/>
<path fill-rule="evenodd" clip-rule="evenodd" d="M107.813 175.196L107.714 175.253L107.213 175.433L106.71 175.56L106.156 175.69L105.651 175.765L105.145 175.84L104.589 175.917L104.081 175.939L103.573 175.962L103.063 175.932L102.502 175.904L101.99 175.822L101.477 175.739L101.016 175.655L100.501 175.52L99.9861 175.385L99.5198 175.196L99.1042 175.004L98.6864 174.76L98.2685 174.516L97.8507 174.272L97.4836 174.026L97.165 173.725L96.8464 173.424L96.5278 173.123L96.2576 172.767L95.9898 172.464L95.7704 172.106L95.5511 171.748L95.3294 171.338L95.1608 170.978L94.9899 170.565L93.8184 164.788L93.9869 165.148L94.1578 165.561L94.3264 165.921L94.5458 166.279L94.7652 166.637L95.0353 166.992L95.3539 167.293L95.6241 167.649L95.9427 167.95L96.3097 168.196L96.6791 168.495L97.0462 168.741L97.464 168.985L97.8796 169.177L98.3459 169.367L98.8122 169.556L99.2762 169.693L99.791 169.828L100.306 169.962L100.818 170.045L101.328 170.075L101.838 170.105L102.349 170.135L102.907 170.11L103.415 170.087L103.923 170.065L104.479 169.988L104.982 169.86L105.485 169.733L105.989 169.606L106.492 169.479L107.813 175.196Z" fill="black" stroke="black" stroke-width="1.37664" stroke-linejoin="bevel"/>
<path fill-rule="evenodd" clip-rule="evenodd" d="M93.8154 164.788L94.9869 170.565L94.6361 170.686L94.283 170.754L93.879 170.824L93.5259 170.892L93.1219 170.963L92.7665 170.978L92.3602 170.996L92.0048 171.012L91.6493 171.028L91.2407 170.993L90.8829 170.957L90.5251 170.92L90.165 170.831L89.8049 170.742L89.4448 170.653L89.0847 170.564L88.6692 170.372L88.2559 170.233L87.8912 170.039L87.5749 169.79L87.2102 169.596L86.8939 169.348L86.6284 169.097L86.3098 168.796L86.0927 168.491L85.8249 168.187L85.6078 167.882L85.4416 167.574L85.273 167.214L85.1067 166.906L84.9889 166.544L84.8711 166.182L83.6973 160.352L83.7643 160.717L83.9329 161.077L84.0507 161.439L84.2169 161.747L84.4363 162.105L84.6533 162.41L84.8704 162.716L85.1382 163.019L85.4037 163.27L85.72 163.518L86.0363 163.767L86.3526 164.016L86.7173 164.21L87.0821 164.403L87.4976 164.595L87.9108 164.734L88.2225 164.878L88.5826 164.967L88.9427 165.056L89.3005 165.093L89.7091 165.127L90.0668 165.164L90.4246 165.201L90.8332 165.235L91.1887 165.219L91.5441 165.204L91.9481 165.133L92.3035 165.118L92.7075 165.047L93.0606 164.979L93.4622 164.856L93.8154 164.788Z" fill="black" stroke="black" stroke-width="1.37664" stroke-linejoin="bevel"/>
<path fill-rule="evenodd" clip-rule="evenodd" d="M83.6988 160.353L84.8727 166.182L84.6719 166.243L84.4734 166.357L84.2218 166.421L84.0233 166.535L83.7717 166.598L83.5709 166.66L83.3701 166.721L83.1185 166.785L82.9154 166.794L82.6638 166.857L82.463 166.919L82.2091 166.93L82.0083 166.991L81.7544 167.003L81.5513 167.012L81.2974 167.023L81.0942 167.032L80.8403 167.043L80.6372 167.052L80.3833 167.063L80.1802 167.072L79.9747 167.029L79.7208 167.04L79.5154 166.997L79.2591 166.955L79.0537 166.912L78.8482 166.869L78.6428 166.825L78.3866 166.784L78.1811 166.741L77.9734 166.645L77.7679 166.601L77.3524 166.41L76.9392 166.27L76.5744 166.077L76.2074 165.83L75.8934 165.634L75.5771 165.386L75.2608 165.137L74.993 164.834L74.7783 164.581L74.5104 164.277L74.2911 163.92L74.1248 163.612L73.9585 163.304L73.79 162.944L73.6722 162.582L73.5544 162.219L72.3828 156.442L72.4498 156.807L72.6161 157.115L72.7339 157.477L72.9025 157.837L73.1195 158.143L73.3366 158.448L73.5536 158.754L73.8214 159.057L74.0869 159.308L74.4032 159.556L74.7195 159.805L75.0358 160.053L75.4006 160.247L75.7653 160.441L76.1808 160.633L76.5433 160.774L76.8018 160.868L77.0073 160.911L77.2127 160.955L77.4205 161.05L77.6259 161.094L77.8821 161.135L78.0876 161.179L78.2907 161.17L78.5469 161.211L78.7524 161.254L78.9555 161.245L79.2094 161.234L79.4149 161.277L79.6688 161.266L79.8719 161.257L80.1258 161.246L80.3289 161.237L80.5828 161.226L80.7836 161.164L81.0376 161.153L81.2384 161.092L81.4923 161.08L81.6931 161.019L81.9447 160.955L82.1455 160.894L82.3971 160.83L82.5979 160.769L82.7987 160.707L83.0503 160.644L83.2487 160.53L83.4496 160.469L83.6988 160.353Z" fill="black" stroke="black" stroke-width="1.37664" stroke-linejoin="bevel"/>
<path fill-rule="evenodd" clip-rule="evenodd" d="M72.3847 156.442L73.5563 162.219L73.3578 162.333L73.157 162.394L72.9054 162.458L72.7069 162.572L72.4553 162.635L72.2545 162.697L72.0537 162.758L71.8021 162.822L71.6013 162.883L71.3474 162.894L71.1466 162.956L70.8927 162.967L70.6919 163.029L70.438 163.04L70.2349 163.049L69.9833 163.112L69.7801 163.121L69.5262 163.133L69.3208 163.089L69.0669 163.1L68.8638 163.109L68.6075 163.068L68.4044 163.077L68.199 163.034L67.9427 162.993L67.7373 162.949L67.5318 162.906L67.3264 162.862L67.0702 162.821L66.8647 162.778L66.657 162.682L66.4515 162.639L66.0891 162.497L65.7774 162.353L65.415 162.212L65.101 162.016L64.8378 161.817L64.5239 161.621L64.2607 161.423L63.9975 161.224L63.7828 160.971L63.5681 160.718L63.3556 160.518L63.1386 160.212L62.9747 159.957L62.8107 159.702L62.6445 159.394L62.5313 159.136L61.3574 153.307L61.4729 153.617L61.6368 153.872L61.8031 154.18L61.9671 154.435L62.131 154.69L62.3457 154.944L62.6112 155.194L62.8236 155.395L63.0891 155.646L63.3523 155.844L63.6155 156.043L63.9295 156.239L64.2411 156.382L64.5528 156.526L64.9175 156.72L65.2269 156.811L65.4854 156.905L65.6908 156.948L65.8986 157.044L66.1041 157.088L66.3095 157.131L66.5657 157.172L66.7712 157.216L66.9766 157.259L67.2305 157.248L67.436 157.291L67.6391 157.282L67.8953 157.323L68.0985 157.314L68.3524 157.303L68.5555 157.294L68.8094 157.283L69.0125 157.274L69.2664 157.263L69.4672 157.201L69.7211 157.19L69.922 157.129L70.1759 157.118L70.3767 157.056L70.6283 156.992L70.8291 156.931L71.0299 156.87L71.2815 156.806L71.4823 156.745L71.7338 156.681L71.9323 156.567L72.1331 156.506L72.3847 156.442Z" fill="black" stroke="black" stroke-width="1.37664" stroke-linejoin="bevel"/>
<path fill-rule="evenodd" clip-rule="evenodd" d="M61.3577 153.307L62.5315 159.136L62.2799 159.2L62.0307 159.316L61.7791 159.38L61.5275 159.443L61.2759 159.507L61.0243 159.571L60.7219 159.637L60.4704 159.7L60.2188 159.764L59.9672 159.828L59.7133 159.839L59.4617 159.903L59.157 159.916L58.9031 159.927L58.6492 159.938L58.3976 160.002L58.1414 159.961L57.8875 159.972L57.6336 159.983L57.3796 159.995L57.0726 159.956L56.8164 159.915L56.5625 159.926L56.3063 159.885L56.05 159.843L55.7938 159.802L55.5884 159.759L55.3298 159.665L55.0736 159.624L54.8151 159.531L54.5588 159.489L54.3511 159.394L53.834 159.206L53.4184 159.015L52.9498 158.773L52.5343 158.581L52.1649 158.283L51.7978 158.036L51.4284 157.738L51.1098 157.437L50.7889 157.083L50.5211 156.78L50.2509 156.424L50.0316 156.066L49.8099 155.656L49.5905 155.298L49.4196 154.886L49.2995 154.471L49.1794 154.056L47.957 148.281L48.0772 148.696L48.2481 149.109L48.4166 149.469L48.5875 149.881L48.8069 150.239L49.077 150.595L49.2964 150.953L49.6173 151.306L49.8852 151.609L50.2546 151.908L50.5732 152.209L50.9425 152.508L51.3604 152.752L51.7783 152.996L52.1938 153.188L52.6624 153.429L53.1287 153.619L53.385 153.66L53.6435 153.754L53.8489 153.797L54.1075 153.891L54.3637 153.932L54.6199 153.973L54.8762 154.014L55.1324 154.055L55.3886 154.096L55.6449 154.138L55.9011 154.179L56.155 154.168L56.4089 154.156L56.6651 154.197L56.919 154.186L57.2237 154.173L57.4776 154.162L57.7315 154.15L57.9854 154.139L58.237 154.075L58.4909 154.064L58.7425 154.001L59.0472 153.987L59.2988 153.923L59.5504 153.86L59.802 153.796L60.0536 153.732L60.3052 153.669L60.5544 153.553L60.806 153.489L61.1084 153.423L61.3577 153.307Z" fill="black" stroke="black" stroke-width="1.37664" stroke-linejoin="bevel"/>
<path fill-rule="evenodd" clip-rule="evenodd" d="M64.0969 125.565L65.2708 131.394L65.153 131.032L65.0352 130.669L63.8613 124.84L63.9283 125.204L64.0969 125.565Z" fill="#FFD731" stroke="black" stroke-width="1.37664" stroke-linejoin="bevel"/>
<path fill-rule="evenodd" clip-rule="evenodd" d="M70.6434 114.825L71.8173 120.655L71.6995 120.292L71.5817 119.93L70.4102 114.153L70.4772 114.517L70.6434 114.825Z" fill="#FFD731" stroke="black" stroke-width="1.37664" stroke-linejoin="bevel"/>
<path fill-rule="evenodd" clip-rule="evenodd" d="M77.1425 104.14L78.3671 109.967L78.2493 109.605L78.1315 109.243L78.0645 108.878L76.8398 103.051L76.9576 103.413L77.0247 103.778L77.1425 104.14Z" fill="#FFD731" stroke="black" stroke-width="1.37664" stroke-linejoin="bevel"/>
<path fill-rule="evenodd" clip-rule="evenodd" d="M82.6387 93.8143L83.8633 99.6414L83.7525 99.4363L83.6393 99.1787L83.5793 98.9713L83.4661 98.7138L83.4037 98.454L83.3437 98.2466L83.2813 97.9868L82.0566 92.1597L82.119 92.4195L82.1814 92.6793L82.2922 92.8844L82.3546 93.1442L82.4678 93.4018L82.5278 93.6091L82.6387 93.8143Z" fill="#FFD731" stroke="black" stroke-width="1.37664" stroke-linejoin="bevel"/>
<path fill-rule="evenodd" clip-rule="evenodd" d="M98.1045 80.0021C101.05 81.027 102.876 83.2042 103.399 85.8067C105.111 85.4158 106.896 85.4943 108.498 86.0536C110.721 86.8479 112.217 88.462 112.711 90.4356C114.957 89.4435 117.542 89.2241 119.816 90.0161C122.039 90.8104 123.535 92.4246 124.027 94.3457C126.326 93.4038 128.86 93.1866 131.134 93.9787C132.683 94.4877 133.845 95.4341 134.609 96.608C137.501 95.2722 140.894 94.912 143.789 95.9391C148.957 97.7583 150.724 103.194 147.736 108.105C145.978 110.913 143.017 112.987 139.848 113.81C140.227 115.474 139.904 117.378 138.812 119.16C137.534 121.317 135.365 122.883 133.008 123.67C133.752 125.527 133.598 127.792 132.266 129.899C130.986 132.004 128.816 133.57 126.46 134.357C127.203 136.215 127.049 138.479 125.718 140.586C124.439 142.743 122.27 144.31 119.964 145.094C120.657 146.954 120.503 149.219 119.171 151.326C118.034 153.214 116.215 154.66 114.166 155.486C115.496 157.948 115.379 161.051 113.574 163.966C110.586 168.877 103.98 171.375 98.8118 169.556C96.2795 168.67 94.5733 166.908 93.818 164.788C91.8584 165.348 89.774 165.387 87.9134 164.735C85.6396 163.943 84.1943 162.326 83.6999 160.353C81.4034 161.347 78.8181 161.566 76.5443 160.774C74.3213 159.98 72.8759 158.364 72.3839 156.442C70.085 157.384 67.4998 157.604 65.226 156.812C63.3146 156.161 61.9871 154.907 61.3566 153.307C58.6538 154.32 55.7108 154.502 53.1276 153.619C47.959 151.8 46.192 146.364 49.1801 141.453C50.9846 138.538 54.0472 136.459 57.3179 135.632C56.835 133.92 57.1024 131.913 58.2907 130.023C59.5714 127.918 61.7408 126.352 64.0974 125.565C63.3537 123.707 63.5079 121.442 64.8393 119.335C66.1176 117.178 68.287 115.612 70.6436 114.825C69.8999 112.968 70.0564 110.755 71.3855 108.596C72.6661 106.491 74.8356 104.925 77.1414 104.14C76.4485 102.28 76.6026 100.016 77.9341 97.9087C79.0232 96.0751 80.7425 94.6862 82.6374 93.8147C81.4643 91.451 81.5837 88.4001 83.342 85.5916C86.3301 80.6808 92.9359 78.1829 98.1045 80.0021Z" fill="#FFD731" stroke="black" stroke-width="1.37664"/>
<path fill-rule="evenodd" clip-rule="evenodd" d="M92.8166 89.2683L138.346 105.16L103.808 161.721L58.2787 145.829L92.8166 89.2683Z" fill="white" stroke="black" stroke-width="1.37664"/>
<defs>
<linearGradient id="paint0_linear_6048_2928" x1="127.682" y1="134.396" x2="189.49" y2="99.2236" gradientUnits="userSpaceOnUse">
<stop stop-color="#FF6FB4"/>
<stop offset="1" stop-color="#FFB800"/>
</linearGradient>
</defs>
</svg>
