<svg width="237" height="237" viewBox="0 0 237 237" fill="none" xmlns="http://www.w3.org/2000/svg">
<path fill-rule="evenodd" clip-rule="evenodd" d="M137.43 77.8239L54.8758 136.45C52.8773 137.88 51.8267 135.306 51.7171 137.358C51.7278 137.666 51.7356 142.56 51.7464 142.868C51.985 144.509 52.788 146.222 54.2884 147.656L87.0054 177.656C90.6225 181.047 96.9129 181.57 100.931 178.783L183.392 120.106C185.268 118.789 186.312 117.012 186.534 115.083C186.575 114.683 186.547 110.261 186.516 109.881C186.4 108.127 184.041 108.572 182.448 107.087L151.263 78.8997C147.574 75.5299 141.355 74.9858 137.43 77.8239Z" fill="url(#paint0_linear_6036_1980)" stroke="black" stroke-width="1.5" stroke-linejoin="bevel"/>
<path fill-rule="evenodd" clip-rule="evenodd" d="M137.429 77.8239L132.756 81.0326L94.1405 180.579C96.5006 180.678 98.9827 180.12 100.93 178.783L183.392 120.106C185.267 118.789 186.311 117.012 186.534 115.083C186.574 114.683 186.546 110.261 186.515 109.881C186.399 108.127 184.04 108.572 182.448 107.087L151.262 78.8997C147.573 75.5299 141.375 75.0575 137.429 77.8239Z" fill="black" stroke="black" stroke-width="1.5" stroke-linejoin="round"/>
<path fill-rule="evenodd" clip-rule="evenodd" d="M137.411 73.1657L54.9288 131.771C50.9318 134.63 50.6524 139.607 54.3413 142.977L87.0072 173.07C90.6754 176.368 96.8941 176.912 100.912 174.125L183.394 115.519C187.319 112.681 187.599 107.704 183.981 104.314L151.316 74.2208C147.627 70.851 141.336 70.3275 137.411 73.1657Z" fill="#55DB9C" stroke="black" stroke-width="1.5" stroke-linejoin="round"/>
<path fill-rule="evenodd" clip-rule="evenodd" d="M135.494 71.6189L53.0116 130.225C51.0131 131.654 49.8907 129.101 49.8529 131.133C49.8125 131.533 49.8714 136.335 49.8822 136.642C50.049 138.304 50.9238 139.996 52.4241 141.43L85.09 171.523C88.7583 174.821 95.0487 175.344 98.9946 172.578L181.477 113.972C183.332 112.584 184.447 110.787 184.598 108.878C184.639 108.478 184.683 104.035 184.651 103.656C184.536 101.901 182.105 102.367 180.512 100.882L149.398 72.6741C145.71 69.3043 139.419 68.7808 135.494 71.6189Z" fill="url(#paint1_linear_6036_1980)" stroke="black" stroke-width="1.5" stroke-linejoin="bevel"/>
<path fill-rule="evenodd" clip-rule="evenodd" d="M135.493 71.6186L130.892 74.8067L92.2045 174.374C94.6364 174.452 97.0467 173.915 98.9941 172.578L181.476 113.972C183.331 112.584 184.447 110.787 184.598 108.878C184.638 108.478 184.682 104.035 184.651 103.655C184.535 101.901 182.104 102.367 180.511 100.881L149.398 72.6738C145.709 69.304 139.439 68.8523 135.493 71.6186Z" fill="black" stroke="black" stroke-width="1.5" stroke-linejoin="round"/>
<path fill-rule="evenodd" clip-rule="evenodd" d="M135.473 66.961L52.9912 125.567C49.066 128.405 48.7149 133.402 52.4037 136.772L85.0696 166.865C88.7585 170.235 95.0283 170.687 98.9742 167.92L181.456 109.314C185.453 106.456 185.733 101.479 182.044 98.1091L149.378 68.0162C145.689 64.6464 139.399 64.1229 135.473 66.961Z" fill="#55DB9C" stroke="black" stroke-width="1.5" stroke-linejoin="round"/>
<path fill-rule="evenodd" clip-rule="evenodd" d="M136.512 63.5536L54.0301 122.159C52.0316 123.589 50.981 121.015 50.8714 123.067C50.8821 123.375 50.8899 128.269 50.9007 128.577C51.0675 130.239 51.9424 131.931 53.4427 133.365L86.1597 163.365C89.7768 166.756 96.0673 167.279 100.064 164.42L182.547 105.815C184.422 104.498 185.466 102.722 185.688 100.792C185.729 100.392 185.701 95.9699 185.67 95.5903C185.554 93.8359 183.195 94.2809 181.531 92.8163L150.417 64.6088C146.728 61.239 140.509 60.6949 136.512 63.5536Z" fill="url(#paint2_linear_6036_1980)" stroke="black" stroke-width="1.5" stroke-linejoin="bevel"/>
<path fill-rule="evenodd" clip-rule="evenodd" d="M136.512 63.5536L131.91 66.7417L93.2949 166.288C95.6549 166.387 98.1371 165.829 100.064 164.42L182.546 105.815C184.422 104.498 185.465 102.722 185.688 100.792C185.728 100.392 185.701 95.9698 185.669 95.5903C185.554 93.8359 183.195 94.2809 181.53 92.8163L150.416 64.6088C146.728 61.239 140.53 60.7666 136.512 63.5536Z" fill="black" stroke="black" stroke-width="1.5" stroke-linejoin="round"/>
<path fill-rule="evenodd" clip-rule="evenodd" d="M136.567 58.8743L54.085 117.48C50.0674 120.267 49.8087 125.316 53.4975 128.685L86.1634 158.778C89.7599 162.097 96.0503 162.62 100.068 159.833L182.53 101.156C186.475 98.3896 186.755 93.4128 183.138 90.0224L150.472 59.9294C146.783 56.5596 140.493 56.0361 136.567 58.8743Z" fill="#55DB9C" stroke="black" stroke-width="1.5" stroke-linejoin="round"/>
<path fill-rule="evenodd" clip-rule="evenodd" d="M134.116 65.4866L67.0073 113.223C71.1304 118.644 69.8082 125.941 63.6996 130.106C63.382 130.353 63.1154 130.507 62.7978 130.754L83.7393 150.072C90.1557 145.896 99.1965 146.795 104.151 152.132C104.243 152.183 104.264 152.255 104.356 152.306L171.004 104.858C170.706 104.633 170.387 104.336 170.141 104.018C165.094 98.6296 166.231 90.6862 172.493 86.2437L153.257 68.5341C147.024 71.7248 138.844 70.5784 134.229 65.6095C134.209 65.5377 134.137 65.5584 134.116 65.4866Z" fill="#55DB9C" stroke="black" stroke-width="1.5" stroke-linejoin="round"/>
<path fill-rule="evenodd" clip-rule="evenodd" d="M107.399 79.6163L85.9275 94.9591L130.27 138.095L151.741 122.752L107.399 79.6163Z" fill="#F7F7F7" stroke="black" stroke-width="1.5" stroke-linejoin="round"/>
<path fill-rule="evenodd" clip-rule="evenodd" d="M150.111 143.583L128.64 158.926L130.269 138.095L151.74 122.752L150.111 143.583Z" fill="url(#paint3_linear_6036_1980)" stroke="black" stroke-width="1.5"/>
<path fill-rule="evenodd" clip-rule="evenodd" d="M124.63 114.689L125.091 114.401L125.163 114.38C125.235 114.36 125.214 114.288 125.286 114.267C126.116 113.64 126.956 112.777 127.324 111.894C127.427 111.709 127.529 111.524 127.611 111.268C127.662 111.175 127.692 111.011 127.743 110.919C127.795 110.826 127.774 110.754 127.804 110.59C127.804 110.59 127.856 110.498 127.835 110.426C127.865 110.262 127.917 110.169 127.926 109.933C127.916 109.625 127.967 109.533 127.956 109.225C127.945 108.374 127.656 107.369 127.151 106.425C126.02 104.652 124.161 103.321 121.892 102.73C121.728 102.699 121.564 102.669 121.471 102.618C120.486 102.435 119.429 102.272 118.444 102.089L112.552 101.062C112.06 100.97 111.475 100.828 111.075 100.787C110.91 100.757 110.91 100.757 110.839 100.777L110.767 100.798C110.787 100.87 110.716 100.891 110.716 100.891C110.664 100.983 110.664 100.983 110.664 100.983L110.665 101.527C110.686 101.599 110.655 101.763 110.676 101.835L110.682 105.641C110.672 105.877 110.662 106.113 110.652 106.349L110.704 106.801C110.653 106.893 110.674 106.965 110.695 107.037C110.685 107.273 110.654 107.437 110.644 107.673C110.696 108.124 110.677 108.596 110.657 109.068C110.689 109.992 110.865 110.874 111.462 111.868C112.007 112.955 113.055 113.897 114.185 114.583C114.668 114.91 115.294 115.196 115.828 115.432C116.085 115.513 116.341 115.595 116.67 115.656C116.926 115.738 117.255 115.799 117.511 115.88C117.583 115.86 117.676 115.911 117.747 115.89C117.983 115.9 118.076 115.951 118.332 116.033C119.04 116.063 119.82 116.072 120.508 116.03C120.959 115.977 121.41 115.925 121.841 115.802C122.723 115.626 123.421 115.348 124.169 114.977C124.241 114.956 124.558 114.71 124.63 114.689ZM125.894 109.352C125.925 109.187 125.852 108.664 125.811 108.521C125.614 107.567 125.11 106.624 124.339 105.835C123.815 105.364 123.055 104.883 122.357 104.617C121.823 104.382 121.474 104.249 120.889 104.106C120.725 104.076 120.56 104.045 120.396 104.015C119.011 103.791 117.604 103.496 116.291 103.252C115.891 103.211 115.562 103.15 115.234 103.089L114.248 102.906C113.92 102.845 113.427 102.754 113.191 102.744C113.006 102.641 112.791 102.703 112.668 102.816C112.545 102.929 112.586 103.073 112.628 103.217C112.638 103.524 112.629 103.76 112.639 104.068C112.579 104.94 112.919 105.853 113.618 106.662C114.297 107.4 115.108 107.789 116.093 107.972C116.257 108.002 116.35 108.054 116.586 108.063C116.75 108.094 116.914 108.124 117.13 108.063C117.294 108.093 117.458 108.124 117.602 108.082C118.238 108.133 119.12 107.957 119.735 107.935C120.187 107.883 120.895 107.913 121.295 107.953L121.675 107.922C121.767 107.973 121.767 107.973 121.839 107.952L122.239 107.993C122.475 108.003 122.568 108.054 122.896 108.115C124.867 108.481 125.73 109.321 125.894 109.352ZM123.438 113.244C124.165 112.802 124.76 112.165 125.261 111.477L125.241 111.405C125.292 111.312 124.675 110.79 124.583 110.739C123.874 110.165 123.176 109.9 122.283 109.768C122.191 109.717 122.119 109.737 122.026 109.686C121.862 109.656 121.462 109.615 121.226 109.605C121.154 109.626 121.154 109.626 121.082 109.647C120.59 109.555 119.902 109.597 119.379 109.67C118.62 109.733 118.097 109.805 117.317 109.796C116.701 109.818 116.373 109.757 115.716 109.635C115.223 109.543 114.659 109.472 114.125 109.237C113.755 109.032 113.314 108.848 113.016 108.623C112.831 108.521 112.739 108.47 112.626 108.347C112.626 108.347 112.575 108.983 112.596 109.055C112.638 109.742 112.793 110.553 113.215 111.209C113.544 111.813 113.976 112.233 114.5 112.704C115.024 113.176 115.579 113.483 116.205 113.769C117.345 114.218 118.638 114.391 119.725 114.389C120.864 114.295 122.197 114.067 123.438 113.244Z" fill="black"/>
<defs>
<linearGradient id="paint0_linear_6036_1980" x1="135.349" y1="130.537" x2="56.733" y2="99.6862" gradientUnits="userSpaceOnUse">
<stop stop-color="#0094FF"/>
<stop offset="1" stop-color="#70CF42"/>
</linearGradient>
<linearGradient id="paint1_linear_6036_1980" x1="133.473" y1="124.315" x2="54.8495" y2="93.4528" gradientUnits="userSpaceOnUse">
<stop stop-color="#0094FF"/>
<stop offset="1" stop-color="#70CF42"/>
</linearGradient>
<linearGradient id="paint2_linear_6036_1980" x1="134.486" y1="116.23" x2="55.8808" y2="85.356" gradientUnits="userSpaceOnUse">
<stop stop-color="#0094FF"/>
<stop offset="1" stop-color="#70CF42"/>
</linearGradient>
<linearGradient id="paint3_linear_6036_1980" x1="136.269" y1="127.199" x2="144.111" y2="154.479" gradientUnits="userSpaceOnUse">
<stop stop-color="#F7F7F7"/>
<stop offset="1" stop-color="#EBCD81"/>
</linearGradient>
</defs>
</svg>
