<svg width="205" height="205" viewBox="0 0 205 205" fill="none" xmlns="http://www.w3.org/2000/svg">
<path fill-rule="evenodd" clip-rule="evenodd" d="M73.4052 70.0485L170.542 104.403C172.896 105.191 173.223 102.432 173.942 104.403C174.007 104.731 175.38 109.461 175.38 109.789C175.707 111.497 175.38 113.402 174.268 115.241L150.736 153.997C148.121 158.332 142.107 160.631 137.466 158.989L40.3289 124.7C38.1063 123.912 36.5375 122.401 35.8185 120.562C35.6877 120.233 34.3804 115.832 34.315 115.504C33.9228 113.73 36.4068 113.468 37.5834 111.563L60.0701 75.0407C62.7502 70.7053 68.6987 68.4063 73.4052 70.0485Z" fill="url(#paint0_linear_6050_3513)" stroke="black" stroke-width="1.09807" stroke-linejoin="bevel"/>
<path fill-rule="evenodd" clip-rule="evenodd" d="M73.4052 70.0485L78.8308 71.9534L144.591 158.858C142.238 159.646 139.689 159.777 137.466 158.989L40.3289 124.7C38.1063 123.912 36.5375 122.401 35.8185 120.562C35.6877 120.234 34.3804 115.832 34.315 115.504C33.9228 113.73 36.4068 113.468 37.5834 111.563L60.0701 75.0407C62.7502 70.7054 68.6987 68.472 73.4052 70.0485Z" fill="black" stroke="black" stroke-width="1.1353"/>
<path fill-rule="evenodd" clip-rule="evenodd" d="M72.0983 65.5162L169.236 99.8049C173.877 101.447 175.576 106.308 172.962 110.643L149.429 149.464C146.814 153.8 140.8 156.033 136.159 154.391L39.0219 120.102C34.3154 118.46 32.6158 113.599 35.2959 109.264L58.7632 70.4427C61.4433 66.1074 67.3918 63.874 72.0983 65.5162Z" fill="#55DB9C" stroke="black" stroke-width="1.1353"/>
<path fill-rule="evenodd" clip-rule="evenodd" d="M73.5361 63.4144L170.673 97.7688C173.027 98.5571 173.353 95.7982 174.007 97.7688C174.138 98.0972 175.511 102.827 175.511 103.155C175.837 104.863 175.445 106.768 174.399 108.607L150.867 147.363C148.252 151.698 142.238 153.997 137.597 152.355L40.3944 118.066C38.2372 117.278 36.6684 115.767 35.9493 113.928C35.8186 113.599 34.5112 109.198 34.4458 108.87C34.0536 107.096 36.5376 106.834 37.7143 104.929L60.2009 68.4066C62.881 64.0713 68.8296 61.7722 73.5361 63.4144Z" fill="url(#paint1_linear_6050_3513)" stroke="black" stroke-width="1.09807" stroke-linejoin="bevel"/>
<path fill-rule="evenodd" clip-rule="evenodd" d="M73.5361 63.4145L78.9617 65.3194L144.722 152.224C142.369 153.012 139.82 153.143 137.597 152.355L40.3944 118.066C38.2372 117.278 36.6684 115.767 35.9493 113.928C35.8186 113.599 34.5112 109.198 34.4458 108.87C34.0536 107.096 36.5376 106.834 37.7143 104.929L60.201 68.4067C62.8811 64.0714 68.8296 61.838 73.5361 63.4145Z" fill="black" stroke="black" stroke-width="1.1353"/>
<path fill-rule="evenodd" clip-rule="evenodd" d="M72.2294 58.8819L169.367 93.1706C174.008 94.8128 175.707 99.6736 173.093 104.009L149.56 142.764C146.945 147.165 140.931 149.399 136.29 147.757L39.0877 113.468C34.4465 111.826 32.7469 106.965 35.427 102.63L58.8943 63.8084C61.509 59.4731 67.5229 57.2397 72.2294 58.8819Z" fill="#55DB9C" stroke="black" stroke-width="1.1353"/>
<path fill-rule="evenodd" clip-rule="evenodd" d="M70.2024 55.7946L167.34 90.0833C169.693 90.9372 170.085 88.1126 170.739 90.1489C170.804 90.4774 172.177 95.2069 172.242 95.5353C172.504 97.2432 172.177 99.1481 171.066 100.922L147.598 139.743C144.918 144.078 138.97 146.311 134.263 144.669L37.126 110.381C34.9035 109.592 33.3346 108.147 32.6156 106.308C32.4848 105.914 31.2429 101.579 31.1121 101.184C30.7853 99.4108 33.2039 99.1481 34.3805 97.2432L56.8672 60.7868C59.5473 56.4514 65.5612 54.1524 70.2024 55.7946Z" fill="url(#paint2_linear_6050_3513)" stroke="black" stroke-width="1.09807" stroke-linejoin="bevel"/>
<path fill-rule="evenodd" clip-rule="evenodd" d="M70.2024 55.7946L75.6279 57.6338L141.388 144.538C139.101 145.326 136.486 145.458 134.263 144.669L37.126 110.381C34.9035 109.592 33.3346 108.147 32.6156 106.308C32.4848 105.914 31.2429 101.579 31.1121 101.184C30.7853 99.4108 33.2039 99.1481 34.3805 97.2432L56.8672 60.7868C59.5473 56.4514 65.4958 54.1524 70.2024 55.7946Z" fill="black" stroke="black" stroke-width="1.1353"/>
<path fill-rule="evenodd" clip-rule="evenodd" d="M68.8954 51.1964L166.033 85.5508C170.739 87.193 172.373 91.9881 169.759 96.3892L146.291 135.145C143.611 139.48 137.663 141.779 132.956 140.137L35.8191 105.782C31.1126 104.14 29.4784 99.3451 32.0931 94.9441L55.6257 56.1886C58.2404 51.8533 64.2543 49.5542 68.8954 51.1964Z" fill="#55DB9C" stroke="black" stroke-width="1.1353"/>
<defs>
<linearGradient id="paint0_linear_6050_3513" x1="90.1765" y1="121.304" x2="158.657" y2="69.0844" gradientUnits="userSpaceOnUse">
<stop stop-color="#0094FF"/>
<stop offset="1" stop-color="#70CF42"/>
</linearGradient>
<linearGradient id="paint1_linear_6050_3513" x1="90.3041" y1="114.67" x2="158.783" y2="62.4543" gradientUnits="userSpaceOnUse">
<stop stop-color="#0094FF"/>
<stop offset="1" stop-color="#70CF42"/>
</linearGradient>
<linearGradient id="paint2_linear_6050_3513" x1="86.9924" y1="107.017" x2="155.443" y2="54.78" gradientUnits="userSpaceOnUse">
<stop stop-color="#0094FF"/>
<stop offset="1" stop-color="#70CF42"/>
</linearGradient>
</defs>
</svg>
