<svg width="205" height="205" viewBox="0 0 205 205" fill="none" xmlns="http://www.w3.org/2000/svg">
<path fill-rule="evenodd" clip-rule="evenodd" d="M160.854 108.381C160.525 112.979 160.394 117.249 159.409 121.65C157.241 128.941 153.628 133.539 147.716 138.137C135.367 146.808 119.865 148.384 104.494 142.604C91.0939 136.889 81.4379 126.773 80.584 112.256V110.614L81.2409 102.075V103.717C82.1605 118.957 92.8018 129.401 106.99 134.721C118.223 138.466 128.273 138.334 138.783 134.787C146.14 131.831 151.198 128.284 155.861 121.978C158.226 118.431 159.409 115.738 160.394 111.534L160.657 109.957L160.854 108.381Z" fill="url(#paint0_linear_6050_3457)" stroke="black" stroke-width="1.09807" stroke-linejoin="bevel"/>
<path fill-rule="evenodd" clip-rule="evenodd" d="M100.093 140.502C89.3861 134.524 81.3065 124.803 80.584 112.256V110.614L81.2409 102.075V103.717C82.0291 116.592 89.7145 126.051 100.684 131.897L100.093 140.502Z" fill="black" stroke="black" stroke-width="1.1353" stroke-linejoin="bevel"/>
<path fill-rule="evenodd" clip-rule="evenodd" d="M145.614 79.4785C162.956 91.3679 166.043 112.256 152.512 126.051C138.914 139.845 113.888 141.356 96.5462 129.466C79.2048 117.511 76.1175 96.6886 89.649 82.8286C103.246 69.0343 128.273 67.5234 145.614 79.4785Z" fill="#FFD731" stroke="black" stroke-width="1.1353"/>
<path fill-rule="evenodd" clip-rule="evenodd" d="M143.84 81.3179C159.868 92.3534 162.758 111.665 150.146 124.474C137.6 137.218 114.412 138.663 98.3189 127.627C82.2912 116.526 79.4009 97.2142 92.0129 84.4709C104.559 71.6619 127.747 70.2825 143.84 81.3179Z" fill="#FFD731" stroke="black" stroke-width="1.1353"/>
<path fill-rule="evenodd" clip-rule="evenodd" d="M107.581 116.329L106.661 115.672L106.464 115.541C106.399 115.475 106.333 115.409 106.267 115.344C104.691 114.03 103.18 112.125 102.523 110.351C102.326 109.892 102.195 109.498 102.063 109.038C101.998 108.841 101.932 108.578 101.866 108.381C101.801 108.118 101.735 107.921 101.735 107.724C101.735 107.593 101.669 107.461 101.669 107.396C101.669 107.001 101.604 106.804 101.604 106.345C101.604 105.819 101.604 105.491 101.669 104.965C101.801 103.323 102.457 101.352 103.706 99.5131C106.07 96.163 110.011 93.7983 114.61 92.9444C114.938 92.8787 115.201 92.813 115.464 92.7473C117.434 92.4845 119.405 92.2875 121.441 92.0904L133.33 90.7767C134.316 90.6453 135.432 90.5139 136.352 90.4482C136.615 90.4482 136.68 90.5139 136.812 90.5139L136.878 90.6453C136.943 90.6453 137.009 90.711 137.009 90.7767C137.009 90.8424 137.075 90.9081 137.009 90.9737L136.943 91.959C136.943 92.2218 136.943 92.4189 136.943 92.6816L136.418 100.17C136.352 100.63 136.352 101.09 136.352 101.549L136.286 102.535C136.221 102.666 136.221 102.797 136.221 102.863C136.221 103.323 136.155 103.783 136.155 104.243C136.089 105.162 136.024 106.082 135.958 107.001C135.827 108.775 135.301 110.483 134.053 112.453C132.805 114.424 130.637 116.263 128.273 117.511C127.222 118.037 125.973 118.562 124.922 118.825C124.331 119.022 123.806 119.154 123.215 119.285C122.623 119.351 122.032 119.482 121.507 119.548C121.375 119.548 121.244 119.548 121.047 119.548C120.587 119.613 120.324 119.613 119.799 119.679C118.419 119.745 116.843 119.613 115.464 119.416C114.61 119.285 113.69 119.088 112.836 118.825C111.26 118.365 109.814 117.708 108.435 116.854C108.304 116.789 107.647 116.395 107.581 116.329ZM105.807 105.425C105.742 105.162 105.939 104.111 106.07 103.848C106.464 102.009 107.647 100.236 109.289 98.7905C110.471 97.8052 111.982 97.017 113.362 96.4915C114.413 96.0973 115.266 95.9003 116.383 95.7032C116.712 95.7032 117.106 95.6375 117.434 95.5718C120.193 95.3091 122.952 94.9807 125.645 94.7179C126.368 94.6522 127.024 94.5208 127.747 94.4552L129.783 94.2581C130.374 94.1924 131.294 94.1267 131.82 93.9953C132.214 93.9953 132.608 93.9953 132.805 94.3238C133.002 94.5865 132.936 94.8493 132.936 95.1777C132.871 95.7032 132.871 96.2287 132.805 96.7542C132.739 98.4621 131.885 100.301 130.44 101.746C129.061 103.126 127.287 103.848 125.382 104.045C124.988 104.111 124.791 104.111 124.397 104.177C124.003 104.177 123.674 104.177 123.346 104.177C122.952 104.177 122.689 104.111 122.295 104.111C121.113 104.045 119.405 103.651 118.157 103.52C117.303 103.389 115.858 103.257 115.004 103.257H114.215C114.15 103.257 114.084 103.257 113.953 103.257L113.23 103.323C112.705 103.323 112.442 103.323 111.916 103.389C107.909 103.914 106.07 105.359 105.807 105.425ZM110.143 113.636C108.632 112.519 107.515 111.271 106.793 109.826L106.727 109.695C106.661 109.498 107.909 108.578 108.172 108.447C109.617 107.396 111.062 106.936 112.902 106.739C113.033 106.739 113.164 106.739 113.296 106.673C113.624 106.673 114.544 106.673 114.872 106.673C115.004 106.673 115.135 106.673 115.332 106.673C116.252 106.673 117.565 106.87 118.551 107.001C119.996 107.264 121.113 107.461 122.623 107.527C123.871 107.593 124.594 107.593 125.842 107.461C126.893 107.396 127.944 107.133 129.061 106.804C129.849 106.542 130.703 106.213 131.425 105.753C131.688 105.622 131.951 105.425 132.214 105.294C132.214 105.359 132.148 106.542 132.148 106.673C132.017 108.118 131.557 109.563 130.637 110.877C129.915 111.994 128.995 112.848 127.813 113.701C126.762 114.49 125.579 115.081 124.397 115.475C122.098 116.329 119.47 116.526 117.368 116.263C114.938 116.001 112.442 115.278 110.143 113.636Z" fill="#FFD731" stroke="black" stroke-width="1.1353" stroke-linecap="round" stroke-linejoin="round"/>
<path fill-rule="evenodd" clip-rule="evenodd" d="M107.58 115.475L106.726 114.884L106.529 114.687C106.463 114.621 106.397 114.555 106.332 114.555C104.755 113.242 103.244 111.271 102.522 109.563C102.39 109.103 102.193 108.709 102.062 108.249C101.996 107.987 101.931 107.79 101.931 107.593C101.865 107.33 101.799 107.133 101.799 106.87C101.734 106.804 101.734 106.673 101.734 106.542C101.668 106.213 101.668 105.95 101.668 105.556C101.602 104.965 101.668 104.702 101.668 104.177C101.799 102.535 102.456 100.498 103.704 98.6592C106.069 95.3091 110.01 93.0101 114.674 92.0904C114.937 92.0248 115.199 92.0248 115.528 91.9591C117.498 91.6963 119.469 91.4993 121.44 91.3022L133.395 89.9885C134.38 89.8571 135.431 89.7257 136.351 89.66C136.613 89.5943 136.679 89.66 136.81 89.7257L136.942 89.7914C136.942 89.8571 137.008 89.9228 137.073 89.9885C137.073 90.0541 137.073 90.0541 137.073 90.1198L137.008 91.1708C137.008 91.3679 136.942 91.6306 136.942 91.8277L136.416 99.3817C136.416 99.7758 136.351 100.236 136.351 100.695L136.285 101.746C136.285 101.812 136.285 101.944 136.285 102.075C136.219 102.535 136.219 102.995 136.154 103.454C136.088 104.308 136.088 105.294 135.957 106.147C135.825 107.921 135.365 109.695 134.052 111.665C132.804 113.636 130.636 115.475 128.337 116.657C127.22 117.249 126.038 117.708 124.921 118.037C124.33 118.168 123.804 118.3 123.213 118.431C122.688 118.562 122.097 118.628 121.505 118.694C121.374 118.759 121.243 118.759 121.111 118.759C120.586 118.825 120.323 118.825 119.798 118.825C118.418 118.891 116.907 118.825 115.462 118.562C114.608 118.431 113.689 118.234 112.9 117.971C111.258 117.511 109.879 116.92 108.499 116.066C108.302 116.001 107.711 115.541 107.58 115.475ZM105.806 104.637C105.806 104.374 106.003 103.257 106.069 102.995C106.529 101.221 107.645 99.3817 109.353 98.0023C110.536 97.017 111.981 96.1631 113.36 95.7032C114.477 95.3091 115.265 95.1121 116.447 94.915C116.776 94.8493 117.104 94.8493 117.433 94.7836C120.192 94.5209 122.951 94.1924 125.709 93.864C126.366 93.7983 127.089 93.7326 127.746 93.6669L129.782 93.4042C130.373 93.3385 131.293 93.2728 131.884 93.2071C132.278 93.1414 132.607 93.2071 132.869 93.5356C133.066 93.7326 133.001 93.9954 132.935 94.3238C132.935 94.8493 132.869 95.4405 132.869 95.966C132.738 97.6739 131.95 99.5131 130.439 100.958C129.125 102.338 127.352 103.06 125.447 103.257C124.987 103.323 124.855 103.323 124.396 103.323C124.067 103.389 123.739 103.389 123.345 103.389C123.016 103.323 122.688 103.323 122.294 103.323C121.111 103.192 119.469 102.863 118.155 102.666C117.301 102.6 115.856 102.469 115.068 102.469H114.28C114.148 102.469 114.083 102.469 114.017 102.469H113.229C112.769 102.535 112.441 102.535 111.915 102.6C107.974 103.06 106.135 104.571 105.806 104.637ZM110.142 112.782C108.696 111.731 107.514 110.417 106.791 108.972L106.726 108.906C106.66 108.709 107.974 107.724 108.171 107.593C109.616 106.607 111.127 106.147 112.9 105.95C113.032 105.885 113.163 105.885 113.294 105.885C113.623 105.885 114.543 105.819 114.937 105.819C115.068 105.819 115.199 105.819 115.331 105.819C116.25 105.885 117.63 106.016 118.549 106.213C120.06 106.41 121.111 106.673 122.688 106.739C123.936 106.804 124.593 106.804 125.906 106.673C126.892 106.542 128.008 106.345 129.059 106.016C129.913 105.753 130.702 105.359 131.424 104.965C131.753 104.768 131.95 104.637 132.212 104.44C132.278 104.505 132.147 105.753 132.147 105.885C132.081 107.264 131.556 108.775 130.636 110.089C129.913 111.14 129.059 112.059 127.877 112.913C126.826 113.702 125.578 114.227 124.396 114.687C122.097 115.475 119.469 115.672 117.367 115.475C115.002 115.212 112.441 114.424 110.142 112.782Z" fill="#FFD731" stroke="black" stroke-width="1.1353" stroke-linecap="round" stroke-linejoin="round"/>
<defs>
<linearGradient id="paint0_linear_6050_3457" x1="112.358" y1="127.364" x2="146.79" y2="96.8043" gradientUnits="userSpaceOnUse">
<stop stop-color="#4B9D54"/>
<stop offset="1" stop-color="#FFD731"/>
</linearGradient>
</defs>
</svg>
