<svg width="237" height="237" viewBox="0 0 237 237" fill="none" xmlns="http://www.w3.org/2000/svg">
<path fill-rule="evenodd" clip-rule="evenodd" d="M115.564 122.279L123.145 148.315L123.248 148.845L123.351 149.375L123.322 149.898L123.294 150.42L123.132 151.002L122.904 151.579L122.68 152.092L122.322 152.662L104.504 179.3L104.294 179.551L104.084 179.802L103.873 180.053L103.663 180.303L103.388 180.551L103.178 180.802L102.906 180.984L102.63 181.231L102.358 181.413L102.086 181.595L101.749 181.774L101.477 181.956L101.14 182.134L100.871 182.251L100.538 182.364L100.2 182.543L99.8664 182.656L99.5361 182.704L99.2023 182.817L98.872 182.864L98.5381 182.978L98.2078 183.025L97.8811 183.008L97.5508 183.056L97.224 183.038L96.8937 183.086L96.5669 183.068L96.2436 182.985L95.9168 182.968L95.5935 182.885L95.2703 182.802L95.0123 182.723L61.9615 172.032L61.3838 171.805L60.8715 171.581L60.3662 171.226L59.9916 170.878L59.617 170.53L59.3148 170.055L59.0779 169.583L58.8411 169.112L51.3256 143.079L51.4971 143.547L51.7339 144.019L52.0397 144.429L52.4107 144.842L52.8507 145.193L53.2941 145.479L53.8029 145.769L54.3806 145.996L87.4315 156.687L87.6894 156.766L88.0127 156.849L88.336 156.932L88.6628 156.949L88.9895 156.967L89.3163 156.985L89.6431 157.002L89.9699 157.02L90.3002 156.972L90.6305 156.924L90.9608 156.876L91.3565 156.832L91.6868 156.784L91.9552 156.668L92.289 156.554L92.6228 156.441L92.9567 156.328L93.2905 156.215L93.5624 156.033L93.8962 155.92L94.1682 155.738L94.5055 155.559L94.7775 155.377L95.0495 155.195L95.3249 154.948L95.5969 154.766L95.807 154.515L96.0825 154.267L96.2926 154.017L96.5028 153.766L96.7129 153.515L96.923 153.264L114.741 126.626L115.099 126.056L115.392 125.481L115.551 124.966L115.713 124.384L115.742 123.862L115.773 123.273L115.671 122.743L115.564 122.279Z" fill="url(#paint0_linear_6036_1885)" stroke="black" stroke-width="1.71355" stroke-linejoin="bevel"/>
<path fill-rule="evenodd" clip-rule="evenodd" d="M98.0104 183.015L97.8797 183.008L97.5494 183.056L97.2226 183.038L96.8923 183.086L96.5655 183.068L96.2422 182.985L95.9154 182.968L95.5922 182.885L95.2689 182.802L95.011 182.723L61.9601 172.032L61.3824 171.805L60.8701 171.581L60.3648 171.226L59.9902 170.878L59.6156 170.53L59.3134 170.055L59.0766 169.583L58.8397 169.112L51.3242 143.079L51.4957 143.547L51.7326 144.019L52.0383 144.429L52.4093 144.842L52.8493 145.193L53.2927 145.479L53.8016 145.769L54.3792 145.996L87.4301 156.687L87.688 156.766L88.0113 156.849L88.3346 156.932L88.6614 156.949L88.9882 156.967L89.3149 156.985L89.6417 157.002L89.9685 157.02L90.2988 156.972L90.6291 156.924L90.9594 156.876L91.3551 156.832L91.4204 156.836L98.0104 183.015Z" fill="black" stroke="black" stroke-width="1.71355" stroke-linejoin="bevel"/>
<path fill-rule="evenodd" clip-rule="evenodd" d="M79.458 108.672L112.444 119.358C115.666 120.384 116.735 123.653 114.74 126.626L96.9225 153.264C94.9309 156.172 90.6532 157.712 87.431 156.687L54.3801 145.997C51.1579 144.971 50.0881 141.702 52.0832 138.729L69.9665 112.094C71.8927 109.183 76.1739 107.578 79.458 108.672Z" fill="#FFD731" stroke="black" stroke-width="1.71355"/>
<path fill-rule="evenodd" clip-rule="evenodd" d="M175.069 111.437L182.647 137.538L182.753 138.003L182.79 138.529L182.827 139.056L182.73 139.64L182.637 140.16L182.409 140.737L182.181 141.315L181.823 141.886L163.943 168.455L163.795 168.774L163.585 169.025L163.375 169.276L163.099 169.523L162.889 169.774L162.617 169.956L162.342 170.204L162.135 170.389L161.794 170.633L161.522 170.815L161.25 170.997L160.978 171.179L160.645 171.292L160.307 171.471L160.039 171.588L159.705 171.701L159.371 171.814L159.037 171.927L158.707 171.975L158.373 172.088L158.043 172.136L157.713 172.184L157.382 172.231L157.052 172.279L156.725 172.262L156.398 172.244L156.072 172.227L155.745 172.209L155.418 172.191L155.095 172.108L154.772 172.026L154.448 171.943L121.463 161.256L120.885 161.028L120.376 160.739L119.867 160.449L119.428 160.098L119.122 159.688L118.751 159.275L118.514 158.803L118.342 158.335L110.762 132.299L110.933 132.767L111.235 133.242L111.541 133.652L111.912 134.065L112.287 134.413L112.795 134.703L113.304 134.992L113.882 135.22L146.867 145.907L147.191 145.99L147.514 146.073L147.841 146.09L148.164 146.173L148.491 146.191L148.818 146.208L149.144 146.226L149.475 146.178L149.802 146.195L150.132 146.148L150.462 146.1L150.792 146.052L151.126 145.939L151.457 145.891L151.79 145.778L152.124 145.665L152.458 145.552L152.73 145.37L153.064 145.256L153.401 145.078L153.673 144.896L153.941 144.779L154.282 144.535L154.554 144.353L154.826 144.171L155.036 143.92L155.312 143.673L155.518 143.487L155.794 143.24L156.004 142.989L156.218 142.673L156.362 142.419L174.246 115.784L174.601 115.279L174.828 114.701L175.056 114.124L175.149 113.604L175.246 113.02L175.209 112.493L175.172 111.967L175.069 111.437Z" fill="url(#paint1_linear_6036_1885)" stroke="black" stroke-width="1.71355" stroke-linejoin="bevel"/>
<path fill-rule="evenodd" clip-rule="evenodd" d="M157.452 172.235L157.386 172.231L157.056 172.279L156.729 172.262L156.403 172.244L156.076 172.227L155.749 172.209L155.422 172.191L155.099 172.108L154.776 172.026L154.452 171.943L121.467 161.256L120.889 161.028L120.38 160.739L119.872 160.449L119.432 160.098L119.126 159.688L118.755 159.275L118.518 158.803L118.346 158.335L110.766 132.299L110.937 132.767L111.239 133.242L111.545 133.652L111.916 134.065L112.291 134.413L112.8 134.703L113.308 134.992L113.886 135.22L146.872 145.907L147.195 145.99L147.518 146.072L147.845 146.09L148.168 146.173L148.495 146.191L148.822 146.208L149.148 146.226L149.479 146.178L149.806 146.195L150.136 146.148L150.466 146.1L150.796 146.052L150.865 145.99L157.452 172.235Z" fill="black" stroke="black" stroke-width="1.71355" stroke-linejoin="bevel"/>
<path fill-rule="evenodd" clip-rule="evenodd" d="M138.902 97.8262L171.953 108.516C175.171 109.607 176.241 112.876 174.249 115.784L156.366 142.419C154.436 145.396 150.159 146.935 146.871 145.907L113.886 135.22C110.667 134.129 109.597 130.86 111.589 127.952L129.407 101.314C131.402 98.3409 135.679 96.801 138.902 97.8262Z" fill="#E9CCFF" stroke="black" stroke-width="1.71355"/>
<path fill-rule="evenodd" clip-rule="evenodd" d="M140.135 66.3649L147.712 92.4662L147.818 92.9307L147.921 93.4606L147.893 93.9835L147.861 94.5717L147.702 95.0875L147.54 95.6687L147.247 96.2429L146.889 96.8136L129.071 123.451L128.861 123.702L128.65 123.953L128.44 124.204L128.23 124.455L127.955 124.702L127.745 124.953L127.473 125.135L127.201 125.317L126.925 125.564L126.653 125.746L126.316 125.925L126.044 126.107L125.71 126.22L125.438 126.402L125.104 126.515L124.77 126.629L124.437 126.742L124.168 126.858L123.834 126.971L123.504 127.019L123.174 127.067L122.844 127.115L122.448 127.159L122.118 127.207L121.791 127.189L121.464 127.172L121.137 127.154L120.81 127.137L120.484 127.119L120.16 127.036L119.902 126.957L119.579 126.874L86.5936 116.187L85.9506 115.956L85.4418 115.666L84.9983 115.38L84.5584 115.029L84.1873 114.616L83.8816 114.206L83.6447 113.735L83.4733 113.267L75.8924 87.2306L76.0639 87.6986L76.3007 88.1702L76.6065 88.5799L76.9775 88.9931L77.4175 89.3445L77.8609 89.6305L78.4351 89.9235L79.0128 90.1512L111.998 100.838L112.322 100.921L112.645 101.004L112.906 101.018L113.23 101.101L113.556 101.118L113.883 101.136L114.21 101.153L114.54 101.106L114.932 101.127L115.263 101.079L115.593 101.031L115.923 100.983L116.257 100.87L116.587 100.822L116.921 100.709L117.19 100.593L117.523 100.479L117.857 100.366L118.195 100.188L118.467 100.006L118.8 99.8925L119.072 99.7105L119.344 99.5285L119.62 99.2811L119.892 99.0991L120.167 98.8517L120.439 98.6697L120.649 98.4188L120.859 98.1679L121.07 97.917L121.28 97.6661L121.493 97.3498L139.311 70.7122L139.666 70.2069L139.959 69.6327L140.121 69.0516L140.28 68.5357L140.312 67.9475L140.34 67.4246L140.303 66.8983L140.135 66.3649Z" fill="url(#paint2_linear_6036_1885)" stroke="black" stroke-width="1.71355" stroke-linejoin="bevel"/>
<path fill-rule="evenodd" clip-rule="evenodd" d="M122.579 127.166L122.448 127.159L122.118 127.207L121.791 127.189L121.464 127.172L121.137 127.154L120.811 127.137L120.484 127.119L120.161 127.036L119.903 126.957L119.579 126.874L86.5938 116.187L85.9508 115.956L85.442 115.666L84.9985 115.38L84.5586 115.029L84.1875 114.616L83.8818 114.206L83.6449 113.735L83.4734 113.267L75.8926 87.2306L76.0641 87.6986L76.3009 88.1702L76.6066 88.5799L76.9777 88.9931L77.4177 89.3445L77.8611 89.6305L78.4353 89.9235L79.013 90.1512L111.998 100.838L112.322 100.921L112.645 101.004L112.906 101.018L113.23 101.101L113.557 101.118L113.883 101.136L114.21 101.153L114.54 101.106L114.933 101.127L115.263 101.079L115.593 101.031L115.923 100.983L115.992 100.921L122.579 127.166Z" fill="black" stroke="black" stroke-width="1.71355" stroke-linejoin="bevel"/>
<path fill-rule="evenodd" clip-rule="evenodd" d="M104.026 52.8229L137.015 63.4443C140.299 64.5384 141.304 67.8042 139.312 70.7123L121.494 97.3499C119.499 100.323 115.222 101.863 111.999 100.838L79.0138 90.1513C75.7297 89.0572 74.7254 85.7914 76.6516 82.8798L94.5348 56.2457C96.5299 53.2722 100.808 51.7323 104.026 52.8229Z" fill="#55DB9C" stroke="black" stroke-width="1.71355"/>
<defs>
<linearGradient id="paint0_linear_6036_1885" x1="79.2812" y1="155.894" x2="122.36" y2="134.358" gradientUnits="userSpaceOnUse">
<stop stop-color="#4B9D54"/>
<stop offset="1" stop-color="#FFD731"/>
</linearGradient>
<linearGradient id="paint1_linear_6036_1885" x1="138.747" y1="145.05" x2="181.847" y2="123.482" gradientUnits="userSpaceOnUse">
<stop stop-color="#0094FF"/>
<stop offset="1" stop-color="#F3A6FF"/>
</linearGradient>
<linearGradient id="paint2_linear_6036_1885" x1="103.852" y1="99.98" x2="146.93" y2="78.4436" gradientUnits="userSpaceOnUse">
<stop stop-color="#0094FF"/>
<stop offset="1" stop-color="#70CF42"/>
</linearGradient>
</defs>
</svg>
