<svg width="237" height="237" viewBox="0 0 237 237" fill="none" xmlns="http://www.w3.org/2000/svg">
<path fill-rule="evenodd" clip-rule="evenodd" d="M89.676 161.502C91.5584 158.029 98.0884 158.124 100.34 159.376C102.97 160.741 103.128 161.517 105.566 156.339C108.321 150.502 103.398 146.634 98.0318 146.302C88.2536 145.776 82.103 145.794 82.5474 157.537C82.6507 159.559 86.5648 162.326 88.8128 161.464C89.0089 161.376 89.5759 161.593 89.676 161.502Z" fill="#FFD731" stroke="black" stroke-width="1.65919"/>
<path fill-rule="evenodd" clip-rule="evenodd" d="M89.6741 161.502C90.7217 159.53 93.3491 158.781 95.7594 158.598L94.1936 146.134C86.7045 145.996 82.2254 147.337 82.5455 157.537C82.6487 159.559 86.5629 162.326 88.8109 161.464C89.0069 161.376 89.5739 161.593 89.6741 161.502Z" fill="black" stroke="black" stroke-width="1.65919"/>
<path fill-rule="evenodd" clip-rule="evenodd" d="M160.086 65.9126L108.963 131.505L129.494 143.17L153.086 111.44C153.086 111.44 152.397 105.26 152.035 104.764C151.772 104.176 151.951 104.472 152.461 103.822C153.792 101.958 156.523 101.021 159.109 101.231C164.446 102.235 169.088 99.364 168.577 95.69C168.336 94.6224 167.637 90.8441 167.096 90.0516C165.245 88.4327 164.582 88.2114 166.105 86.3565C167.632 84.4058 169.859 84.0232 172.578 83.3741C182.095 81.1021 179.409 74.4497 178.476 71.6221L174.665 62.1336L160.086 65.9126Z" fill="url(#paint0_linear_6036_1928)" stroke="black" stroke-width="1.5" stroke-linejoin="bevel"/>
<path fill-rule="evenodd" clip-rule="evenodd" d="M160.086 65.9126L153.978 73.7156L159.979 79.2646L165.592 87.1027C165.697 86.9151 165.901 86.6358 166.106 86.3565C167.633 84.4058 169.764 84.019 172.383 83.4616L168.056 63.8608L160.086 65.9126ZM153.873 73.9032L108.963 131.505L138.172 100.983L143.589 100.164C143.589 100.164 152.398 105.26 152.035 104.764C151.773 104.176 151.952 104.472 152.461 103.822C153.792 101.958 156.524 101.021 159.109 101.231C159.393 101.34 159.681 101.352 159.968 101.365L153.873 73.9032Z" fill="black" stroke="black" stroke-width="1.65919"/>
<path fill-rule="evenodd" clip-rule="evenodd" d="M158.609 60.1782L107.582 125.774L127.735 135.117L151.673 104.267C149.823 102.649 149.453 100.134 151.076 98.1873C152.503 96.3283 155.139 95.3872 157.628 95.5928C164.495 96.7596 170.286 91.8253 165.318 86.8023C163.467 85.1834 163.197 82.5771 164.724 80.6263C166.156 78.6714 168.383 78.2888 171.193 77.7398C180.714 75.3719 178.253 70.1708 177.32 67.3431L173.281 56.4993L158.609 60.1782Z" fill="#FFD731" stroke="black" stroke-width="1.65919"/>
<path fill-rule="evenodd" clip-rule="evenodd" d="M99.197 165.668C82.6864 169.65 68.9842 135.992 69.5994 148.223C69.6658 148.899 71.0282 159.432 71.1905 160.112C71.3275 161.367 71.6563 162.631 72.1769 163.903C77.132 177.958 96.781 185.645 115.815 181.101C133.005 176.956 144.037 164.277 142.392 151.424C142.163 150.069 140.993 139.544 140.476 138.176C135.525 124.025 118.327 161.128 99.197 165.668Z" fill="url(#paint1_linear_6036_1928)" stroke="black" stroke-width="1.5" stroke-linejoin="bevel"/>
<path fill-rule="evenodd" clip-rule="evenodd" d="M87.1106 163.022C71.4757 166.755 68.9682 136.376 69.6002 148.223C69.6666 148.898 71.029 159.432 71.1913 160.112C71.3283 161.367 71.6571 162.631 72.1777 163.903C76.196 175.226 89.5278 182.347 104.61 182.434L101.862 166.266L87.1106 163.022Z" fill="black" stroke="black" stroke-width="1.65919"/>
<path fill-rule="evenodd" clip-rule="evenodd" d="M96.0759 118.638C77.0379 123.278 65.6089 138.438 70.6599 152.498C75.7067 166.653 95.2598 174.335 114.389 169.795C133.427 165.156 144.856 149.995 139.81 135.84C134.759 121.781 115.21 114.002 96.0759 118.638ZM93.0124 148.964C88.1538 150.192 85.2955 154.006 86.5781 157.618C87.8648 161.134 92.7718 163.175 97.6303 161.948C102.485 160.816 105.443 156.91 104.156 153.394C102.874 149.782 97.8668 147.833 93.0124 148.964Z" fill="#FFD731" stroke="black" stroke-width="1.65919"/>
<path d="M173.28 56.4993L122.905 120.395" stroke="black" stroke-width="1.65919"/>
<path fill-rule="evenodd" clip-rule="evenodd" d="M108.863 74.3217C116.484 74.1378 122.137 72.1531 122.791 77.8092C122.812 78.191 123.352 84.7903 123.322 85.2162C123.176 91.4348 116.444 96.6255 108.249 96.8646C100.628 97.0485 94.4587 92.7686 93.8528 87.1157C93.8318 86.7339 93.3172 81.135 93.2962 80.7531C93.4902 74.5377 100.719 74.5168 108.863 74.3217Z" fill="url(#paint2_linear_6036_1928)" stroke="black" stroke-width="1.56291" stroke-linejoin="bevel"/>
<path fill-rule="evenodd" clip-rule="evenodd" d="M109.252 96.7917C108.917 96.816 108.583 96.8403 108.248 96.8646C100.628 97.0485 94.4582 92.7685 93.8523 87.1157C93.8313 86.7339 93.3168 81.1349 93.2958 80.7531C93.4635 74.9162 99.8603 74.5522 107.386 74.3618L109.252 96.7917Z" fill="black" stroke="black" stroke-width="1.58895"/>
<path fill-rule="evenodd" clip-rule="evenodd" d="M108.341 67.4385C116.486 67.2434 122.978 72.3541 122.811 78.8567C122.598 85.356 115.846 90.8306 107.698 91.073C99.5506 91.3154 93.0586 86.2047 93.2283 79.6548C93.442 73.1554 100.194 67.6808 108.341 67.4385Z" fill="#55DB9C" stroke="black" stroke-width="1.58895"/>
<path fill-rule="evenodd" clip-rule="evenodd" d="M58.7054 109.828L59.7332 116.936C60.5212 120.652 62.9594 123.199 66.586 125.068L67.1847 125.347L85.6428 133.428C91.6058 135.887 99.2934 135.423 103.508 130.2L103.824 129.746L107.224 124.609C109.205 121.419 109.603 119.116 109.49 116.636L108.964 105.045L104.094 112.172C104.155 114.031 107.217 115.812 106.197 117.501L102.797 122.638L102.48 123.091C98.4714 128.091 91.1492 128.771 85.2611 126.602L84.6151 126.32L66.1569 118.238L65.5582 117.959C62.253 116.255 60.0251 114.104 58.9676 110.844L58.8145 110.311L58.7054 109.828Z" fill="url(#paint3_linear_6036_1928)" stroke="black" stroke-width="1.56291" stroke-linejoin="bevel"/>
<path fill-rule="evenodd" clip-rule="evenodd" d="M58.7051 109.828L59.7329 116.936C60.5208 120.652 62.9591 123.199 66.5857 125.068L67.1844 125.347L85.6425 133.429C88.6933 134.687 92.1313 135.163 95.3984 134.677L94.3233 127.565C91.3434 128.024 88.1355 127.658 85.2608 126.603L84.6147 126.32L66.1566 118.238L65.5579 117.959C62.2527 116.256 60.0247 114.104 58.9673 110.844L58.8142 110.311L58.7051 109.828Z" fill="black" stroke="black" stroke-width="1.58895" stroke-linejoin="bevel"/>
<path fill-rule="evenodd" clip-rule="evenodd" d="M100.805 91.7354L95.728 89.5284C85.4859 85.0131 71.1517 89.438 63.5704 99.3245C63.2569 99.7307 60.2901 103.424 59.9733 103.877C56.6812 108.831 59.4651 115.301 66.1556 118.238L84.6137 126.32C91.3043 129.257 99.5032 127.592 102.795 122.638L106.195 117.501C109.491 112.499 111.971 96.6477 100.805 91.7354Z" fill="#55DB9C" stroke="black" stroke-width="1.58895"/>
<defs>
<linearGradient id="paint0_linear_6036_1928" x1="136.971" y1="108.246" x2="182.77" y2="92.265" gradientUnits="userSpaceOnUse">
<stop stop-color="#4B9D54"/>
<stop offset="1" stop-color="#FFD731"/>
</linearGradient>
<linearGradient id="paint1_linear_6036_1928" x1="97.969" y1="161.388" x2="135.798" y2="136.308" gradientUnits="userSpaceOnUse">
<stop stop-color="#4B9D54"/>
<stop offset="1" stop-color="#FFD731"/>
</linearGradient>
<linearGradient id="paint2_linear_6036_1928" x1="104.897" y1="86.6185" x2="122.346" y2="77.4055" gradientUnits="userSpaceOnUse">
<stop stop-color="#0094FF"/>
<stop offset="1" stop-color="#70CF42"/>
</linearGradient>
<linearGradient id="paint3_linear_6036_1928" x1="78.2773" y1="120.741" x2="103.378" y2="103.244" gradientUnits="userSpaceOnUse">
<stop stop-color="#0094FF"/>
<stop offset="1" stop-color="#70CF42"/>
</linearGradient>
</defs>
</svg>
