<svg width="205" height="205" viewBox="0 0 205 205" fill="none" xmlns="http://www.w3.org/2000/svg">
<path fill-rule="evenodd" clip-rule="evenodd" d="M177.012 91.2844C178.06 95.1481 179.239 98.6843 179.697 102.548C180.09 109.097 178.518 113.942 175.113 119.443C167.582 130.183 155.402 136.077 141.126 135.88C128.553 135.16 117.682 129.79 112.64 118.199L112.181 116.889L110.217 109.751L110.675 110.996C115.914 123.176 127.701 128.546 140.864 128.742C151.08 128.415 159.266 125.402 166.731 119.312C171.904 114.794 174.982 110.406 176.947 103.858C177.798 100.321 177.995 97.702 177.536 94.0348L177.274 92.6596L177.012 91.2844Z" fill="url(#paint0_linear_6050_3225)" stroke="black" stroke-width="1.09807" stroke-linejoin="bevel"/>
<path fill-rule="evenodd" clip-rule="evenodd" d="M136.935 135.487C126.457 133.785 117.027 128.218 112.64 118.199L112.181 116.889L110.217 109.751L110.675 110.996C115.128 121.277 124.231 126.712 134.905 128.284L136.935 135.487Z" fill="black" stroke="black" stroke-width="1.13182" stroke-linejoin="round"/>
<path fill-rule="evenodd" clip-rule="evenodd" d="M155.992 72.2282C173.674 76.8122 182.383 92.9217 175.376 108.18C168.435 123.438 148.462 132.082 130.78 127.498C113.099 122.914 104.455 106.805 111.397 91.5465C118.404 76.2884 138.377 67.6442 155.992 72.2282Z" fill="#FFD731" stroke="black" stroke-width="1.13182" stroke-linejoin="round"/>
<path fill-rule="evenodd" clip-rule="evenodd" d="M155.076 74.2582C171.448 78.5147 179.502 93.4455 173.019 107.59C166.602 121.67 148.069 129.725 131.698 125.468C115.326 121.211 107.337 106.281 113.755 92.1358C120.238 77.9909 138.705 70.0016 155.076 74.2582Z" fill="#FFD731" stroke="black" stroke-width="1.13182" stroke-linejoin="round"/>
<path fill-rule="evenodd" clip-rule="evenodd" d="M135.887 113.55L134.971 113.288L134.774 113.157C134.709 113.157 134.643 113.157 134.578 113.092C132.875 112.502 131.041 111.389 129.994 110.145C129.732 109.817 129.47 109.555 129.208 109.228C129.077 109.032 129.011 108.901 128.88 108.704C128.815 108.573 128.684 108.377 128.618 108.246C128.553 108.115 128.488 108.049 128.422 107.984C128.357 107.656 128.226 107.525 128.095 107.132C127.898 106.74 127.833 106.478 127.702 106.019C127.309 104.644 127.243 102.81 127.767 100.977C128.684 97.5061 131.238 94.4282 134.709 92.3327C134.971 92.2017 135.167 92.1362 135.364 92.0053C136.935 91.2194 138.441 90.4336 140.013 89.6478L149.377 85.0638C150.098 84.7363 150.949 84.2779 151.735 83.9505C151.866 83.8195 151.997 83.885 152.062 83.885H152.193C152.259 83.9505 152.324 83.9505 152.324 84.016C152.39 84.0815 152.39 84.0815 152.39 84.147L152.652 84.9983C152.717 85.1947 152.783 85.3912 152.848 85.5877L154.616 91.8088C154.747 92.2017 154.813 92.5946 154.944 92.9875L155.206 93.8389C155.206 93.9043 155.271 93.9698 155.271 94.1008C155.402 94.4937 155.533 94.8866 155.599 95.2141C155.795 95.9999 156.057 96.7857 156.253 97.5061C156.646 99.0122 156.777 100.584 156.319 102.548C155.861 104.513 154.682 106.674 153.11 108.377C152.39 109.163 151.604 109.883 150.753 110.472C150.36 110.734 149.967 111.062 149.508 111.324C149.05 111.585 148.592 111.847 148.199 112.044C148.068 112.109 148.002 112.109 147.871 112.175C147.478 112.371 147.282 112.437 146.824 112.633C145.71 113.092 144.401 113.485 143.222 113.681C142.501 113.877 141.716 113.943 140.93 114.008C139.489 114.074 138.114 114.008 136.739 113.747C136.608 113.681 136.018 113.55 135.887 113.55ZM131.238 105.168C131.107 104.971 130.976 104.055 130.976 103.793C130.78 102.156 131.172 100.387 132.155 98.7503C132.81 97.5715 133.726 96.4583 134.709 95.6725C135.494 95.0176 136.149 94.6247 137.001 94.1008C137.263 93.9698 137.525 93.8389 137.786 93.7079C139.948 92.6601 142.109 91.6123 144.27 90.5646C144.793 90.3026 145.317 90.0407 145.841 89.7787L147.478 88.9929C147.937 88.731 148.657 88.4035 149.05 88.1416C149.377 88.0106 149.705 87.9451 149.967 88.1416C150.229 88.2726 150.229 88.5345 150.294 88.7965C150.425 89.1894 150.556 89.6478 150.687 90.1062C151.146 91.5469 151.015 93.2495 150.229 94.8866C149.508 96.3928 148.33 97.5061 146.824 98.2919C146.431 98.4229 146.365 98.4883 145.972 98.6193C145.71 98.7503 145.448 98.8813 145.186 98.9467C144.859 99.0777 144.597 99.1432 144.27 99.2087C143.287 99.5361 141.781 99.7326 140.733 99.929C140.013 100.125 138.769 100.453 138.114 100.715L137.459 100.911C137.394 100.911 137.328 100.977 137.263 100.977L136.608 101.239C136.215 101.435 136.018 101.501 135.625 101.697C132.482 103.269 131.434 105.037 131.238 105.168ZM137.197 110.538C135.625 110.145 134.316 109.424 133.333 108.442L133.268 108.377C133.137 108.246 133.857 107.067 133.988 106.936C134.905 105.692 135.953 104.84 137.394 104.12C137.525 104.12 137.59 104.055 137.721 103.989C137.917 103.858 138.703 103.596 139.031 103.465C139.096 103.465 139.227 103.4 139.358 103.334C140.078 103.072 141.257 102.81 142.109 102.679C143.353 102.417 144.335 102.287 145.579 101.894C146.627 101.566 147.151 101.37 148.199 100.911C148.985 100.518 149.836 99.9945 150.622 99.4051C151.211 98.9467 151.735 98.4229 152.193 97.899C152.39 97.637 152.521 97.4406 152.717 97.2441C152.717 97.3096 153.045 98.2919 153.045 98.4229C153.372 99.6016 153.438 100.911 153.11 102.287C152.783 103.4 152.324 104.317 151.669 105.43C151.015 106.347 150.163 107.198 149.377 107.853C147.74 109.228 145.645 110.145 143.877 110.603C141.847 111.062 139.555 111.258 137.197 110.538Z" fill="#FFD731" stroke="black" stroke-width="1.13182" stroke-linecap="round" stroke-linejoin="round"/>
<path fill-rule="evenodd" clip-rule="evenodd" d="M135.69 112.83L134.773 112.568L134.577 112.502C134.511 112.502 134.446 112.437 134.38 112.437C132.678 111.847 130.844 110.669 129.796 109.49C129.534 109.162 129.273 108.9 129.011 108.573C128.88 108.377 128.814 108.246 128.683 108.049C128.552 107.918 128.487 107.722 128.356 107.525C128.356 107.46 128.29 107.394 128.225 107.263C128.094 107.001 128.028 106.87 127.897 106.477C127.701 106.019 127.635 105.823 127.504 105.364C127.112 103.989 127.046 102.155 127.57 100.256C128.487 96.8511 130.975 93.7732 134.511 91.6777C134.708 91.5467 134.904 91.4158 135.166 91.3503C136.672 90.499 138.244 89.7786 139.816 88.9928L149.18 84.4088C149.901 84.0159 150.752 83.623 151.472 83.23C151.669 83.1646 151.734 83.23 151.865 83.1646L151.996 83.23C151.996 83.2955 152.062 83.2955 152.127 83.361C152.193 83.361 152.193 83.4265 152.193 83.4265L152.454 84.3433C152.52 84.4743 152.585 84.6707 152.585 84.8672L154.419 91.1538C154.55 91.5467 154.616 91.9396 154.746 92.2671L155.008 93.1184C155.008 93.2494 155.074 93.3148 155.074 93.4458C155.205 93.7732 155.27 94.1662 155.401 94.5591C155.598 95.3449 155.86 96.0652 156.056 96.8511C156.449 98.3572 156.58 99.9289 156.122 101.893C155.663 103.858 154.485 106.019 152.913 107.656C152.193 108.442 151.341 109.228 150.555 109.752C150.097 110.079 149.704 110.341 149.311 110.603C148.853 110.865 148.394 111.127 148.001 111.323C147.87 111.389 147.74 111.454 147.674 111.52C147.281 111.716 147.019 111.782 146.626 111.978C145.513 112.437 144.203 112.83 143.025 113.026C142.304 113.157 141.453 113.288 140.733 113.288C139.292 113.419 137.917 113.288 136.541 113.026C136.41 113.026 135.756 112.83 135.69 112.83ZM131.041 104.513C130.91 104.316 130.779 103.334 130.713 103.138C130.582 101.501 130.975 99.667 131.892 98.0298C132.547 96.9166 133.529 95.8033 134.511 95.0175C135.297 94.3626 135.887 93.9042 136.803 93.4458C137.065 93.3148 137.327 93.1839 137.589 93.0529C139.75 92.0051 141.911 90.8919 144.007 89.9096C144.596 89.5822 145.12 89.3202 145.644 89.0583L147.281 88.2724C147.74 88.076 148.46 87.7486 148.853 87.4866C149.18 87.3556 149.508 87.2902 149.77 87.4211C149.966 87.6176 150.032 87.814 150.097 88.076C150.228 88.5344 150.359 88.9928 150.49 89.4512C150.948 90.8919 150.752 92.5945 150.032 94.2316C149.311 95.7378 148.067 96.8511 146.626 97.5714C146.233 97.7679 146.102 97.8334 145.775 97.9643C145.513 98.0953 145.251 98.1608 144.924 98.2918C144.662 98.3572 144.4 98.4882 144.072 98.5537C143.09 98.8156 141.584 99.0776 140.471 99.274C139.816 99.4705 138.572 99.7324 137.851 99.9944L137.262 100.256C137.196 100.256 137.131 100.322 137 100.322L136.41 100.584C136.018 100.715 135.821 100.846 135.363 101.042C132.285 102.614 131.237 104.382 131.041 104.513ZM136.934 109.883C135.428 109.424 134.118 108.704 133.071 107.787L133.005 107.722C132.94 107.591 133.66 106.412 133.791 106.216C134.708 104.971 135.756 104.185 137.196 103.465C137.262 103.4 137.393 103.4 137.524 103.334C137.72 103.203 138.506 102.876 138.768 102.81C138.899 102.745 139.03 102.745 139.095 102.679C139.881 102.417 141.06 102.155 141.846 102.024C143.156 101.762 144.072 101.632 145.382 101.239C146.364 100.911 146.954 100.715 148.001 100.191C148.787 99.8634 149.573 99.3395 150.359 98.7502C150.948 98.2918 151.538 97.7679 151.996 97.1785C152.193 96.982 152.324 96.7856 152.52 96.5891C152.52 96.5891 152.782 97.6369 152.847 97.7024C153.175 98.8811 153.24 100.256 152.847 101.632C152.585 102.745 152.127 103.662 151.407 104.709C150.817 105.692 149.966 106.477 149.115 107.198C147.478 108.573 145.382 109.49 143.679 109.948C141.584 110.407 139.357 110.538 136.934 109.883Z" fill="#FFD731" stroke="black" stroke-width="1.13182" stroke-linecap="round" stroke-linejoin="round"/>
<defs>
<linearGradient id="paint0_linear_6050_3225" x1="137.743" y1="116.947" x2="171.62" y2="91.2782" gradientUnits="userSpaceOnUse">
<stop stop-color="#4B9D54"/>
<stop offset="1" stop-color="#FFD731"/>
</linearGradient>
</defs>
</svg>
