<svg width="237" height="237" viewBox="0 0 237 237" fill="none" xmlns="http://www.w3.org/2000/svg">
<path fill-rule="evenodd" clip-rule="evenodd" d="M128.019 179.29C150.675 169.115 149.427 132.827 167.09 113.339C171.698 108.252 179.09 102.3 183.506 95.5797C184.946 93.3717 186.002 91.0678 184.946 89.5318C184.85 89.3398 183.218 79.9319 183.026 79.7399C179.474 78.204 164.018 94.0437 154.803 92.8917C152.979 92.6037 143.859 86.2678 143.283 85.4038C142.611 84.4439 142.707 82.9079 142.995 78.108C143.187 75.132 142.995 72.348 142.419 70.4281C142.323 70.0441 140.307 60.2522 140.115 59.8682C138.771 57.3722 137.811 67.2601 133.107 73.596C126.387 82.6199 125.523 83.6759 125.235 83.6759C118.611 85.4038 107.763 85.3078 95.9554 95.8677C94.0354 97.4997 76.6596 102.204 72.5317 116.891C69.4597 127.835 72.5317 122.651 62.0678 132.731C57.8439 136.763 52.372 133.403 52.084 137.627C52.084 138.683 54.196 147.803 54.6759 148.859L128.019 179.29Z" fill="black" stroke="black" stroke-width="1.65919" stroke-linecap="round"/>
<path fill-rule="evenodd" clip-rule="evenodd" d="M128.018 179.29C150.674 169.115 149.426 132.827 167.089 113.339C171.697 108.252 179.089 102.3 183.505 95.5797C184.945 93.3717 186.001 91.0678 184.945 89.5318C184.849 89.3398 183.217 79.9319 183.025 79.7399C179.473 78.204 164.017 94.0437 154.802 92.8917C152.978 92.6037 143.858 86.2678 143.282 85.4038C142.61 84.4439 142.706 82.9079 142.994 78.108C143.186 75.132 142.994 72.348 142.418 70.4281C142.322 70.0441 140.306 60.2522 140.114 59.8682C138.77 57.3722 137.81 67.2601 133.106 73.596C126.386 82.6199 125.522 83.6759 125.234 83.6759C118.61 85.4038 107.762 85.3078 95.9545 95.8677C94.0345 97.4997 76.6587 102.204 72.5308 116.891C69.4588 127.835 138.866 110.651 128.402 120.731C124.178 124.763 118.706 121.403 118.418 125.627C118.418 126.683 120.53 135.803 121.01 136.859L128.018 179.29Z" fill="url(#paint0_linear_6036_1948)" stroke="black" stroke-width="1.09807" stroke-linejoin="bevel"/>
<path fill-rule="evenodd" clip-rule="evenodd" d="M125.906 169.115C148.562 158.939 147.218 122.651 164.978 103.164C169.586 98.0757 176.978 92.1238 181.298 85.4999C183.026 82.9079 184.082 80.316 182.258 78.876C178.802 77.34 161.81 83.8679 152.594 82.7159C150.77 82.4279 141.746 76.092 141.074 75.228C140.402 74.2681 140.498 72.8281 140.786 67.9322C141.362 59.1003 139.058 52.4764 130.994 63.4202C124.274 72.4441 123.41 73.5001 123.122 73.5961C116.499 75.324 105.555 75.1321 93.7469 85.6919C91.8269 87.4199 74.5471 92.0278 70.3232 106.716C67.2512 117.659 70.4192 112.476 59.9553 122.555C54.5794 127.739 50.4515 133.787 52.4675 138.683L125.906 169.115Z" fill="#E9BA7D"/>
<mask id="mask0_6036_1948" style="mask-type:luminance" maskUnits="userSpaceOnUse" x="51" y="57" width="133" height="113">
<path d="M125.906 169.115C148.562 158.939 147.218 122.651 164.978 103.164C169.586 98.0757 176.978 92.1238 181.298 85.4999C183.026 82.9079 184.082 80.316 182.258 78.876C178.802 77.34 161.81 83.8679 152.594 82.7159C150.77 82.4279 141.746 76.092 141.074 75.228C140.402 74.2681 140.498 72.8281 140.786 67.9322C141.362 59.1003 139.058 52.4764 130.994 63.4202C124.274 72.4441 123.41 73.5001 123.122 73.5961C116.499 75.324 105.555 75.1321 93.7469 85.6919C91.8269 87.4199 74.5471 92.0278 70.3232 106.716C67.2512 117.659 70.4192 112.476 59.9553 122.555C54.5794 127.739 50.4515 133.787 52.4675 138.683L125.906 169.115Z" fill="white"/>
</mask>
<g mask="url(#mask0_6036_1948)">
<path fill-rule="evenodd" clip-rule="evenodd" d="M112.371 163.067C136.658 153.179 122.834 143.099 119.954 136.187C118.227 132.059 124.562 131.099 133.202 128.027C142.898 124.667 150.77 113.052 143.666 108.348C133.874 102.012 110.451 110.46 102.291 100.38C99.7948 97.3079 93.6509 96.8279 92.9789 94.3319C92.2109 91.74 94.6108 89.628 96.2428 88.092C100.083 84.6361 96.4348 83.2921 93.7469 85.692C91.8269 87.42 74.5471 92.028 70.3232 106.716C67.2512 117.66 70.4192 112.476 59.9553 122.556C54.5794 127.739 50.4515 133.787 52.4675 138.683L112.371 163.067Z" fill="#F4DFAD"/>
<path fill-rule="evenodd" clip-rule="evenodd" d="M124.274 93.8516C123.602 92.7957 121.586 92.9876 123.314 91.1637C126.098 88.1877 132.818 88.5717 134.738 90.4917C137.81 93.5636 137.906 95.3876 135.122 98.7476C133.298 101.052 130.322 101.532 130.61 98.4596C130.802 96.1556 129.554 95.1956 127.826 94.4276C127.73 94.4276 123.602 92.8917 124.274 93.8516Z" fill="#F4DFAD"/>
<path fill-rule="evenodd" clip-rule="evenodd" d="M114.579 87.8038C116.307 87.9958 119.571 85.1159 120.339 84.1559C122.067 82.1399 121.683 80.9879 117.939 81.1799C116.787 81.2759 112.083 82.2359 112.179 83.1959C112.275 84.3479 113.139 86.8438 114.483 87.6118C114.483 87.7078 114.579 87.8038 114.579 87.8038Z" fill="#F4DFAD"/>
</g>
<path fill-rule="evenodd" clip-rule="evenodd" d="M125.906 169.115C148.562 158.939 147.218 122.651 164.978 103.164C169.586 98.0757 176.978 92.1238 181.298 85.4999C183.026 82.9079 184.082 80.316 182.258 78.876C178.802 77.34 161.81 83.8679 152.594 82.7159C150.77 82.4279 141.746 76.092 141.074 75.228C140.402 74.2681 140.498 72.8281 140.786 67.9322C141.362 59.1003 139.058 52.4764 130.994 63.4202C124.274 72.4441 123.41 73.5001 123.122 73.5961C116.499 75.324 105.555 75.1321 93.7469 85.6919C91.8269 87.4199 74.5471 92.0278 70.3232 106.716C67.2512 117.659 70.4192 112.476 59.9553 122.555C54.5794 127.739 50.4515 133.787 52.4675 138.683L125.906 169.115Z" stroke="black" stroke-width="1.65919" stroke-linecap="round"/>
<path d="M134.931 59.0043C140.691 58.5243 131.763 70.6201 131.571 73.1161C130.995 79.932 129.459 82.4279 125.427 84.0599C120.339 86.1719 125.523 87.0359 130.323 85.6919C150.771 80.22 160.466 91.5478 156.626 110.46" stroke="black" stroke-width="1.65919" stroke-linecap="round"/>
<path d="M152.689 89.0518C161.713 89.4358 171.409 84.0599 175.537 83.4839" stroke="black" stroke-width="1.65919" stroke-linecap="round"/>
<path fill-rule="evenodd" clip-rule="evenodd" d="M120.242 96.9239C122.45 95.1959 127.538 94.9079 130.13 95.9639C133.202 97.2118 134.93 102.876 129.938 104.124C125.714 105.18 116.978 101.436 120.146 97.2118L120.242 96.9239Z" fill="white" stroke="black" stroke-width="1.65919" stroke-linecap="round"/>
<path fill-rule="evenodd" clip-rule="evenodd" d="M104.692 84.2519C108.052 82.7159 111.988 81.6599 114.196 84.1559C115.924 85.9799 113.62 88.1879 110.164 88.7638C106.036 89.4358 101.812 91.2598 103.636 85.4039C103.732 85.1159 104.404 84.4439 104.692 84.2519Z" fill="white" stroke="black" stroke-width="1.65919" stroke-linecap="round"/>
<path fill-rule="evenodd" clip-rule="evenodd" d="M88.178 99.1317C88.754 97.4998 89.33 97.7877 89.234 96.5398C89.234 94.8118 92.882 92.2198 96.5299 93.6598C99.2179 94.8118 103.922 98.3637 102.29 100.38C100.562 102.396 98.0659 103.164 96.5299 103.932C93.362 105.468 88.37 103.74 88.082 100.668C88.082 99.9957 88.178 99.8037 88.178 99.1317Z" fill="black" stroke="black" stroke-width="1.65919" stroke-linecap="round"/>
<path d="M91.0596 101.244C89.8116 102.78 87.4116 105.18 86.9316 106.812" stroke="black" stroke-width="1.65919" stroke-linecap="round"/>
<path d="M94.707 133.979C106.131 134.939 119.667 132.347 131.187 128.699C135.794 127.259 148.946 123.323 151.538 119.675" stroke="black" stroke-width="1.65919" stroke-linecap="round"/>
<path fill-rule="evenodd" clip-rule="evenodd" d="M82.2267 104.892C78.8668 106.236 81.2668 108.732 83.2827 109.596C85.2987 110.46 87.0267 110.556 88.9466 112.955C92.8826 117.659 102.962 116.699 110.066 116.891C110.066 116.891 106.034 116.699 105.17 116.411C101.33 115.355 93.1706 114.011 90.9626 111.036C87.9867 107.1 86.8347 105.372 82.2267 104.892Z" fill="black" stroke="black" stroke-width="1.65919" stroke-linecap="round"/>
<path fill-rule="evenodd" clip-rule="evenodd" d="M124.274 102.972C121.01 101.628 123.506 98.2677 126.482 97.7877C128.402 97.4997 126.962 98.7477 127.346 99.2277C128.978 101.244 131.858 98.7477 130.514 97.5957C130.322 97.4997 132.626 97.2117 132.722 98.9397C132.722 101.628 132.146 103.26 128.114 104.316C127.058 104.508 124.85 103.452 124.274 102.972Z" fill="black" stroke="black" stroke-width="1.65919" stroke-linecap="round"/>
<path fill-rule="evenodd" clip-rule="evenodd" d="M106.227 89.5319C104.883 86.7479 108.435 84.7319 109.011 85.2119C109.587 85.7879 111.699 84.2519 110.451 83.5799C110.163 83.3879 111.027 82.62 112.947 83.4839C116.595 84.9239 114.195 87.7079 110.451 88.6679C109.875 88.8599 106.899 89.9159 106.227 89.3399V89.5319Z" fill="black" stroke="black" stroke-width="1.65919" stroke-linecap="round"/>
<path fill-rule="evenodd" clip-rule="evenodd" d="M112.274 85.5C112.658 85.596 112.658 86.076 112.274 86.46C111.986 86.9399 111.41 87.1319 111.026 86.9399C110.642 86.8439 110.642 86.364 111.026 85.98C111.314 85.5 111.986 85.308 112.274 85.5Z" fill="white"/>
<path d="M156.723 94.8117C159.507 96.1557 163.443 91.3558 163.443 91.3558C167.379 92.5078 171.602 90.5878 175.058 86.4598" stroke="black" stroke-width="1.65919" stroke-linecap="round"/>
<path d="M94.5156 93.2758C99.5076 92.6038 110.643 89.7239 114.867 87.3239C115.059 87.2279 115.347 87.1319 115.539 87.0359" stroke="black" stroke-width="1.65919" stroke-linecap="round"/>
<path d="M119.475 99.7077C119.763 98.4597 121.299 96.4437 122.739 95.7717" stroke="black" stroke-width="1.65919" stroke-linecap="round"/>
<path d="M117.074 96.1558C117.458 96.2518 121.97 95.9638 122.834 95.7718L123.218 95.6758" stroke="black" stroke-width="1.65919" stroke-linecap="round"/>
<path d="M91.9219 95.2919C87.2179 94.9079 80.306 100.092 81.266 104.412C81.266 104.796 81.458 105.852 81.938 105.948" stroke="black" stroke-width="1.65919" stroke-linecap="round"/>
<defs>
<linearGradient id="paint0_linear_6036_1948" x1="117.138" y1="128.414" x2="188.726" y2="95.6211" gradientUnits="userSpaceOnUse">
<stop stop-color="#FF6FB4"/>
<stop offset="1" stop-color="#FFB800"/>
</linearGradient>
</defs>
</svg>
