<svg width="32" height="32" viewBox="0 0 32 32" fill="none" xmlns="http://www.w3.org/2000/svg">
<rect width="32" height="32" fill="#4DA2FF"/>
<path fill-rule="evenodd" clip-rule="evenodd" d="M22.1842 13.8158L22.1838 13.8169C23.2582 15.1641 23.9003 16.8704 23.9003 18.7263C23.9003 20.6098 23.2389 22.3393 22.1355 23.6957L22.0405 23.8124L22.0153 23.664C21.9939 23.5378 21.9687 23.4104 21.9395 23.2819C21.3873 20.8556 19.5881 18.7751 16.6269 17.0905C14.6272 15.9561 13.4826 14.59 13.1821 13.038C12.988 12.0344 13.1323 11.0263 13.4112 10.1629C13.6899 9.2997 14.1046 8.57651 14.4569 8.14111L14.4571 8.14083L15.6091 6.73228C15.8111 6.48527 16.1891 6.48527 16.3912 6.73228L22.1842 13.8158ZM24.0062 12.4085L24.0064 12.4079L16.2855 2.96718C16.1381 2.78693 15.8621 2.78693 15.7147 2.96718L7.99362 12.408L7.99383 12.4086L7.96871 12.4397C6.54789 14.2028 5.69763 16.4434 5.69763 18.8825C5.69763 24.5629 10.3101 29.168 16.0001 29.168C21.69 29.168 26.3025 24.5629 26.3025 18.8825C26.3025 16.4434 25.4522 14.2028 24.0314 12.4398L24.0062 12.4085ZM9.84103 13.7853L9.84134 13.7849L10.5319 12.9405L10.5528 13.0964C10.5693 13.2199 10.5894 13.344 10.6132 13.4687C11.06 15.8132 12.6563 17.7681 15.325 19.2821C17.6448 20.6024 18.9955 22.1206 19.3847 23.7857C19.547 24.4806 19.576 25.1643 19.5056 25.7621L19.5013 25.7991L19.4678 25.8154C18.4208 26.3269 17.2438 26.614 15.9998 26.614C11.6366 26.614 8.09939 23.0827 8.09939 18.7263C8.09939 16.856 8.75146 15.1374 9.84103 13.7853Z" fill="#F7F7F8"/>
</svg>
