<svg width="205" height="205" viewBox="0 0 205 205" fill="none" xmlns="http://www.w3.org/2000/svg">
<path fill-rule="evenodd" clip-rule="evenodd" d="M151.658 106.936C153.169 111.271 154.745 115.278 155.533 119.679C156.387 127.233 154.942 132.882 151.33 139.451C143.381 152.326 129.784 159.88 113.362 160.602C98.7798 160.602 85.9051 155.084 79.4021 142.078L78.7452 140.633L75.9863 132.554L76.6432 133.999C83.4747 147.596 97.4003 153.048 112.508 152.391C124.332 151.406 133.528 147.333 141.739 139.911C147.388 134.327 150.673 129.072 152.446 121.387C153.234 117.249 153.234 114.293 152.512 110.023L152.118 108.447L151.658 106.936Z" fill="url(#paint0_linear_6050_3483)" stroke="black" stroke-width="1.09807" stroke-linejoin="bevel"/>
<path fill-rule="evenodd" clip-rule="evenodd" d="M108.501 160.405C96.2837 159.157 85.0512 153.377 79.4021 142.078L78.7452 140.633L75.9863 132.554L76.6432 133.999C82.4237 145.494 93.2621 151.209 105.611 152.26L108.501 160.405Z" fill="black" stroke="black" stroke-width="1.1353" stroke-linejoin="bevel"/>
<path fill-rule="evenodd" clip-rule="evenodd" d="M126.303 86.3758C146.929 90.5141 157.965 108.447 150.936 126.445C143.907 144.509 121.508 155.741 100.882 151.603C80.1909 147.465 69.1555 129.532 76.184 111.534C83.2125 93.47 105.678 82.2375 126.303 86.3758Z" fill="#FFD731" stroke="black" stroke-width="1.1353"/>
<path fill-rule="evenodd" clip-rule="evenodd" d="M125.385 88.7406C144.5 92.6161 154.681 109.235 148.178 125.919C141.675 142.604 120.918 153.048 101.803 149.238C82.688 145.363 72.4408 128.744 78.9438 112.06C85.4469 95.375 106.27 84.9307 125.385 88.7406Z" fill="#FFD731" stroke="black" stroke-width="1.1353"/>
<path fill-rule="evenodd" clip-rule="evenodd" d="M106.208 136.302L105.102 136.07L104.868 136.029C104.782 135.996 104.695 135.962 104.609 135.928C102.637 135.359 100.488 134.222 99.1732 132.863C98.8079 132.521 98.5292 132.213 98.224 131.845C98.0846 131.691 97.9188 131.477 97.7794 131.323C97.6136 131.108 97.4743 130.954 97.395 130.774C97.3422 130.654 97.2292 130.56 97.2028 130.5C97.0443 130.139 96.9049 129.985 96.7201 129.564C96.5088 129.083 96.3767 128.782 96.2255 128.274C95.6855 126.718 95.4945 124.65 95.8977 122.464C96.7158 118.446 99.3735 114.696 103.24 112.065C103.514 111.873 103.729 111.707 103.943 111.541C105.641 110.508 107.366 109.535 109.152 108.536L119.509 102.553C120.358 102.036 121.328 101.467 122.144 101.037C122.384 100.931 122.471 100.965 122.591 100.912L122.704 101.006C122.764 100.98 122.851 101.013 122.877 101.073C122.904 101.134 122.99 101.167 122.956 101.254L123.292 102.182C123.398 102.423 123.477 102.603 123.583 102.844L126.113 109.912C126.238 110.359 126.423 110.78 126.607 111.201L126.944 112.13C126.936 112.276 126.989 112.397 127.015 112.457C127.2 112.878 127.325 113.325 127.51 113.746C127.82 114.614 128.129 115.483 128.439 116.351C129.032 118.028 129.237 119.803 128.887 122.109C128.537 124.415 127.292 126.971 125.628 129.064C124.877 129.968 123.946 130.951 123.089 131.614C122.627 132.033 122.199 132.364 121.71 132.722C121.196 133.02 120.707 133.378 120.252 133.649C120.132 133.702 120.012 133.755 119.831 133.834C119.437 134.079 119.196 134.185 118.741 134.456C117.505 135.071 116.009 135.585 114.666 135.959C113.832 136.182 112.91 136.372 112.023 136.474C110.395 136.687 108.807 136.667 107.201 136.44C107.054 136.432 106.294 136.336 106.208 136.302ZM100.199 127.031C100.034 126.817 99.7914 125.776 99.8061 125.482C99.4274 123.64 99.7968 121.541 100.719 119.557C101.406 118.18 102.472 116.85 103.524 115.814C104.327 115.031 105.03 114.507 105.973 113.878C106.274 113.746 106.608 113.527 106.883 113.335C109.303 111.985 111.697 110.575 114.057 109.251C114.692 108.901 115.241 108.516 115.876 108.166L117.661 107.166C118.176 106.869 118.992 106.439 119.42 106.107C119.781 105.949 120.142 105.79 120.454 106.012C120.74 106.173 120.786 106.44 120.918 106.741C121.069 107.248 121.28 107.729 121.432 108.237C122.058 109.827 122.016 111.854 121.274 113.759C120.566 115.576 119.232 116.951 117.567 117.897C117.233 118.116 117.052 118.195 116.718 118.414C116.357 118.572 116.056 118.704 115.756 118.836C115.395 118.995 115.128 119.04 114.767 119.199C113.658 119.614 111.936 119.94 110.74 120.322C109.906 120.545 108.53 121.006 107.748 121.349L107.026 121.666C106.966 121.692 106.906 121.719 106.786 121.771L106.15 122.122C105.669 122.333 105.429 122.439 104.974 122.711C101.516 124.803 100.414 126.866 100.199 127.031ZM107.47 132.806C105.638 132.391 104.114 131.697 102.871 130.665L102.758 130.571C102.619 130.417 103.392 129.073 103.58 128.847C104.48 127.304 105.618 126.302 107.223 125.382C107.343 125.329 107.464 125.276 107.558 125.163C107.858 125.031 108.7 124.661 109.001 124.529C109.121 124.476 109.242 124.423 109.422 124.344C110.264 123.974 111.546 123.627 112.501 123.351C113.93 123.01 115.031 122.742 116.441 122.194C117.61 121.753 118.272 121.462 119.362 120.84C120.298 120.357 121.154 119.694 122.045 118.944C122.661 118.387 123.311 117.743 123.787 117.031C123.975 116.805 124.136 116.519 124.324 116.293C124.35 116.353 124.766 117.462 124.819 117.583C125.279 118.959 125.439 120.467 125.126 122.039C124.913 123.352 124.414 124.504 123.675 125.761C123.03 126.905 122.185 127.922 121.261 128.758C119.499 130.465 117.173 131.702 115.143 132.306C112.812 133.043 110.236 133.385 107.47 132.806Z" fill="#FFD731" stroke="black" stroke-width="1.1353" stroke-linecap="round" stroke-linejoin="round"/>
<path fill-rule="evenodd" clip-rule="evenodd" d="M105.864 135.521L104.844 135.323L104.585 135.222C104.498 135.188 104.412 135.154 104.352 135.181C102.38 134.612 100.204 133.415 98.8559 132.142C98.5507 131.773 98.2118 131.492 97.9066 131.124C97.7408 130.909 97.6014 130.755 97.5222 130.575C97.3564 130.361 97.217 130.207 97.1114 129.966C97.0248 129.933 96.972 129.812 96.9191 129.692C96.7269 129.418 96.6213 129.177 96.4628 128.816C96.1649 128.301 96.1194 128.034 95.9081 127.553C95.3681 125.997 95.1507 123.868 95.5539 121.682C96.372 117.664 99.0561 113.975 102.956 111.257C103.171 111.091 103.411 110.986 103.685 110.794C105.384 109.761 107.109 108.788 108.834 107.815L119.252 101.805C120.101 101.288 121.011 100.746 121.826 100.316C122.04 100.15 122.127 100.184 122.274 100.191L122.42 100.198C122.447 100.258 122.533 100.292 122.62 100.326C122.646 100.386 122.646 100.386 122.673 100.446L123.035 101.435C123.114 101.615 123.16 101.882 123.239 102.063L125.796 109.19C125.954 109.551 126.079 109.999 126.264 110.42L126.626 111.408C126.653 111.469 126.705 111.589 126.758 111.709C126.883 112.156 127.068 112.577 127.193 113.025C127.476 113.833 127.872 114.735 128.095 115.57C128.688 117.247 128.98 119.055 128.57 121.388C128.219 123.694 126.974 126.25 125.345 128.257C124.56 129.247 123.662 130.143 122.772 130.893C122.283 131.251 121.855 131.583 121.367 131.941C120.938 132.272 120.423 132.57 119.909 132.868C119.815 132.981 119.694 133.034 119.574 133.087C119.119 133.358 118.879 133.464 118.398 133.675C117.161 134.29 115.751 134.837 114.323 135.178C113.488 135.401 112.567 135.59 111.739 135.667C110.051 135.906 108.55 135.919 106.944 135.692C106.737 135.711 106.011 135.528 105.864 135.521ZM99.882 126.31C99.7764 126.07 99.5078 124.968 99.4623 124.701C99.1701 122.892 99.453 120.759 100.462 118.81C101.148 117.432 102.128 116.069 103.206 115.093C104.07 114.283 104.713 113.786 105.716 113.13C105.99 112.938 106.291 112.806 106.565 112.614C108.986 111.264 111.38 109.854 113.774 108.444C114.349 108.119 114.984 107.769 115.559 107.444L117.318 106.385C117.832 106.087 118.648 105.657 119.163 105.359C119.497 105.141 119.824 105.069 120.197 105.264C120.457 105.365 120.502 105.632 120.574 105.959C120.785 106.44 120.963 107.008 121.174 107.489C121.741 109.106 121.759 111.107 120.956 113.037C120.308 114.829 118.975 116.203 117.31 117.15C116.915 117.395 116.795 117.448 116.374 117.633C116.1 117.825 115.799 117.957 115.438 118.115C115.111 118.187 114.81 118.319 114.45 118.478C113.314 118.833 111.679 119.193 110.396 119.54C109.588 119.824 108.212 120.284 107.491 120.601L106.769 120.918C106.649 120.971 106.588 120.998 106.528 121.024L105.807 121.341C105.412 121.586 105.111 121.718 104.657 121.989C101.233 123.995 100.156 126.118 99.882 126.31ZM107.127 132.025C105.381 131.644 103.77 130.916 102.527 129.883L102.441 129.85C102.301 129.696 103.108 128.265 103.236 128.066C104.163 126.583 105.361 125.554 106.906 124.661C107 124.548 107.12 124.495 107.24 124.442C107.541 124.31 108.356 123.88 108.717 123.721C108.838 123.669 108.958 123.616 109.078 123.563C109.947 123.253 111.262 122.819 112.184 122.63C113.646 122.203 114.714 122.02 116.184 121.447C117.353 121.005 117.954 120.741 119.105 120.092C119.954 119.576 120.897 118.946 121.727 118.223C122.403 117.639 122.967 116.961 123.47 116.31C123.691 115.997 123.819 115.798 123.98 115.512C124.067 115.546 124.448 116.741 124.501 116.861C124.996 118.151 125.122 119.745 124.808 121.318C124.569 122.571 124.157 123.756 123.418 125.014C122.773 126.158 121.841 127.141 120.944 128.037C119.156 129.683 116.829 130.92 114.825 131.585C112.555 132.295 109.892 132.604 107.127 132.025Z" fill="#FFD731" stroke="black" stroke-width="1.1353" stroke-linecap="round" stroke-linejoin="round"/>
<defs>
<linearGradient id="paint0_linear_6050_3483" x1="107.569" y1="137.815" x2="147.768" y2="108.771" gradientUnits="userSpaceOnUse">
<stop stop-color="#4B9D54"/>
<stop offset="1" stop-color="#FFD731"/>
</linearGradient>
</defs>
</svg>
