<svg width="237" height="237" viewBox="0 0 237 237" fill="none" xmlns="http://www.w3.org/2000/svg">
<path fill-rule="evenodd" clip-rule="evenodd" d="M161.61 114.535L163.653 126.224L163.199 126.905L162.745 127.473L162.064 127.927L161.269 128.381L160.475 128.721L159.454 128.948L158.432 129.175L157.297 129.402L156.162 129.516L154.801 129.629H153.552L152.19 129.743H150.715L149.24 129.629H147.764H146.175L144.586 129.516L143.111 129.402H141.522L139.82 129.289H138.231H136.642L135.167 129.175L133.578 129.289H131.989H130.514L129.038 129.402L127.676 129.629L126.315 129.856L125.066 130.083L123.818 130.423L122.569 130.764L121.548 131.218L120.64 131.672L119.619 132.239L118.597 132.92L117.689 133.601L116.668 134.396L115.76 135.19L114.852 135.985L113.944 136.892L113.036 137.8L112.128 138.708L111.334 139.73L110.426 140.638L109.518 141.546L108.724 142.567L107.816 143.475L107.021 144.383L106.113 145.291L105.319 146.085L104.524 146.993L103.617 147.674L102.822 148.468L102.028 149.149L101.12 149.717L100.325 150.171L99.5309 150.625L98.623 151.079L97.8286 151.306L96.9207 151.419L96.1262 151.533L95.2183 151.419L94.4239 151.306L92.2676 139.503L93.1755 139.73H94.0834H94.8778L95.7858 139.616L96.5802 139.276L97.3746 138.935L98.2825 138.481L99.077 138.027L99.9849 137.346L100.779 136.665L101.574 135.985L102.482 135.19L103.276 134.396L104.071 133.601L104.978 132.693L105.773 131.785L106.681 130.764L107.475 129.856L108.383 128.948L109.178 127.927L110.085 127.019L110.993 126.111L111.901 125.203L112.809 124.295L113.717 123.387L114.625 122.593L115.533 121.912L116.554 121.117L117.576 120.55L118.484 119.982L119.505 119.415L120.527 119.075L121.661 118.621L122.91 118.394L124.272 118.053L125.634 117.826L126.995 117.713L128.471 117.599H129.946L131.535 117.486H133.01H134.599L136.188 117.599H137.777L139.366 117.713H140.955L142.544 117.826H144.132L145.721 117.94H147.197H148.672H150.034H151.509H152.758L154.006 117.826L155.254 117.713L156.389 117.486L157.411 117.259L158.319 116.918L159.227 116.578L160.021 116.124L160.589 115.67L161.156 115.102L161.61 114.535Z" fill="url(#paint0_linear_6036_1900)" stroke="black" stroke-width="1.41194" stroke-linejoin="bevel"/>
<path fill-rule="evenodd" clip-rule="evenodd" d="M92.2719 139.503L94.4282 151.306L93.5203 150.965L92.8393 150.625L92.2719 150.171L91.8179 149.717L91.4775 149.036L91.137 148.355L90.91 147.674L88.8672 135.984L89.0942 136.665L89.3211 137.346L89.7751 137.914L90.2291 138.481L90.7965 138.935L91.4775 139.276L92.2719 139.503Z" fill="black" stroke="black" stroke-width="1.41194" stroke-linejoin="bevel"/>
<path fill-rule="evenodd" clip-rule="evenodd" d="M91.1349 113.4L93.1777 125.089L93.0642 124.181L92.7238 123.387L92.3833 122.593L91.8158 121.685L91.1349 120.89L90.454 120.096L89.6595 119.301L88.7516 118.507L87.7302 117.713L86.7088 117.032L85.5739 116.237L84.439 115.556L83.1906 114.762L82.0557 114.081L80.8073 113.286L79.5589 112.605L78.3105 111.925L77.0621 111.244L75.8138 110.563L74.5654 109.882L73.4305 109.201L72.2956 108.52L71.2742 107.839L70.2528 107.158L69.2313 106.477L68.4369 105.796L67.6425 105.115L66.9615 104.434L66.3941 103.753L65.9401 103.072L65.7132 102.505L65.4862 101.824L63.4434 90.021L63.5568 90.7019L63.8973 91.3829L64.3513 92.0638L64.9187 92.7448L65.5997 93.4257L66.3941 94.1066L67.1885 94.7876L68.0964 95.355L69.1179 96.036L70.2528 96.7169L71.3877 97.3978L72.5226 98.0788L73.6575 98.7597L74.9058 99.4407L76.1542 100.235L77.4026 100.916L78.651 101.597L79.8994 102.278L81.1478 103.072L82.3962 103.753L83.5311 104.548L84.5525 105.229L85.6874 106.023L86.5953 106.818L87.5032 107.612L88.4111 108.406L89.0921 109.201L89.773 109.995L90.227 110.79L90.6809 111.584L90.9079 112.492L91.1349 113.4Z" fill="black" stroke="black" stroke-width="1.41194" stroke-linejoin="bevel"/>
<path fill-rule="evenodd" clip-rule="evenodd" d="M136.649 67.3228L138.806 79.0122V79.9201V80.8281V81.736L138.692 82.6439L138.579 83.6653L138.352 84.6867L138.125 85.8216L137.898 86.843L137.671 87.9779L137.444 89.1128L137.217 90.2477L136.99 91.3826L136.763 92.5175L136.536 93.5389L136.422 94.6738L136.195 95.8087V96.8301L136.082 97.8515V98.873L136.195 99.8944L136.309 100.802L134.266 89.1128L134.153 88.2049L134.039 87.1835V86.1621V85.1407L134.153 84.0058L134.266 82.9844L134.493 81.8495L134.72 80.7146L134.947 79.5797L135.174 78.4448L135.401 77.4234L135.628 76.2885L135.855 75.1536L136.082 74.1321L136.309 72.9972L136.422 71.9758L136.649 70.9544V70.0465L136.763 69.0251V68.1172L136.649 67.3228Z" fill="#F2EEE4" stroke="black" stroke-width="1.41194" stroke-linejoin="bevel"/>
<path fill-rule="evenodd" clip-rule="evenodd" d="M161.95 112.491L163.993 124.181L164.106 124.862L163.993 125.543L163.652 126.224L161.609 114.534L161.836 113.853L161.95 113.172V112.491Z" fill="#FFD731" stroke="black" stroke-width="1.41194" stroke-linejoin="bevel"/>
<path fill-rule="evenodd" clip-rule="evenodd" d="M161.614 114.535C157.755 121.798 132.561 114.648 120.531 119.074C109.522 123.046 101.578 142.113 92.2716 139.502C82.9655 137.006 94.8819 119.074 90.2288 110.79C85.3487 101.824 59.927 95.3549 63.7857 87.978C67.6443 80.7147 92.8391 87.8645 104.869 83.4384C115.878 79.4663 123.708 60.4 133.015 62.8968C142.434 65.507 130.518 83.4384 135.057 91.6097C140.051 100.575 165.473 107.158 161.614 114.535Z" fill="#F2EEE4" stroke="black" stroke-width="1.41194"/>
<path fill-rule="evenodd" clip-rule="evenodd" d="M104.636 72.0215L105.466 76.7006L105.315 76.927L105.089 77.1534L104.787 77.3798L104.485 77.5307L104.183 77.6817L103.806 77.7572L103.353 77.9081L102.9 77.9836H102.448L101.919 78.059H101.391H100.863H100.334H99.7306H99.1269H98.5231L97.9194 77.9836H97.2402H96.6364L96.0327 77.9081H95.3534H94.7497H94.1459H93.4667H92.8629H92.2592L91.7309 77.9836L91.1271 78.059L90.5989 78.1345L90.0706 78.21L89.6178 78.3609L89.1649 78.5118L88.7121 78.6628L88.3348 78.8892L87.9574 79.1156L87.5801 79.342L87.2027 79.6439L86.8254 79.9458L86.448 80.2476L86.0707 80.625L85.6933 80.9269L85.316 81.3042L85.0141 81.6816L84.6368 82.0589L84.2594 82.4363L83.9576 82.8136L83.5802 83.1909L83.2783 83.5683L82.9765 83.9456L82.5991 84.2475L82.2972 84.6249L81.9199 84.9267L81.618 85.2286L81.3161 85.5305L80.9388 85.8324L80.6369 86.0588L80.2596 86.2097L79.9577 86.4361L79.6558 86.5871L79.2785 86.6625L78.9766 86.738H78.5992H78.2974L77.92 86.6625L77.0898 81.9834L77.4672 82.0589H77.7691H78.1464L78.4483 81.9834L78.8256 81.908L79.1275 81.757L79.5049 81.6061L79.8067 81.3797L80.1086 81.1533L80.486 80.8514L80.7878 80.5495L81.0897 80.2476L81.4671 79.9458L81.7689 79.6439L82.1463 79.2665L82.4482 78.8892L82.8255 78.5118L83.1274 78.1345L83.5047 77.7572L83.8066 77.3798L84.184 77.0025L84.4858 76.6251L84.8632 76.2478L85.2405 75.9459L85.6179 75.5685L85.9952 75.2667L86.3726 74.9648L86.7499 74.6629L87.1273 74.4365L87.5046 74.2101L87.882 73.9837L88.3348 73.8327L88.7876 73.6818L89.2404 73.6063L89.7687 73.4554L90.297 73.3799L90.9007 73.3045H91.5045L92.0328 73.229H92.6365H93.3158H93.9195H94.5233L95.2025 73.3045H95.8062H96.41L97.0892 73.3799H97.693H98.2967L98.9005 73.4554H99.5042H100.033H100.636L101.165 73.3799H101.617L102.07 73.3045L102.523 73.229L102.976 73.1535L103.353 73.0026L103.655 72.8516L103.957 72.7007L104.259 72.5498L104.485 72.3234L104.636 72.0215Z" fill="url(#paint1_linear_6036_1900)" stroke="black" stroke-width="1.41194" stroke-linejoin="bevel"/>
<path fill-rule="evenodd" clip-rule="evenodd" d="M77.0967 81.9834L77.9269 86.6625L77.625 86.5115L77.3231 86.436L77.0967 86.2096L76.9458 85.9832L76.7949 85.7568L76.6439 85.5304L76.5684 85.2285L75.7383 80.5494L75.8138 80.8513L75.9647 81.1532L76.1156 81.3796L76.2666 81.5305L76.493 81.7569L76.7949 81.9079L77.0967 81.9834Z" fill="black" stroke="black" stroke-width="1.41194" stroke-linejoin="bevel"/>
<path fill-rule="evenodd" clip-rule="evenodd" d="M76.6416 71.5686L77.4717 76.2477L77.3963 75.8703L77.2453 75.5685L77.0944 75.2666L76.9434 74.8892L76.6416 74.5874L76.3397 74.2855L76.0378 73.9836L75.6605 73.6817L75.2831 73.3044L74.9058 73.0025L74.453 72.7761L74.0001 72.4742L73.4719 72.1723L73.019 71.8705L72.4908 71.5686L72.0379 71.2667L71.5097 71.0403L71.0568 70.7384L70.5286 70.4366L70.0757 70.2101L69.6229 69.9083L69.1701 69.6819L68.7173 69.38L68.3399 69.1536L67.9626 68.8517L67.5853 68.6253L67.2834 68.3234L67.057 68.0215L66.8306 67.7951L66.6796 67.4932L66.5287 67.2668L66.4532 66.965L65.623 62.3613L65.6985 62.5877L65.8495 62.8896L66.0004 63.116L66.2268 63.4179L66.5287 63.6443L66.8306 63.9462L67.1324 64.1726L67.5098 64.4745L67.8871 64.7009L68.3399 65.0028L68.7928 65.2292L69.2456 65.531L69.6984 65.8329L70.2267 66.0593L70.6795 66.3612L71.2078 66.6631L71.6606 66.8895L72.1889 67.1914L72.6417 67.4932L73.17 67.7951L73.6228 68.097L74.0756 68.3989L74.453 68.7008L74.8303 69.0026L75.2077 69.3045L75.585 69.6064L75.8114 69.9083L76.1133 70.2856L76.2642 70.5875L76.4152 70.8894L76.5661 71.2667L76.6416 71.5686Z" fill="black" stroke="black" stroke-width="1.41194" stroke-linejoin="bevel"/>
<path fill-rule="evenodd" clip-rule="evenodd" d="M94.7519 53.3049L95.582 57.984V58.2859V58.6633V59.0406L95.5066 59.418V59.7953L95.4311 60.2481L95.3556 60.6255L95.2047 61.0783L95.1292 61.5311L95.0538 61.9839L94.9783 62.4367L94.8274 62.8141L94.7519 63.2669L94.6764 63.7197L94.6009 64.1725L94.5255 64.6253V65.0027V65.4555V65.8328V66.2102L94.6009 66.5875L93.7708 61.9839L93.6953 61.6066V61.2292V60.7764V60.3991L93.7708 59.9462V59.4934L93.8463 59.1161L93.9217 58.6633L93.9972 58.2104L94.1481 57.7576L94.2236 57.3048L94.2991 56.852L94.3745 56.3992L94.5255 56.0218L94.6009 55.569L94.6764 55.1162V54.7388L94.7519 54.3615V53.9842V53.6068V53.3049Z" fill="#FFD731" stroke="black" stroke-width="1.41194" stroke-linejoin="bevel"/>
<path fill-rule="evenodd" clip-rule="evenodd" d="M104.792 71.2665L105.622 75.8701V76.172L105.546 76.3984L105.471 76.7003L104.641 72.0212L104.716 71.7948L104.792 71.4929V71.2665Z" fill="#FFD731" stroke="black" stroke-width="1.41194" stroke-linejoin="bevel"/>
<path fill-rule="evenodd" clip-rule="evenodd" d="M104.646 72.021C103.061 74.9643 93.0989 72.0965 88.3443 73.8323C83.9671 75.4172 80.7974 82.9641 77.0994 81.983C73.4014 81.0019 78.0805 73.8323 76.2692 70.5871C74.307 67.0401 64.2696 64.3986 65.779 61.5308C67.2884 58.5875 77.3258 61.4553 82.0804 59.7195C86.4576 58.1347 89.6273 50.5877 93.3253 51.5688C97.0233 52.5499 92.2687 59.7195 94.08 62.9647C96.1177 66.5118 106.155 69.1532 104.646 72.021Z" fill="#F2EEE4" stroke="black" stroke-width="1.41194"/>
<path fill-rule="evenodd" clip-rule="evenodd" d="M172.56 164.932L173.721 171.477L173.51 171.794L173.194 172.111L172.771 172.427L172.349 172.639L171.927 172.85L171.399 172.955L170.765 173.166L170.132 173.272H169.498L168.759 173.378H168.02H167.281H166.542H165.698H164.853H164.009L163.164 173.272H162.214H161.369L160.525 173.166H159.574H158.73H157.885H156.935H156.091H155.246L154.507 173.272L153.662 173.378L152.923 173.483L152.184 173.589L151.551 173.8L150.917 174.011L150.284 174.222L149.756 174.539L149.228 174.856L148.7 175.172L148.172 175.595L147.645 176.017L147.117 176.439L146.589 176.967L146.061 177.389L145.533 177.917L145.111 178.445L144.583 178.973L144.055 179.501L143.633 180.029L143.105 180.557L142.683 181.085L142.26 181.612L141.732 182.035L141.31 182.563L140.782 182.985L140.36 183.407L139.938 183.83L139.41 184.252L138.987 184.569L138.46 184.78L138.037 185.096L137.615 185.308L137.087 185.413L136.665 185.519H136.137H135.715L135.187 185.413L134.025 178.868L134.553 178.973H134.976H135.503L135.926 178.868L136.454 178.762L136.876 178.551L137.404 178.34L137.826 178.023L138.248 177.706L138.776 177.284L139.199 176.862L139.621 176.439L140.149 176.017L140.571 175.595L141.099 175.067L141.521 174.539L142.049 174.011L142.471 173.483L142.999 172.955L143.422 172.427L143.949 171.9L144.372 171.372L144.9 170.844L145.427 170.422L145.955 169.894L146.483 169.471L147.011 169.049L147.539 168.627L148.067 168.31L148.595 167.993L149.123 167.677L149.756 167.465L150.389 167.254L151.023 167.149L151.762 166.938L152.501 166.832L153.346 166.726H154.19L154.929 166.621H155.774H156.724H157.569H158.413L159.363 166.726H160.208H161.053L162.003 166.832H162.847H163.692L164.536 166.938H165.381H166.12H166.965L167.704 166.832H168.337L168.971 166.726L169.604 166.621L170.238 166.515L170.765 166.304L171.188 166.093L171.61 165.882L172.032 165.671L172.349 165.354L172.56 164.932Z" fill="url(#paint2_linear_6036_1900)" stroke="black" stroke-width="1.41194" stroke-linejoin="bevel"/>
<path fill-rule="evenodd" clip-rule="evenodd" d="M134.035 178.867L135.196 185.413L134.774 185.202L134.352 185.096L134.035 184.78L133.824 184.463L133.613 184.146L133.402 183.83L133.296 183.407L132.135 176.862L132.24 177.284L132.451 177.706L132.663 178.023L132.874 178.234L133.191 178.551L133.613 178.762L134.035 178.867Z" fill="black" stroke="black" stroke-width="1.41194" stroke-linejoin="bevel"/>
<path fill-rule="evenodd" clip-rule="evenodd" d="M133.398 164.298L134.56 170.844L134.454 170.316L134.243 169.894L134.032 169.471L133.821 168.943L133.398 168.521L132.976 168.099L132.554 167.677L132.026 167.254L131.498 166.726L130.97 166.304L130.337 165.987L129.703 165.565L128.964 165.143L128.331 164.721L127.592 164.298L126.958 163.876L126.219 163.559L125.586 163.137L124.847 162.715L124.213 162.398L123.58 161.976L122.946 161.659L122.313 161.237L121.785 160.92L121.257 160.498L120.729 160.181L120.307 159.758L119.99 159.336L119.674 159.019L119.462 158.597L119.251 158.28L119.146 157.858L117.984 151.418L118.09 151.735L118.301 152.157L118.512 152.474L118.829 152.896L119.251 153.213L119.674 153.635L120.096 153.952L120.624 154.374L121.152 154.691L121.785 155.113L122.419 155.43L123.052 155.852L123.685 156.275L124.424 156.591L125.058 157.014L125.797 157.436L126.43 157.753L127.169 158.175L127.803 158.597L128.542 159.019L129.175 159.442L129.809 159.864L130.337 160.286L130.864 160.709L131.392 161.131L131.92 161.553L132.237 161.976L132.659 162.503L132.87 162.926L133.082 163.348L133.293 163.876L133.398 164.298Z" fill="black" stroke="black" stroke-width="1.41194" stroke-linejoin="bevel"/>
<path fill-rule="evenodd" clip-rule="evenodd" d="M158.736 138.749L159.897 145.295V145.717V146.245V146.773L159.792 147.3V147.828L159.686 148.462L159.58 148.99L159.369 149.623L159.264 150.257L159.158 150.89L159.053 151.523L158.841 152.051L158.736 152.685L158.63 153.318L158.525 153.952L158.419 154.585V155.113V155.746V156.274V156.802L158.525 157.33L157.363 150.89L157.258 150.362V149.834V149.201V148.673L157.363 148.039V147.406L157.469 146.878L157.575 146.245L157.68 145.611L157.891 144.978L157.997 144.344L158.102 143.711L158.208 143.077L158.419 142.55L158.525 141.916L158.63 141.283V140.755L158.736 140.227V139.699V139.171V138.749Z" fill="#FFD731" stroke="black" stroke-width="1.41194" stroke-linejoin="bevel"/>
<path fill-rule="evenodd" clip-rule="evenodd" d="M172.78 163.875L173.941 170.316V170.738L173.835 171.055L173.73 171.477L172.568 164.931L172.674 164.615L172.78 164.192V163.875Z" fill="#FFD731" stroke="black" stroke-width="1.41194" stroke-linejoin="bevel"/>
<path fill-rule="evenodd" clip-rule="evenodd" d="M172.573 164.931C170.356 169.049 156.42 165.037 149.769 167.465C143.645 169.682 139.211 180.239 134.038 178.867C128.865 177.494 135.41 167.465 132.877 162.925C130.132 157.963 116.09 154.268 118.202 150.256C120.313 146.139 134.355 150.151 141.006 147.722C147.129 145.505 151.563 134.948 156.736 136.32C161.91 137.693 155.258 147.722 157.792 152.262C160.643 157.224 174.684 160.919 172.573 164.931Z" fill="#F2EEE4" stroke="black" stroke-width="1.41194"/>
<defs>
<linearGradient id="paint0_linear_6036_1900" x1="120.525" y1="135.823" x2="149.655" y2="108.509" gradientUnits="userSpaceOnUse">
<stop stop-color="#FF6FB4"/>
<stop offset="1" stop-color="#FFB800"/>
</linearGradient>
<linearGradient id="paint1_linear_6036_1900" x1="88.3224" y1="80.4892" x2="99.909" y2="69.6319" gradientUnits="userSpaceOnUse">
<stop stop-color="#FF6FB4"/>
<stop offset="1" stop-color="#FFB800"/>
</linearGradient>
<linearGradient id="paint2_linear_6036_1900" x1="149.739" y1="176.777" x2="165.947" y2="161.589" gradientUnits="userSpaceOnUse">
<stop stop-color="#FF6FB4"/>
<stop offset="1" stop-color="#FFB800"/>
</linearGradient>
</defs>
</svg>
