<svg width="256" height="256" viewBox="0 0 256 256" fill="none" xmlns="http://www.w3.org/2000/svg">
<g clip-path="url(#clip0_6052_5)">
<path d="M256 0H0V256H256V0Z" fill="#4DA2FF"/>
<path fill-rule="evenodd" clip-rule="evenodd" d="M163.415 115.56L163.413 115.566C169.566 123.239 173.243 132.957 173.243 143.528C173.243 154.256 169.455 164.106 163.136 171.832L162.592 172.497L162.448 171.651C162.326 170.932 162.181 170.207 162.014 169.475C158.852 155.656 148.548 143.806 131.59 134.211C120.138 127.75 113.583 119.969 111.862 111.13C110.751 105.413 111.577 99.6717 113.174 94.7541C114.77 89.8376 117.145 85.7186 119.163 83.2387L125.761 75.2146C126.918 73.8077 129.083 73.8077 130.24 75.2146L163.415 115.56ZM173.85 107.544L129.635 53.77C128.79 52.7433 127.21 52.7433 126.366 53.77L82.1487 107.541L82.006 107.722C73.8693 117.764 69 130.525 69 144.418C69 176.771 95.4147 203 128 203C160.585 203 187 176.771 187 144.418C187 130.525 182.131 117.764 173.994 107.722L173.85 107.544ZM92.7284 115.386L96.6849 110.574L96.8046 111.462C96.8991 112.166 97.0142 112.872 97.1505 113.583C99.7092 126.936 108.851 138.07 124.134 146.694C137.419 154.214 145.154 162.861 147.383 172.344C148.313 176.302 148.479 180.196 148.076 183.601L148.051 183.812L147.859 183.905C141.863 186.818 135.123 188.453 127.998 188.453C103.011 188.453 82.7544 168.34 82.7544 143.528C82.7544 132.875 86.4887 123.087 92.7284 115.386Z" fill="#F7F7F8"/>
</g>
<defs>
<clipPath id="clip0_6052_5">
<rect width="256" height="256" fill="white"/>
</clipPath>
</defs>
</svg>
