<svg width="205" height="205" viewBox="0 0 205 205" fill="none" xmlns="http://www.w3.org/2000/svg">
<path fill-rule="evenodd" clip-rule="evenodd" d="M61.6051 109.99L145.361 139.393C147.391 140.114 147.653 137.691 148.243 139.393C148.308 139.655 149.487 143.781 149.552 144.043C149.749 145.484 149.487 147.121 148.57 148.692L128.27 181.894C126.043 185.626 120.87 187.591 116.81 186.216L33.1188 156.747C31.2197 156.092 29.91 154.848 29.2552 153.276C29.1242 152.949 28.0764 149.216 28.0109 148.889C27.6835 147.383 29.779 147.186 30.7613 145.549L50.2106 114.247C52.5026 110.514 57.6105 108.55 61.6051 109.99Z" fill="url(#paint0_linear_6050_3182)" stroke="black" stroke-width="1.09807" stroke-linejoin="bevel"/>
<path fill-rule="evenodd" clip-rule="evenodd" d="M61.6051 109.991L66.3201 111.562L122.965 186.085C121.001 186.74 118.774 186.871 116.81 186.216L33.1188 156.747C31.2197 156.092 29.91 154.848 29.2552 153.277C29.1242 152.949 28.0764 149.216 28.0109 148.889C27.6835 147.383 29.779 147.186 30.7613 145.549L50.2106 114.247C52.5026 110.514 57.6105 108.615 61.6051 109.991Z" fill="black" stroke="black" stroke-width="1.13182" stroke-linejoin="round"/>
<path fill-rule="evenodd" clip-rule="evenodd" d="M60.4925 106.061L144.183 135.464C148.243 136.905 149.684 141.031 147.392 144.763L127.157 178.03C124.865 181.697 119.757 183.662 115.697 182.287L32.0062 152.884C28.0116 151.443 26.5709 147.317 28.7974 143.585L49.0325 110.318C51.3245 106.585 56.4978 104.621 60.4925 106.061Z" fill="#55DB9C" stroke="black" stroke-width="1.13182" stroke-linejoin="round"/>
<path fill-rule="evenodd" clip-rule="evenodd" d="M61.7341 104.293L145.425 133.696C147.455 134.417 147.782 131.994 148.306 133.696C148.437 134.024 149.55 138.084 149.616 138.346C149.878 139.787 149.55 141.424 148.634 142.995L128.399 176.262C126.107 179.929 120.933 181.894 116.939 180.519L33.2478 151.116C31.3487 150.395 29.9735 149.151 29.3842 147.579C29.2532 147.252 28.1399 143.519 28.0745 143.192C27.747 141.686 29.9081 141.489 30.8903 139.852L50.2741 108.55C52.5661 104.817 57.7395 102.853 61.7341 104.293Z" fill="url(#paint1_linear_6050_3182)" stroke="black" stroke-width="1.09807" stroke-linejoin="bevel"/>
<path fill-rule="evenodd" clip-rule="evenodd" d="M61.7341 104.293L66.3836 105.865L123.094 180.388C121.064 181.043 118.903 181.173 116.939 180.519L33.2478 151.116C31.3487 150.395 29.9735 149.151 29.3842 147.579C29.2532 147.252 28.1399 143.519 28.0745 143.192C27.747 141.686 29.9081 141.489 30.8903 139.852L50.2741 108.55C52.5661 104.817 57.7395 102.918 61.7341 104.293Z" fill="black" stroke="black" stroke-width="1.13182" stroke-linejoin="round"/>
<path fill-rule="evenodd" clip-rule="evenodd" d="M60.6232 100.364L144.314 129.767C148.309 131.208 149.815 135.333 147.523 139.066L127.288 172.333C124.996 176.065 119.822 177.964 115.828 176.589L32.1369 147.186C28.0768 145.745 26.6361 141.62 28.9281 137.887L49.1632 104.62C51.4552 100.888 56.6285 98.9232 60.6232 100.364Z" fill="#55DB9C" stroke="black" stroke-width="1.13182" stroke-linejoin="round"/>
<path fill-rule="evenodd" clip-rule="evenodd" d="M58.9225 97.7447L142.613 127.148C144.643 127.868 144.905 125.445 145.495 127.148C145.56 127.41 146.739 131.535 146.804 131.797C147.066 133.238 146.739 134.875 145.822 136.447L125.521 169.648C123.295 173.381 118.122 175.345 114.061 173.905L30.3707 144.502C28.4717 143.847 27.1619 142.602 26.5071 141.031C26.3761 140.703 25.3283 136.971 25.2629 136.643C24.9354 135.137 27.031 134.941 28.0787 133.303L47.4625 102.001C49.7545 98.2686 54.8624 96.304 58.9225 97.7447Z" fill="url(#paint2_linear_6050_3182)" stroke="black" stroke-width="1.09807" stroke-linejoin="bevel"/>
<path fill-rule="evenodd" clip-rule="evenodd" d="M58.9225 97.7447L63.572 99.3163L120.217 173.839C118.253 174.494 116.026 174.625 114.061 173.905L30.3707 144.501C28.4717 143.847 27.1619 142.602 26.5071 141.031C26.3761 140.703 25.3283 136.971 25.2629 136.643C24.9354 135.137 27.031 134.941 28.0787 133.303L47.4625 102.001C49.7545 98.2686 54.8624 96.3695 58.9225 97.7447Z" fill="black" stroke="black" stroke-width="1.13182" stroke-linejoin="round"/>
<path fill-rule="evenodd" clip-rule="evenodd" d="M57.7425 93.8155L141.433 123.219C145.493 124.594 146.934 128.785 144.642 132.518L124.407 165.784C122.18 169.452 117.007 171.416 112.947 170.041L29.2562 140.572C25.2616 139.197 23.8209 135.072 26.0474 131.339L46.2825 98.0721C48.5745 94.3394 53.7478 92.3748 57.7425 93.8155Z" fill="#55DB9C" stroke="black" stroke-width="1.13182" stroke-linejoin="round"/>
<path fill-rule="evenodd" clip-rule="evenodd" d="M61.4091 98.7925L129.514 122.76C127.353 128.327 130.235 134.155 136.39 136.185C136.718 136.316 136.98 136.381 137.307 136.512L124.341 157.861C117.923 155.896 110.523 158.843 107.642 164.54C107.577 164.606 107.577 164.671 107.511 164.737L39.8643 140.9C40.0608 140.638 40.2572 140.31 40.3882 139.983C43.335 134.22 40.4537 127.803 34.1016 125.576L46.02 105.996C52.0446 107.175 58.6587 104.228 61.3436 98.9235C61.3436 98.858 61.4091 98.858 61.4091 98.7925Z" fill="#55DB9C" stroke="black" stroke-width="1.13182" stroke-linejoin="round"/>
<path fill-rule="evenodd" clip-rule="evenodd" d="M87.3424 104.228L109.149 111.955L82.2345 159.039L60.4277 151.312L87.3424 104.228Z" fill="#F7F7F7" stroke="black" stroke-width="1.13182" stroke-linejoin="round"/>
<path fill-rule="evenodd" clip-rule="evenodd" d="M66.8453 168.469L88.6521 176.197L82.2345 159.039L60.4277 151.312L66.8453 168.469Z" fill="url(#paint3_linear_6050_3182)" stroke="black" stroke-width="1.1353"/>
<path fill-rule="evenodd" clip-rule="evenodd" d="M81.3179 137.953L80.8595 137.822H80.794C80.7285 137.822 80.7285 137.756 80.663 137.756C79.8117 137.429 78.8949 136.905 78.371 136.25C78.24 136.119 78.1091 135.988 77.9781 135.792C77.9126 135.726 77.8471 135.595 77.7816 135.53C77.7162 135.464 77.7162 135.399 77.6507 135.268C77.6507 135.268 77.5852 135.202 77.5852 135.137C77.5197 135.006 77.4542 134.94 77.3887 134.744C77.3232 134.482 77.2578 134.417 77.1923 134.155C76.9958 133.434 76.9958 132.518 77.1923 131.601C77.7162 129.833 78.9604 128.261 80.7285 127.213C80.8595 127.148 80.9904 127.082 81.0559 127.017C81.8418 126.624 82.6931 126.231 83.4789 125.838L88.1939 123.546C88.5868 123.35 89.0452 123.088 89.3726 122.957C89.5036 122.891 89.5036 122.891 89.5691 122.891H89.6346C89.6346 122.957 89.7 122.957 89.7 122.957C89.7655 123.022 89.7655 123.022 89.7655 123.022L89.8965 123.48C89.8965 123.546 89.962 123.677 89.962 123.742L90.8788 126.951C90.9443 127.148 91.0098 127.344 91.0752 127.541L91.1407 127.934C91.2062 127.999 91.2062 128.064 91.2062 128.13C91.2717 128.326 91.3372 128.457 91.4027 128.654C91.4682 129.047 91.5991 129.44 91.7301 129.833C91.9266 130.618 91.992 131.404 91.7301 132.387C91.5336 133.434 90.8788 134.482 90.093 135.333C89.7655 135.726 89.3071 136.119 88.9142 136.447C88.7178 136.578 88.5213 136.709 88.2594 136.84C88.0629 136.971 87.801 137.102 87.6045 137.232C87.539 137.232 87.4735 137.298 87.408 137.298C87.2116 137.363 87.1461 137.429 86.9496 137.56C86.3603 137.756 85.7054 137.953 85.116 138.084C84.7231 138.149 84.3302 138.215 83.9373 138.215C83.1515 138.28 82.4966 138.215 81.7763 138.084C81.7108 138.084 81.3834 137.953 81.3179 137.953ZM78.9604 133.762C78.8949 133.631 78.8294 133.172 78.8294 133.041C78.7639 132.19 78.9604 131.273 79.4188 130.422C79.7462 129.898 80.2701 129.309 80.794 128.916C81.1869 128.588 81.4488 128.392 81.9072 128.13C82.0382 128.064 82.1692 127.999 82.3002 127.934C83.4134 127.41 84.5267 126.82 85.5744 126.296C85.9019 126.165 86.1638 126.034 86.4258 125.903L87.2116 125.511C87.4735 125.38 87.8664 125.183 88.0629 125.118C88.1939 124.987 88.3903 124.987 88.5213 125.052C88.6523 125.118 88.6523 125.249 88.6523 125.38C88.7178 125.642 88.7832 125.838 88.8487 126.1C89.1107 126.82 89.0452 127.672 88.6523 128.523C88.2594 129.309 87.67 129.833 86.8842 130.226C86.7532 130.291 86.6877 130.356 86.4912 130.422C86.3603 130.487 86.2293 130.553 86.0328 130.553C85.9019 130.618 85.7709 130.684 85.6399 130.684C85.116 130.88 84.3302 130.946 83.8063 131.077C83.4134 131.142 82.824 131.339 82.4966 131.47L82.1692 131.535C82.1037 131.601 82.1037 131.601 82.0382 131.601L81.7108 131.732C81.5143 131.797 81.4488 131.863 81.1869 131.994C79.6152 132.779 79.0914 133.696 78.9604 133.762ZM81.9727 136.447C81.2524 136.25 80.5975 135.857 80.0082 135.399V135.333C79.9427 135.268 80.3356 134.679 80.4011 134.613C80.8595 133.958 81.3834 133.565 82.1037 133.238C82.1692 133.172 82.2347 133.172 82.3002 133.107C82.4311 133.041 82.7586 132.91 82.955 132.845C83.0205 132.845 83.0205 132.845 83.086 132.845C83.4789 132.648 84.0683 132.518 84.5267 132.452C85.1815 132.321 85.6399 132.256 86.2948 132.059C86.8187 131.928 87.0806 131.797 87.6045 131.535C87.9974 131.339 88.4558 131.142 88.8487 130.815C89.1107 130.553 89.4381 130.291 89.6346 130.029C89.7655 129.898 89.831 129.833 89.8965 129.702C89.8965 129.702 90.093 130.226 90.093 130.291C90.2239 130.88 90.2894 131.601 90.093 132.256C89.962 132.845 89.7 133.303 89.3726 133.827C89.0452 134.351 88.6523 134.744 88.1939 135.137C87.3426 135.792 86.2948 136.25 85.378 136.512C84.3957 136.709 83.217 136.84 81.9727 136.447Z" fill="black"/>
<defs>
<linearGradient id="paint0_linear_6050_3182" x1="76.1253" y1="153.901" x2="134.893" y2="108.867" gradientUnits="userSpaceOnUse">
<stop stop-color="#0094FF"/>
<stop offset="1" stop-color="#70CF42"/>
</linearGradient>
<linearGradient id="paint1_linear_6050_3182" x1="76.1997" y1="148.204" x2="134.971" y2="103.159" gradientUnits="userSpaceOnUse">
<stop stop-color="#0094FF"/>
<stop offset="1" stop-color="#70CF42"/>
</linearGradient>
<linearGradient id="paint2_linear_6050_3182" x1="73.3875" y1="141.637" x2="132.141" y2="96.5866" gradientUnits="userSpaceOnUse">
<stop stop-color="#0094FF"/>
<stop offset="1" stop-color="#70CF42"/>
</linearGradient>
<linearGradient id="paint3_linear_6050_3182" x1="74.5399" y1="151.312" x2="74.5399" y2="176.197" gradientUnits="userSpaceOnUse">
<stop stop-color="#F7F7F7"/>
<stop offset="1" stop-color="#EBCD81"/>
</linearGradient>
</defs>
</svg>
