<svg width="205" height="205" viewBox="0 0 205 205" fill="none" xmlns="http://www.w3.org/2000/svg">
<path fill-rule="evenodd" clip-rule="evenodd" d="M131.424 34.2202C134.511 37.5703 137.664 40.5262 140.226 44.2047C144.167 50.7077 145.218 56.4882 144.627 63.9765C142.788 78.9532 133.526 91.4994 118.878 98.9878C105.675 105.031 91.6834 105.425 80.3195 96.2946L79.1372 95.2436L73.291 89.0033L74.4734 90.0543C86.3628 99.6446 101.208 98.7907 114.74 91.8935C125.053 86.0474 131.687 78.5591 136.088 68.3119C138.912 60.8892 139.701 54.7803 138.124 47.0949C137.073 42.9566 135.891 40.2634 133.395 36.7163L132.475 35.4026L131.424 34.2202Z" fill="url(#paint0_linear_6050_3431)" stroke="black" stroke-width="1.09807" stroke-linejoin="bevel"/>
<path fill-rule="evenodd" clip-rule="evenodd" d="M114.411 100.893C102.785 104.768 90.1726 104.177 80.3195 96.2947L79.1372 95.2437L73.291 89.0034L74.4734 90.0544C84.5235 98.1339 96.7413 98.7908 108.434 94.5868L114.411 100.893Z" fill="black" stroke="black" stroke-width="1.1353" stroke-linejoin="bevel"/>
<path fill-rule="evenodd" clip-rule="evenodd" d="M99.7639 26.075C120.258 21.2798 137.731 32.9721 138.848 52.2841C140.03 71.5962 124.331 91.1709 103.836 96.0318C83.3421 100.893 65.8036 89.1346 64.6869 69.8226C63.5702 50.5106 79.2695 30.9358 99.7639 26.075Z" fill="#FFD731" stroke="black" stroke-width="1.1353"/>
<path fill-rule="evenodd" clip-rule="evenodd" d="M99.8957 28.7025C118.879 24.17 135.104 35.0741 136.155 52.941C137.206 70.8079 122.623 89.0033 103.64 93.47C84.6563 97.9367 68.4315 87.0983 67.4462 69.1657C66.3952 51.2988 80.9121 33.1692 99.8957 28.7025Z" fill="#FFD731" stroke="black" stroke-width="1.1353"/>
<path fill-rule="evenodd" clip-rule="evenodd" d="M101.47 79.0846L100.419 79.2816H100.156C100.09 79.3473 100.024 79.3473 99.8931 79.3473C97.8568 79.6101 95.4263 79.4787 93.7185 78.8218C93.2587 78.6248 92.7989 78.4934 92.4047 78.2306C92.142 78.165 91.9449 78.0336 91.7479 77.9679C91.5508 77.8365 91.3537 77.7052 91.2224 77.5738C91.091 77.5081 91.0253 77.4424 90.8939 77.3767C90.6312 77.1797 90.4341 77.0483 90.1057 76.7855C89.7116 76.3914 89.5145 76.1943 89.1204 75.8002C88.0037 74.6179 86.9527 72.7786 86.4272 70.6109C85.5076 66.6697 86.4272 62.1373 88.9233 58.1304C89.0547 57.8676 89.1861 57.6049 89.3831 57.4078C90.4998 55.7656 91.6822 54.1235 92.8645 52.547L99.8931 42.7596C100.419 42.037 101.075 41.1174 101.667 40.3292C101.798 40.1321 101.864 40.1321 101.995 40.0664H102.126C102.192 40.0664 102.258 40.0664 102.323 40.0664C102.389 40.1321 102.455 40.1321 102.455 40.1978L103.177 40.9203C103.374 41.1174 103.506 41.2488 103.703 41.3801L108.892 46.8322C109.221 47.1606 109.549 47.4891 109.812 47.8175L110.534 48.5401C110.6 48.6057 110.731 48.6714 110.797 48.8028C111.126 49.1312 111.388 49.4597 111.717 49.7881C112.374 50.445 113.031 51.1018 113.622 51.7587C114.87 53.0068 115.789 54.5833 116.446 56.8166C117.037 59.1157 116.972 61.9402 116.249 64.502C115.986 65.6844 115.527 66.8668 115.001 67.9178C114.738 68.4433 114.476 68.9688 114.147 69.4286C113.884 69.9541 113.556 70.4139 113.228 70.8737C113.162 71.0051 113.096 71.0707 112.965 71.2021C112.702 71.5962 112.505 71.859 112.177 72.2531C111.323 73.3041 110.206 74.4208 109.089 75.2747C108.367 75.8002 107.644 76.3257 106.856 76.7855C105.476 77.7052 104.031 78.2963 102.521 78.7561C102.323 78.8218 101.601 79.0189 101.47 79.0846ZM92.2734 73.0414C92.0106 72.91 91.3537 71.9904 91.2224 71.7933C90.1714 70.2168 89.5802 68.1805 89.7116 66.0128C89.7116 64.502 90.1057 62.7942 90.6969 61.4804C91.1567 60.4294 91.5508 59.6412 92.142 58.6559C92.339 58.3931 92.5361 58.1304 92.7332 57.8019C94.3753 55.6343 96.0175 53.3352 97.594 51.1018C98.0538 50.5764 98.448 49.9852 98.8421 49.4597L100.024 47.7518C100.419 47.292 100.944 46.5694 101.273 46.1096C101.47 45.7812 101.798 45.5184 102.192 45.5841C102.455 45.5841 102.586 45.8469 102.849 46.0439C103.177 46.4381 103.572 46.8322 103.966 47.2263C105.148 48.4087 105.936 50.2479 106.068 52.3499C106.133 54.2548 105.542 56.0284 104.425 57.6049C104.163 57.999 104.031 58.0647 103.769 58.4588C103.572 58.7216 103.309 58.9186 103.112 59.1814C102.849 59.4441 102.586 59.7069 102.323 59.9696C101.47 60.7579 100.09 61.8089 99.1048 62.5971C98.448 63.1883 97.397 64.1736 96.8058 64.7648L96.2803 65.356C96.2146 65.4217 96.2146 65.4873 96.1489 65.553L95.6234 66.1442C95.295 66.5383 95.1636 66.7354 94.8352 67.1952C92.5361 70.4139 92.4047 72.7786 92.2734 73.0414ZM101.207 75.3404C99.3676 75.7345 97.7254 75.6688 96.1489 75.2747L96.0175 75.209C95.8205 75.1434 96.0175 73.5669 96.0175 73.3041C96.2803 71.5306 96.8715 70.1511 97.9881 68.706C98.0538 68.5746 98.1195 68.4433 98.1852 68.3776C98.3823 68.1148 98.9735 67.3923 99.2362 67.1295C99.3676 66.9981 99.4333 66.9325 99.4989 66.8011C100.156 66.1442 101.207 65.2246 101.929 64.6334C103.112 63.7138 104.031 63.0569 105.082 62.0059C105.936 61.0863 106.462 60.5608 107.25 59.5755C107.841 58.7216 108.367 57.8019 108.892 56.7509C109.221 55.9627 109.483 55.1088 109.68 54.2548C109.746 53.9921 109.812 53.6636 109.878 53.4009C109.943 53.4009 110.731 54.3205 110.797 54.3862C111.848 55.3715 112.571 56.7509 112.965 58.3274C113.293 59.5755 113.293 60.8236 113.162 62.2687C113.031 63.5824 112.636 64.8962 112.177 66.0128C111.257 68.3119 109.615 70.3482 108.038 71.7933C106.199 73.3698 103.966 74.7492 101.207 75.3404Z" fill="#FFD731" stroke="black" stroke-width="1.1353" stroke-linecap="round" stroke-linejoin="round"/>
<path fill-rule="evenodd" clip-rule="evenodd" d="M100.88 78.4933L99.8287 78.6903L99.566 78.756C99.5003 78.756 99.4346 78.756 99.3689 78.756C97.2669 79.0845 94.8365 78.8874 93.1286 78.2305C92.6688 78.0335 92.209 77.9021 91.8149 77.705C91.6178 77.5737 91.4208 77.508 91.2237 77.3766C91.0266 77.2452 90.7639 77.1138 90.6325 76.9825C90.5011 76.9168 90.4355 76.9168 90.3041 76.8511C90.0413 76.5883 89.8443 76.5227 89.5158 76.1942C89.1217 75.8658 88.9247 75.6687 88.5305 75.2746C87.4139 74.0265 86.3629 72.253 85.8374 70.0196C84.9177 66.0784 85.8374 61.546 88.3335 57.5391C88.4648 57.2763 88.5962 57.0793 88.7933 56.8165C89.91 55.1743 91.0923 53.5322 92.2747 51.9557L99.3032 42.234C99.8944 41.4457 100.486 40.5261 101.077 39.8035C101.208 39.6065 101.34 39.6065 101.405 39.5408L101.537 39.4751C101.602 39.4751 101.668 39.4751 101.734 39.5408C101.799 39.5408 101.865 39.5408 101.931 39.6065L102.588 40.329C102.785 40.5261 102.916 40.6575 103.113 40.8545L108.302 46.2409C108.631 46.5693 108.959 46.8977 109.222 47.2262L109.945 47.9487C110.076 48.0801 110.142 48.1458 110.207 48.2115C110.536 48.5399 110.864 48.8684 111.127 49.1968C111.784 49.8537 112.441 50.5105 113.032 51.1674C114.28 52.4812 115.265 53.992 115.856 56.291C116.448 58.5244 116.382 61.3489 115.659 63.9107C115.397 65.0931 114.937 66.2755 114.411 67.3265C114.149 67.852 113.886 68.3775 113.557 68.8373C113.295 69.3628 112.966 69.8883 112.638 70.2824C112.572 70.4138 112.506 70.5451 112.375 70.6765C112.112 71.0706 111.915 71.2677 111.587 71.6618C110.733 72.7128 109.616 73.8295 108.499 74.6834C107.843 75.2746 107.054 75.8001 106.332 76.2599C104.887 77.1138 103.442 77.7707 101.931 78.2305C101.734 78.2962 101.011 78.4276 100.88 78.4933ZM91.6835 72.5157C91.4208 72.3187 90.7639 71.4647 90.6325 71.202C89.5815 69.6912 89.056 67.5892 89.1217 65.4215C89.1874 63.9107 89.5158 62.2685 90.107 60.8891C90.5668 59.8381 90.961 59.0499 91.5521 58.1303C91.7492 57.8018 91.9463 57.5391 92.209 57.2763C93.7855 55.043 95.4277 52.7439 97.0699 50.5762C97.464 49.985 97.8581 49.4595 98.2522 48.8684L99.5003 47.2262C99.8287 46.7007 100.354 45.9781 100.683 45.5183C100.88 45.1899 101.208 44.9271 101.602 44.9928C101.865 44.9928 102.062 45.2556 102.259 45.4526C102.653 45.8468 102.982 46.2409 103.376 46.635C104.624 47.8831 105.412 49.7223 105.478 51.7586C105.544 53.6635 104.952 55.5028 103.836 57.0136C103.573 57.4077 103.442 57.5391 103.179 57.8675C102.982 58.1303 102.719 58.393 102.522 58.6557C102.259 58.9185 101.996 59.1156 101.734 59.3783C100.88 60.2322 99.5003 61.2175 98.515 62.0715C97.8581 62.597 96.8071 63.5823 96.2159 64.1735L95.6904 64.7647C95.6247 64.8303 95.6247 64.896 95.5591 64.9617L95.0336 65.5529C94.7708 65.947 94.5738 66.1441 94.2453 66.6039C91.9463 69.8883 91.8149 72.253 91.6835 72.5157ZM100.617 74.7491C98.8434 75.1432 97.1356 75.1432 95.5591 74.6834H95.4277C95.2306 74.552 95.4277 72.9756 95.4277 72.7785C95.6904 71.0049 96.3473 69.5598 97.3983 68.1147C97.464 67.9833 97.5297 67.9176 97.5954 67.7863C97.7924 67.5235 98.3836 66.801 98.6464 66.5382C98.7777 66.4725 98.8434 66.3411 98.9748 66.2755C99.566 65.5529 100.617 64.699 101.405 64.1078C102.522 63.1225 103.442 62.5313 104.493 61.4146C105.412 60.5607 105.872 60.0352 106.66 58.9842C107.251 58.1303 107.843 57.2106 108.302 56.1596C108.631 55.3714 108.894 54.5175 109.091 53.7292C109.156 53.4008 109.222 53.138 109.288 52.8096C109.353 52.8096 110.207 53.7292 110.273 53.7949C111.258 54.8459 111.981 56.2253 112.375 57.7361C112.703 59.0499 112.769 60.2322 112.572 61.743C112.441 63.0568 112.047 64.3048 111.587 65.4872C110.667 67.7206 109.025 69.8226 107.448 71.202C105.675 72.7785 103.376 74.1579 100.617 74.7491Z" fill="#FFD731" stroke="black" stroke-width="1.1353" stroke-linecap="round" stroke-linejoin="round"/>
<defs>
<linearGradient id="paint0_linear_6050_3431" x1="101.589" y1="74.0047" x2="145.36" y2="52.0117" gradientUnits="userSpaceOnUse">
<stop stop-color="#4B9D54"/>
<stop offset="1" stop-color="#FFD731"/>
</linearGradient>
</defs>
</svg>
