<svg width="237" height="237" viewBox="0 0 237 237" fill="none" xmlns="http://www.w3.org/2000/svg">
<path fill-rule="evenodd" clip-rule="evenodd" d="M161.922 134.713C163.655 139.686 165.463 144.282 166.368 149.33C167.347 157.994 165.689 164.474 161.545 172.009C152.429 186.776 136.832 195.441 117.996 196.27C101.27 196.27 86.5021 189.941 79.0429 175.022L78.2895 173.365L75.125 164.097L75.8784 165.755C83.7143 181.351 99.6874 187.605 117.017 186.851C130.579 185.721 141.127 181.05 150.545 172.536C157.025 166.132 160.792 160.104 162.826 151.289C163.73 146.542 163.73 143.152 162.902 138.254L162.45 136.446L161.922 134.713Z" fill="url(#paint0_linear_6036_1858)" stroke="black" stroke-width="1.25951" stroke-linejoin="bevel"/>
<path fill-rule="evenodd" clip-rule="evenodd" d="M112.421 196.043C98.4065 194.612 85.5226 187.982 79.0429 175.022L78.2895 173.365L75.125 164.097L75.8784 165.755C82.5088 178.94 94.9407 185.495 109.105 186.701L112.421 196.043Z" fill="black" stroke="black" stroke-width="1.30222" stroke-linejoin="bevel"/>
<path fill-rule="evenodd" clip-rule="evenodd" d="M132.839 111.13C156.497 115.877 169.155 136.446 161.093 157.09C153.031 177.81 127.339 190.694 103.68 185.947C79.9468 181.201 67.2889 160.632 75.3508 139.987C83.4127 119.267 109.181 106.383 132.839 111.13Z" fill="#FFD731" stroke="black" stroke-width="1.30222"/>
<path fill-rule="evenodd" clip-rule="evenodd" d="M131.785 113.842C153.711 118.288 165.389 137.35 157.93 156.488C150.471 175.625 126.662 187.605 104.736 183.235C82.8111 178.79 71.0574 159.727 78.5165 140.59C85.9756 121.452 109.86 109.472 131.785 113.842Z" fill="#FFD731" stroke="black" stroke-width="1.30222"/>
<path fill-rule="evenodd" clip-rule="evenodd" d="M172.468 136.37C172.091 141.645 171.94 146.542 170.81 151.59C168.324 159.953 164.18 165.227 157.399 170.502C143.234 180.447 125.453 182.255 107.822 175.625C92.4517 169.07 81.376 157.467 80.3965 140.816V138.932L81.1499 129.137V131.021C82.2048 148.501 94.4106 160.481 110.685 166.584C123.569 170.878 135.097 170.728 147.152 166.659C155.591 163.269 161.392 159.2 166.742 151.967C169.454 147.898 170.81 144.809 171.94 139.987L172.242 138.179L172.468 136.37Z" fill="url(#paint1_linear_6036_1858)" stroke="black" stroke-width="1.25951" stroke-linejoin="bevel"/>
<path fill-rule="evenodd" clip-rule="evenodd" d="M102.774 173.214C90.4927 166.358 81.2253 155.207 80.3965 140.816V138.932L81.1499 129.137V131.021C82.0541 145.789 90.8694 156.638 103.452 163.344L102.774 173.214Z" fill="black" stroke="black" stroke-width="1.30222" stroke-linejoin="bevel"/>
<path fill-rule="evenodd" clip-rule="evenodd" d="M154.988 103.219C174.88 116.856 178.421 140.816 162.9 156.638C147.303 172.461 118.597 174.194 98.7059 160.556C78.8149 146.843 75.2737 122.959 90.7947 107.061C106.391 91.2389 135.097 89.506 154.988 103.219Z" fill="#FFD731" stroke="black" stroke-width="1.30222"/>
<path fill-rule="evenodd" clip-rule="evenodd" d="M152.954 105.328C171.338 117.986 174.653 140.138 160.187 154.83C145.796 169.447 119.199 171.104 100.74 158.446C82.3557 145.713 79.0406 123.562 93.5068 108.945C107.898 94.2527 134.494 92.6705 152.954 105.328Z" fill="#FFD731" stroke="black" stroke-width="1.30222"/>
<path fill-rule="evenodd" clip-rule="evenodd" d="M145.873 157.768C145.345 159.2 149.112 160.481 149.941 162.214C150.695 163.796 149.112 167.262 150.469 167.714C151.9 168.241 152.88 164.625 154.462 163.871C156.195 163.043 159.887 164.474 160.414 163.118C160.942 161.686 157.099 160.406 156.346 158.673C155.592 157.09 157.174 153.624 155.743 153.172C154.387 152.645 153.407 156.262 151.825 157.015C150.092 157.844 146.325 156.412 145.873 157.768Z" fill="white" stroke="black" stroke-width="1.30222"/>
<path fill-rule="evenodd" clip-rule="evenodd" d="M111.36 145.487L110.305 144.734L110.079 144.583C110.004 144.508 109.929 144.432 109.853 144.357C108.045 142.85 106.312 140.665 105.559 138.631C105.333 138.103 105.182 137.651 105.031 137.124C104.956 136.898 104.881 136.597 104.805 136.371C104.73 136.069 104.655 135.843 104.655 135.617C104.655 135.466 104.579 135.316 104.579 135.24C104.579 134.788 104.504 134.562 104.504 134.035C104.504 133.432 104.504 133.055 104.579 132.453C104.73 130.569 105.483 128.309 106.915 126.199C109.627 122.356 114.148 119.644 119.422 118.664C119.799 118.589 120.1 118.514 120.402 118.438C122.662 118.137 124.922 117.911 127.258 117.685L140.895 116.178C142.026 116.027 143.306 115.877 144.361 115.801C144.663 115.801 144.738 115.877 144.889 115.877L144.964 116.027C145.039 116.027 145.115 116.103 145.115 116.178C145.115 116.253 145.19 116.329 145.115 116.404L145.039 117.534C145.039 117.836 145.039 118.062 145.039 118.363L144.437 126.952C144.361 127.48 144.361 128.007 144.361 128.535L144.286 129.665C144.211 129.816 144.211 129.966 144.211 130.042C144.211 130.569 144.135 131.096 144.135 131.624C144.06 132.679 143.985 133.733 143.909 134.788C143.759 136.823 143.156 138.782 141.724 141.042C140.293 143.302 137.806 145.412 135.094 146.843C133.888 147.446 132.457 148.049 131.251 148.35C130.573 148.576 129.97 148.727 129.292 148.878C128.614 148.953 127.936 149.104 127.333 149.179C127.183 149.179 127.032 149.179 126.806 149.179C126.279 149.254 125.977 149.254 125.374 149.33C123.792 149.405 121.984 149.254 120.402 149.028C119.422 148.878 118.367 148.652 117.388 148.35C115.58 147.823 113.922 147.069 112.34 146.09C112.189 146.015 111.436 145.563 111.36 145.487ZM109.326 132.98C109.251 132.679 109.477 131.473 109.627 131.172C110.079 129.062 111.436 127.028 113.319 125.37C114.675 124.24 116.408 123.336 117.991 122.733C119.196 122.281 120.176 122.055 121.456 121.829C121.833 121.829 122.285 121.754 122.662 121.678C125.826 121.377 128.991 121 132.08 120.699C132.909 120.623 133.662 120.473 134.491 120.397L136.827 120.171C137.505 120.096 138.56 120.021 139.163 119.87C139.615 119.87 140.067 119.87 140.293 120.247C140.519 120.548 140.443 120.849 140.443 121.226C140.368 121.829 140.368 122.432 140.293 123.034C140.217 124.993 139.238 127.103 137.58 128.761C135.998 130.343 133.964 131.172 131.779 131.398C131.327 131.473 131.101 131.473 130.649 131.548C130.196 131.548 129.82 131.548 129.443 131.548C128.991 131.548 128.69 131.473 128.238 131.473C126.881 131.398 124.922 130.946 123.491 130.795C122.511 130.644 120.854 130.494 119.874 130.494H118.97C118.895 130.494 118.819 130.494 118.669 130.494L117.84 130.569C117.237 130.569 116.936 130.569 116.333 130.644C111.737 131.247 109.627 132.905 109.326 132.98ZM114.299 142.398C112.566 141.117 111.285 139.686 110.456 138.028L110.381 137.877C110.305 137.651 111.737 136.597 112.038 136.446C113.696 135.24 115.354 134.713 117.463 134.487C117.614 134.487 117.765 134.487 117.915 134.412C118.292 134.412 119.347 134.412 119.724 134.412C119.874 134.412 120.025 134.412 120.251 134.412C121.306 134.412 122.813 134.638 123.943 134.788C125.6 135.09 126.881 135.316 128.614 135.391C130.046 135.466 130.875 135.466 132.306 135.316C133.512 135.24 134.717 134.939 135.998 134.562C136.902 134.261 137.882 133.884 138.71 133.357C139.012 133.206 139.313 132.98 139.615 132.829C139.615 132.905 139.539 134.261 139.539 134.412C139.389 136.069 138.861 137.727 137.806 139.234C136.978 140.514 135.923 141.494 134.566 142.473C133.361 143.378 132.005 144.056 130.649 144.508C128.011 145.487 124.998 145.713 122.587 145.412C119.799 145.111 116.936 144.282 114.299 142.398Z" fill="#FFD731" stroke="black" stroke-width="1.30222" stroke-linecap="round" stroke-linejoin="round"/>
<path fill-rule="evenodd" clip-rule="evenodd" d="M111.359 144.508L110.38 143.83L110.154 143.604C110.079 143.528 110.003 143.453 109.928 143.453C108.12 141.946 106.387 139.686 105.558 137.727C105.407 137.199 105.181 136.747 105.03 136.22C104.955 135.918 104.88 135.692 104.88 135.466C104.804 135.165 104.729 134.939 104.729 134.638C104.654 134.562 104.654 134.412 104.654 134.261C104.578 133.884 104.578 133.583 104.578 133.131C104.503 132.453 104.578 132.151 104.578 131.548C104.729 129.665 105.483 127.329 106.914 125.22C109.627 121.377 114.147 118.74 119.497 117.685C119.798 117.61 120.099 117.61 120.476 117.534C122.737 117.233 124.997 117.007 127.257 116.781L140.97 115.274C142.1 115.123 143.306 114.973 144.36 114.897C144.662 114.822 144.737 114.897 144.888 114.973L145.039 115.048C145.039 115.123 145.114 115.199 145.189 115.274C145.189 115.349 145.189 115.349 145.189 115.425L145.114 116.63C145.114 116.856 145.039 117.158 145.039 117.384L144.436 126.048C144.436 126.5 144.36 127.028 144.36 127.555L144.285 128.761C144.285 128.836 144.285 128.987 144.285 129.137C144.21 129.665 144.21 130.192 144.134 130.72C144.059 131.699 144.059 132.829 143.908 133.809C143.758 135.843 143.23 137.877 141.723 140.138C140.292 142.398 137.805 144.508 135.168 145.864C133.888 146.542 132.531 147.07 131.25 147.446C130.572 147.597 129.97 147.748 129.291 147.898C128.689 148.049 128.011 148.124 127.333 148.2C127.182 148.275 127.031 148.275 126.88 148.275C126.278 148.35 125.976 148.35 125.374 148.35C123.791 148.426 122.058 148.35 120.401 148.049C119.421 147.898 118.367 147.672 117.462 147.371C115.579 146.843 113.997 146.165 112.414 145.186C112.188 145.111 111.51 144.583 111.359 144.508ZM109.325 132.076C109.325 131.775 109.551 130.494 109.627 130.192C110.154 128.158 111.435 126.048 113.394 124.466C114.75 123.336 116.408 122.356 117.99 121.829C119.271 121.377 120.175 121.151 121.531 120.925C121.908 120.85 122.284 120.85 122.661 120.774C125.826 120.473 128.99 120.096 132.155 119.719C132.908 119.644 133.737 119.569 134.49 119.493L136.826 119.192C137.504 119.117 138.559 119.041 139.237 118.966C139.689 118.891 140.066 118.966 140.367 119.343C140.593 119.569 140.518 119.87 140.443 120.247C140.443 120.85 140.367 121.528 140.367 122.13C140.216 124.089 139.312 126.199 137.579 127.857C136.073 129.439 134.038 130.268 131.853 130.494C131.326 130.569 131.175 130.569 130.648 130.569C130.271 130.644 129.894 130.644 129.442 130.644C129.065 130.569 128.689 130.569 128.237 130.569C126.88 130.418 124.997 130.042 123.49 129.816C122.51 129.74 120.853 129.59 119.949 129.59H119.045C118.894 129.59 118.819 129.59 118.743 129.59H117.839C117.312 129.665 116.935 129.665 116.332 129.74C111.812 130.268 109.702 132.001 109.325 132.076ZM114.298 141.419C112.64 140.213 111.284 138.706 110.455 137.049L110.38 136.973C110.305 136.747 111.812 135.617 112.038 135.466C113.695 134.336 115.428 133.809 117.462 133.583C117.613 133.507 117.764 133.507 117.914 133.507C118.291 133.507 119.346 133.432 119.798 133.432C119.949 133.432 120.099 133.432 120.25 133.432C121.305 133.507 122.887 133.658 123.942 133.884C125.675 134.11 126.88 134.412 128.689 134.487C130.12 134.562 130.874 134.562 132.381 134.412C133.511 134.261 134.792 134.035 135.997 133.658C136.977 133.357 137.881 132.905 138.71 132.453C139.086 132.227 139.312 132.076 139.614 131.85C139.689 131.925 139.538 133.357 139.538 133.507C139.463 135.09 138.86 136.823 137.805 138.33C136.977 139.535 135.997 140.59 134.641 141.569C133.435 142.473 132.004 143.076 130.648 143.604C128.011 144.508 124.997 144.734 122.586 144.508C119.873 144.206 116.935 143.302 114.298 141.419Z" fill="#FFD731" stroke="black" stroke-width="1.30222" stroke-linecap="round" stroke-linejoin="round"/>
<path fill-rule="evenodd" clip-rule="evenodd" d="M138.711 51.3063C142.253 55.1489 145.869 58.5394 148.808 62.7587C153.328 70.2178 154.534 76.8482 153.856 85.4375C151.746 102.616 141.122 117.007 124.321 125.596C109.176 132.528 93.1278 132.98 80.0931 122.507L78.7369 121.302L72.0312 114.144L73.3875 115.349C87.0249 126.35 104.053 125.37 119.574 117.459C131.403 110.753 139.013 102.164 144.061 90.4102C147.301 81.8963 148.205 74.8892 146.397 66.0739C145.191 61.3271 143.835 58.238 140.972 54.1694L139.917 52.6625L138.711 51.3063Z" fill="url(#paint2_linear_6036_1858)" stroke="black" stroke-width="1.25951" stroke-linejoin="bevel"/>
<path fill-rule="evenodd" clip-rule="evenodd" d="M119.197 127.781C105.861 132.227 91.3949 131.549 80.0931 122.507L78.7369 121.302L72.0312 114.144L73.3875 115.349C84.9152 124.617 98.9293 125.37 112.341 120.548L119.197 127.781Z" fill="black" stroke="black" stroke-width="1.30222" stroke-linejoin="bevel"/>
<path fill-rule="evenodd" clip-rule="evenodd" d="M102.396 41.9635C125.904 36.4633 145.945 49.8747 147.226 72.0261C148.582 94.1774 130.575 116.63 107.067 122.206C83.5599 127.781 63.4428 114.294 62.162 92.1431C60.8811 69.9917 78.8885 47.539 102.396 41.9635Z" fill="#FFD731" stroke="black" stroke-width="1.30222"/>
<path fill-rule="evenodd" clip-rule="evenodd" d="M102.547 44.9774C124.322 39.7786 142.932 52.2859 144.138 72.7797C145.343 93.2734 128.617 114.144 106.842 119.267C85.0675 124.391 66.4573 111.959 65.3272 91.3898C64.1216 70.896 80.7728 50.1009 102.547 44.9774Z" fill="#FFD731" stroke="black" stroke-width="1.30222"/>
<path fill-rule="evenodd" clip-rule="evenodd" d="M46.6414 99.753C47.9223 102.239 54.5526 98.6228 58.0185 99.6776C61.1076 100.657 63.8954 107.137 66.3818 105.856C68.8682 104.575 65.0256 98.5474 66.0051 95.383C67.0599 91.9925 73.7656 88.5266 72.4847 86.1156C71.1285 83.6292 64.4982 87.2457 61.1076 86.1909C57.9432 85.2114 55.1554 78.7318 52.7444 80.0126C50.258 81.2935 54.1006 87.2457 53.1211 90.4102C52.0663 93.8761 45.2852 97.2666 46.6414 99.753Z" fill="white" stroke="black" stroke-width="1.30222"/>
<path fill-rule="evenodd" clip-rule="evenodd" d="M136.676 85.4375C137.354 86.7183 140.895 84.8347 142.703 85.3621C144.361 85.8895 145.868 89.3554 147.149 88.6773C148.43 87.9992 146.395 84.8347 146.923 83.1018C147.525 81.2935 151.067 79.4852 150.389 78.2044C149.71 76.8481 146.169 78.8071 144.361 78.2797C142.703 77.7523 141.196 74.2864 139.916 74.9645C138.559 75.6426 140.594 78.8071 140.066 80.4647C139.539 82.273 135.998 84.1566 136.676 85.4375Z" fill="white" stroke="black" stroke-width="1.30222"/>
<path fill-rule="evenodd" clip-rule="evenodd" d="M104.354 102.767L103.148 102.993H102.847C102.771 103.068 102.696 103.068 102.545 103.068C100.21 103.37 97.4219 103.219 95.4629 102.465C94.9355 102.239 94.4081 102.089 93.956 101.787C93.6546 101.712 93.4286 101.561 93.2025 101.486C92.9765 101.335 92.7505 101.185 92.5998 101.034C92.4491 100.958 92.3738 100.883 92.2231 100.808C91.9217 100.582 91.6957 100.431 91.3189 100.13C90.8669 99.6776 90.6408 99.4516 90.1888 98.9995C88.9079 97.6433 87.7024 95.5337 87.0996 93.0473C86.0448 88.5266 87.0996 83.3278 89.9627 78.7318C90.1134 78.4304 90.2641 78.129 90.4901 77.903C91.771 76.0194 93.1272 74.1357 94.4834 72.3275L102.545 61.1011C103.148 60.2723 103.902 59.2175 104.58 58.3133C104.73 58.0873 104.806 58.0873 104.956 58.012H105.107C105.182 58.012 105.258 58.012 105.333 58.012C105.408 58.0873 105.484 58.0873 105.484 58.1627L106.313 58.9914C106.539 59.2175 106.689 59.3682 106.915 59.5189L112.868 65.7725C113.244 66.1492 113.621 66.5259 113.922 66.9026L114.751 67.7314C114.827 67.8068 114.977 67.8821 115.053 68.0328C115.429 68.4095 115.731 68.7863 116.107 69.163C116.861 69.9164 117.614 70.6699 118.292 71.4233C119.724 72.8549 120.779 74.6632 121.532 77.2249C122.21 79.862 122.135 83.1018 121.306 86.0402C121.005 87.3964 120.477 88.7526 119.875 89.9582C119.573 90.5609 119.272 91.1637 118.895 91.6911C118.594 92.2938 118.217 92.8213 117.84 93.3487C117.765 93.4994 117.69 93.5747 117.539 93.7254C117.238 94.1775 117.012 94.4788 116.635 94.9309C115.655 96.1364 114.374 97.4173 113.094 98.3968C112.265 98.9995 111.436 99.6023 110.532 100.13C108.95 101.185 107.292 101.863 105.559 102.39C105.333 102.465 104.504 102.691 104.354 102.767ZM93.8053 95.835C93.5039 95.6844 92.7505 94.6295 92.5998 94.4035C91.3943 92.5952 90.7162 90.2595 90.8669 87.7732C90.8669 86.0402 91.3189 84.0813 91.997 82.5744C92.5244 81.3688 92.9765 80.4647 93.6546 79.3345C93.8807 79.0332 94.1067 78.7318 94.3327 78.3551C96.2163 75.8687 98.1 73.2316 99.9082 70.6699C100.436 70.0671 100.888 69.389 101.34 68.7863L102.696 66.8273C103.148 66.2999 103.751 65.4711 104.128 64.9437C104.354 64.567 104.73 64.2656 105.182 64.3409C105.484 64.3409 105.634 64.6423 105.936 64.8683C106.313 65.3204 106.765 65.7725 107.217 66.2245C108.573 67.5808 109.477 69.6904 109.628 72.1014C109.703 74.2864 109.025 76.3207 107.744 78.129C107.443 78.5811 107.292 78.6564 106.991 79.1085C106.765 79.4099 106.463 79.6359 106.237 79.9373C105.936 80.2387 105.634 80.5401 105.333 80.8414C104.354 81.7456 102.771 82.9511 101.641 83.8552C100.888 84.5333 99.6822 85.6635 99.0041 86.3416L98.4013 87.0197C98.326 87.0951 98.326 87.1704 98.2506 87.2457L97.6479 87.9238C97.2712 88.3759 97.1205 88.6019 96.7438 89.1294C94.1067 92.8213 93.956 95.5337 93.8053 95.835ZM104.052 98.4721C101.943 98.9242 100.059 98.8488 98.2506 98.3968L98.1 98.3214C97.8739 98.2461 98.1 96.4378 98.1 96.1364C98.4013 94.1021 99.0794 92.5199 100.36 90.8623C100.436 90.7116 100.511 90.5609 100.586 90.4856C100.812 90.1842 101.49 89.3554 101.792 89.054C101.943 88.9033 102.018 88.828 102.093 88.6773C102.847 87.9238 104.052 86.869 104.881 86.1909C106.237 85.1361 107.292 84.3826 108.498 83.1771C109.477 82.1223 110.08 81.5195 110.984 80.3894C111.662 79.4099 112.265 78.3551 112.868 77.1495C113.244 76.2454 113.546 75.2659 113.772 74.2864C113.847 73.9851 113.922 73.6083 113.998 73.307C114.073 73.307 114.977 74.3618 115.053 74.4371C116.258 75.5673 117.087 77.1495 117.539 78.9578C117.916 80.3894 117.916 81.8209 117.765 83.4785C117.614 84.9854 117.162 86.4923 116.635 87.7732C115.58 90.4102 113.696 92.7459 111.888 94.4035C109.778 96.2118 107.217 97.794 104.052 98.4721Z" fill="#FFD731" stroke="black" stroke-width="1.30222" stroke-linecap="round" stroke-linejoin="round"/>
<path fill-rule="evenodd" clip-rule="evenodd" d="M103.678 102.089L102.472 102.315L102.171 102.39C102.096 102.39 102.02 102.39 101.945 102.39C99.5338 102.767 96.7461 102.541 94.7871 101.787C94.2597 101.561 93.7323 101.411 93.2802 101.185C93.0542 101.034 92.8281 100.958 92.6021 100.808C92.3761 100.657 92.0747 100.506 91.924 100.356C91.7733 100.28 91.698 100.28 91.5473 100.205C91.2459 99.9037 91.0199 99.8283 90.6431 99.4516C90.1911 99.0749 89.965 98.8488 89.513 98.3968C88.2321 96.9652 87.0266 94.9309 86.4238 92.3692C85.369 87.8485 86.4238 82.6497 89.2869 78.0537C89.4376 77.7523 89.5883 77.5263 89.8144 77.2249C91.0952 75.3413 92.4514 73.4576 93.8076 71.6494L101.87 60.4983C102.548 59.5942 103.226 58.5394 103.904 57.7106C104.055 57.4846 104.205 57.4846 104.281 57.4092L104.431 57.3339C104.507 57.3339 104.582 57.3339 104.657 57.4092C104.733 57.4092 104.808 57.4092 104.883 57.4846L105.637 58.3133C105.863 58.5394 106.013 58.6901 106.24 58.9161L112.192 65.0944C112.568 65.4711 112.945 65.8478 113.247 66.2245L114.075 67.0533C114.226 67.204 114.301 67.2794 114.377 67.3547C114.753 67.7314 115.13 68.1082 115.432 68.4849C116.185 69.2383 116.938 69.9918 117.617 70.7452C119.048 72.2521 120.178 73.9851 120.856 76.6221C121.535 79.1839 121.459 82.4237 120.63 85.3621C120.329 86.7183 119.802 88.0745 119.199 89.2801C118.897 89.8828 118.596 90.4856 118.219 91.013C117.918 91.6157 117.541 92.2185 117.165 92.6706C117.089 92.8213 117.014 92.9719 116.863 93.1226C116.562 93.5747 116.336 93.8007 115.959 94.2528C114.98 95.4583 113.699 96.7392 112.418 97.7187C111.664 98.3968 110.76 98.9995 109.931 99.5269C108.274 100.506 106.616 101.26 104.883 101.787C104.657 101.863 103.828 102.013 103.678 102.089ZM93.1295 95.2323C92.8281 95.0063 92.0747 94.0268 91.924 93.7254C90.7185 91.9925 90.1157 89.5814 90.1911 87.0951C90.2664 85.3621 90.6431 83.4785 91.3212 81.8963C91.8487 80.6907 92.3007 79.7866 92.9788 78.7318C93.2049 78.3551 93.4309 78.0537 93.7323 77.7523C95.5406 75.1906 97.4242 72.5535 99.3078 70.0671C99.7599 69.389 100.212 68.7863 100.664 68.1082L102.096 66.2245C102.472 65.6218 103.075 64.793 103.452 64.2656C103.678 63.8889 104.055 63.5875 104.507 63.6628C104.808 63.6628 105.034 63.9642 105.26 64.1902C105.712 64.6423 106.089 65.0944 106.541 65.5464C107.972 66.978 108.877 69.0877 108.952 71.4233C109.027 73.6083 108.349 75.718 107.068 77.4509C106.767 77.903 106.616 78.0537 106.315 78.4304C106.089 78.7318 105.787 79.0332 105.561 79.3345C105.26 79.6359 104.959 79.862 104.657 80.1633C103.678 81.1428 102.096 82.273 100.965 83.2525C100.212 83.8552 99.0064 84.9854 98.3283 85.6635L97.7256 86.3416C97.6502 86.417 97.6502 86.4923 97.5749 86.5676L96.9721 87.2457C96.6707 87.6978 96.4447 87.9238 96.068 88.4513C93.4309 92.2185 93.2802 94.9309 93.1295 95.2323ZM103.376 97.794C101.342 98.2461 99.3831 98.2461 97.5749 97.7187H97.4242C97.1981 97.568 97.4242 95.7597 97.4242 95.5337C97.7256 93.4994 98.479 91.8418 99.6845 90.1842C99.7599 90.0335 99.8352 89.9582 99.9106 89.8075C100.137 89.5061 100.815 88.6773 101.116 88.3759C101.267 88.3006 101.342 88.1499 101.493 88.0745C102.171 87.2457 103.376 86.2663 104.281 85.5882C105.561 84.458 106.616 83.7799 107.822 82.499C108.877 81.5195 109.404 80.9168 110.308 79.7113C110.986 78.7318 111.664 77.677 112.192 76.4714C112.568 75.5673 112.87 74.5878 113.096 73.6837C113.171 73.307 113.247 73.0056 113.322 72.6289C113.397 72.6289 114.377 73.6837 114.452 73.759C115.582 74.9645 116.411 76.5468 116.863 78.2797C117.24 79.7866 117.315 81.1428 117.089 82.8757C116.938 84.3826 116.486 85.8142 115.959 87.1704C114.904 89.7321 113.021 92.1432 111.212 93.7254C109.178 95.5337 106.541 97.1159 103.376 97.794Z" fill="#FFD731" stroke="black" stroke-width="1.30222" stroke-linecap="round" stroke-linejoin="round"/>
<defs>
<linearGradient id="paint0_linear_6036_1858" x1="111.351" y1="170.132" x2="157.461" y2="136.818" gradientUnits="userSpaceOnUse">
<stop stop-color="#4B9D54"/>
<stop offset="1" stop-color="#FFD731"/>
</linearGradient>
<linearGradient id="paint1_linear_6036_1858" x1="116.842" y1="158.144" x2="156.336" y2="123.092" gradientUnits="userSpaceOnUse">
<stop stop-color="#4B9D54"/>
<stop offset="1" stop-color="#FFD731"/>
</linearGradient>
<linearGradient id="paint2_linear_6036_1858" x1="104.49" y1="96.94" x2="154.696" y2="71.7135" gradientUnits="userSpaceOnUse">
<stop stop-color="#4B9D54"/>
<stop offset="1" stop-color="#FFD731"/>
</linearGradient>
</defs>
</svg>
