<svg width="4000" height="732" viewBox="0 0 4000 732" fill="none" xmlns="http://www.w3.org/2000/svg">
<path d="M3982.06 109.8H3879.65C3871.57 109.8 3865.01 116.359 3865.01 124.442V680.758C3865.01 688.841 3871.57 695.4 3879.65 695.4H3982.06C3990.14 695.4 3996.7 688.841 3996.7 680.758V124.442C3996.7 116.359 3990.14 109.8 3982.06 109.8Z" fill="white"/>
<path d="M3733.3 124.442V152.848C3733.3 157.238 3732.26 160.75 3730.22 164.133L3422.2 681.146C3416.86 690.003 3407.36 695.426 3397.04 695.426H3279.39C3269.07 695.426 3259.49 690.003 3254.23 681.146L2946.21 164.133C2944.22 160.698 2943.14 156.825 2943.14 152.848V124.442C2943.14 116.359 2949.69 109.8 2957.77 109.8H3048.13C3059.54 109.8 3068.03 115.223 3073.3 124.08L3338.29 568.839L3603.13 124.08C3608.48 115.223 3617.25 109.8 3628.3 109.8H3718.66C3726.74 109.8 3733.3 116.359 3733.3 124.442Z" fill="white"/>
<path d="M2540.39 109.8C2530.07 109.8 2520.57 115.223 2515.23 124.08L2207.26 641.093C2205.22 644.45 2204.19 648.401 2204.19 652.378V680.784C2204.19 688.867 2210.74 695.426 2218.82 695.426H2309.16C2319.48 695.426 2328.98 690.003 2334.32 681.145L2395.85 577.929H2802.7L2864.23 681.145C2869.5 690.003 2879.08 695.426 2889.4 695.426H2979.74C2987.81 695.426 2994.37 688.867 2994.37 680.784V652.378C2994.37 648.427 2993.26 644.554 2991.3 641.093L2683.33 124.08C2678.06 115.223 2668.46 109.8 2658.16 109.8H2540.39ZM2465.77 460.432L2599.19 236.439L2732.63 460.432H2465.77Z" fill="white"/>
<path d="M2079.81 109.8H1977.96C1969.88 109.8 1963.33 116.359 1963.33 124.442V525.3L1554.8 122.479C1553.25 120.956 1551.6 119.561 1549.84 118.296C1542.39 112.796 1533.33 109.8 1523.93 109.8H1406.7C1398.62 109.8 1392.09 116.359 1392.09 124.442V680.784C1392.09 688.867 1398.62 695.4 1406.7 695.4H1508.55C1516.63 695.4 1523.18 688.867 1523.18 680.784V279.925L1931.73 682.746C1933.28 684.27 1934.93 685.665 1936.66 686.93C1944.15 692.404 1953.21 695.4 1962.6 695.4H2079.81C2087.89 695.4 2094.44 688.867 2094.44 680.784V124.442C2094.44 116.359 2087.89 109.8 2079.81 109.8Z" fill="white"/>
<path d="M1099.44 469.066V710.04C1099.44 722.191 1089.64 732 1077.49 732H931.898C922.826 732 914.046 729.218 906.657 724.021L424.88 384.593C407.834 371.71 367.814 375.37 367.814 414.678V710.04C367.814 722.191 358.01 732 345.865 732H23.9488C11.8038 732 2 722.191 2 710.04V387.96C2 375.809 11.8038 366 23.9488 366H221.488C267.434 366 294.651 336.427 294.651 292.8V36.6001C294.651 24.4489 304.455 14.6401 316.6 14.6401H461.901C472.436 14.6401 480.045 17.4949 487.508 22.9117L1087 445.129C1096.08 451.498 1099.44 458.671 1099.44 469.066Z" fill="white"/>
<path d="M1099.44 21.96V336.574C1099.44 349.457 1087 356.045 1076.39 348.578L746.211 115.949C738.309 110.459 733.627 104.31 733.627 91.866V21.96C733.627 9.8088 743.431 0 755.576 0H1077.49C1089.64 0 1099.44 9.8088 1099.44 21.96Z" fill="white"/>
</svg>
