<svg width="237" height="237" viewBox="0 0 237 237" fill="none" xmlns="http://www.w3.org/2000/svg">
<path fill-rule="evenodd" clip-rule="evenodd" d="M153.24 175.467C153.624 175.563 153.912 175.659 154.008 175.659C171.96 161.835 169.08 136.202 171.48 130.154C172.536 127.658 173.688 125.738 175.032 124.106C176.088 122.762 184.536 109.994 184.728 109.994C187.704 109.898 190.488 105.002 191.832 101.354C193.368 97.0344 195.384 93.8663 193.176 89.6423C193.752 86.6663 193.56 84.0743 192.696 80.3303C192.6 79.6583 188.376 66.9863 188.088 66.3143C184.92 57.7703 178.488 62.8583 164.472 63.5303C162.456 63.6263 160.92 63.8183 159.384 64.2023C157.176 63.3383 155.064 62.7623 153.144 62.3783C151.32 61.9943 146.232 63.9143 142.968 65.9303C139.608 67.8503 136.92 69.5783 138.456 71.8823C138.456 71.9783 138.552 71.9783 138.744 72.0743C137.496 72.4583 136.248 72.8423 135 73.3223L138.552 90.3143L153.24 175.467Z" fill="#98EFE4" stroke="black" stroke-width="1.65922" stroke-linecap="round" stroke-linejoin="round"/>
<path fill-rule="evenodd" clip-rule="evenodd" d="M184.152 110.666C184.536 110.186 184.728 109.994 184.728 109.994C187.704 109.898 190.488 105.002 191.832 101.354C193.368 97.0341 195.384 93.8661 193.176 89.6421C193.752 86.6661 193.56 84.0741 192.696 80.33C192.6 79.658 188.376 66.986 188.088 66.314C185.976 60.554 182.328 60.938 175.8 62.09L184.152 110.666Z" fill="black" stroke="black" stroke-width="1.65922" stroke-linecap="round" stroke-linejoin="round"/>
<path fill-rule="evenodd" clip-rule="evenodd" d="M117.432 85.2263C114.168 89.5463 94.1035 115.946 89.5915 116.714C87.4795 117.002 85.6555 117.674 83.9274 118.634C84.0234 118.442 84.1194 118.25 84.2154 118.058C83.8314 118.442 83.3514 118.922 82.7754 119.402C81.0474 120.554 79.5114 121.994 78.1674 123.626C70.0074 131.594 53.3994 138.218 43.0313 158.762C42.6473 159.626 45.9113 169.995 46.2954 170.667C47.5434 173.259 49.8474 172.971 52.1514 170.667C53.5914 169.131 55.2234 166.731 56.9514 164.811C59.5434 161.834 65.2074 155.306 68.9514 151.658C71.2554 149.45 73.8474 147.05 76.5354 144.746C79.9914 146.186 84.5994 148.202 89.8795 150.314C85.8475 155.69 81.1434 154.826 74.2314 165.771C71.9274 169.323 65.6874 171.051 66.4554 173.067C67.7994 176.139 69.2394 183.915 69.7194 184.395C72.3114 187.371 74.9034 184.299 80.1834 178.827C89.1115 169.515 96.3115 162.314 103.319 155.786C124.44 164.33 148.632 173.931 153.24 175.467L138.552 90.3143L135 73.3223C128.472 75.8183 122.328 79.8503 117.432 85.2263Z" fill="black" stroke="black" stroke-width="1.65922" stroke-linecap="round" stroke-linejoin="round"/>
<path fill-rule="evenodd" clip-rule="evenodd" d="M114.168 73.8971C110.904 78.2171 90.8395 104.617 86.3275 105.289C71.2555 107.593 66.6475 130.249 66.6475 130.249C67.4155 131.689 149.496 164.425 150.744 164.329C168.696 150.409 165.816 125.257 168.216 119.209C171.576 110.665 178.584 105.001 181.944 97.2252C185.688 88.6812 182.04 80.3291 177.912 74.1851C163.416 52.8731 131.736 54.7931 114.168 73.8971Z" fill="#98EFE4" stroke="black" stroke-width="1.65922" stroke-linecap="round" stroke-linejoin="round"/>
<path fill-rule="evenodd" clip-rule="evenodd" d="M184.728 92.4247C189.528 82.2486 191.448 77.5446 189.432 69.0006C187.224 59.5926 176.376 51.4326 161.207 52.2006C154.583 52.4886 151.799 53.9286 144.023 59.0166C144.023 59.0166 147.767 56.8086 154.583 59.9766C161.783 63.2406 171 71.5926 173.208 73.6086C183.096 82.5366 184.728 92.4247 184.728 92.4247Z" fill="black" stroke="black" stroke-width="1.65922" stroke-linecap="round" stroke-linejoin="round"/>
<path fill-rule="evenodd" clip-rule="evenodd" d="M181.751 96.3615C182.135 97.5135 180.983 98.5695 181.463 98.5695C184.439 98.5695 186.935 94.4415 188.183 90.6975C189.623 86.6655 190.967 83.0175 190.487 81.6735C186.167 69.3855 163.991 53.8334 149.879 51.0494C148.055 50.6654 142.967 52.5854 139.703 54.5054C136.343 56.5214 133.655 58.2494 135.191 60.5534C135.383 60.8414 150.455 65.6415 162.071 75.6255C173.975 85.7055 179.927 94.5375 181.751 96.3615Z" fill="black" stroke="black" stroke-width="1.70041" stroke-linecap="round" stroke-linejoin="round"/>
<path fill-rule="evenodd" clip-rule="evenodd" d="M126.359 81.8643C127.223 83.3043 141.239 88.9683 143.831 97.5123C143.927 97.8963 151.319 97.8003 159.192 101.64C162.84 103.464 161.016 96.9363 159.576 95.7843C157.56 94.0563 148.919 93.3843 146.711 91.7523C144.503 90.0243 146.135 91.0803 143.159 90.1203C139.511 88.9683 135.767 86.6643 132.311 84.9363C131.639 84.6483 126.167 81.4803 126.359 81.8643Z" fill="black"/>
<path fill-rule="evenodd" clip-rule="evenodd" d="M175.895 100.681C177.047 101.929 175.607 111.817 172.823 109.801C171.575 109.033 174.359 103.081 172.727 101.545C171.767 100.777 170.807 99.6252 170.231 99.0492C169.559 98.3772 169.271 98.2812 168.023 99.3372C167.063 100.105 162.263 104.521 161.399 103.369C160.151 102.025 152.759 94.9211 152.471 94.8251C152.279 94.8251 157.463 89.6411 158.807 87.1451C158.903 86.9531 160.919 84.3611 160.919 84.5531L175.895 100.681Z" fill="#E9CCFF" stroke="black" stroke-width="1.51181" stroke-linecap="round" stroke-linejoin="round"/>
<path fill-rule="evenodd" clip-rule="evenodd" d="M157.175 81.0012C154.103 79.5612 149.783 77.4492 145.367 75.0491C142.679 73.6091 142.103 73.9931 141.527 74.0891C138.839 74.4731 138.263 74.0891 137.975 73.4171C137.591 72.5531 137.495 71.3051 134.711 69.8651C133.367 69.2891 127.703 65.9291 123.863 64.1051C120.599 62.3771 119.447 62.3771 117.143 64.7771C115.607 66.4091 112.823 69.2891 111.671 71.2091C110.231 73.4171 112.055 74.4731 112.631 74.8571C114.743 76.2971 121.367 80.0412 125.879 82.1532C128.279 83.3052 128.471 82.8252 129.911 82.1532C130.775 81.8652 131.927 82.2492 132.023 83.0172C132.215 83.9772 131.735 85.6092 134.807 86.9532C136.919 87.8172 142.487 91.2732 146.519 93.2892C149.495 94.7292 151.319 95.4972 152.951 94.8252C153.911 94.4412 154.679 93.3852 155.735 92.3292C156.887 91.0812 158.711 89.0652 159.479 88.0092C161.591 85.3212 162.263 83.4972 157.175 81.0012Z" fill="#E9CCFF" stroke="black" stroke-width="1.51181" stroke-linecap="round" stroke-linejoin="round"/>
<path fill-rule="evenodd" clip-rule="evenodd" d="M156.983 83.4977L143.351 76.4896C142.199 75.8176 140.567 76.0096 139.703 76.9696L135.287 82.0576C134.423 83.0177 134.615 84.4577 135.767 85.0337L149.399 92.1377C150.551 92.7137 152.183 92.5217 153.047 91.5617L157.463 86.4737C158.327 85.5137 158.135 84.1697 156.983 83.4977Z" fill="black" stroke="black" stroke-width="0.66671" stroke-linecap="round" stroke-linejoin="round"/>
<path fill-rule="evenodd" clip-rule="evenodd" d="M134.616 71.977L122.424 65.449C121.272 64.873 119.64 65.065 118.776 66.025L114.264 71.113C113.4 72.073 113.592 73.513 114.84 74.089L127.032 80.521C128.184 81.193 129.72 81.001 130.584 80.041L135.096 74.953C135.96 73.993 135.768 72.553 134.616 71.977Z" fill="black" stroke="black" stroke-width="0.66671" stroke-linecap="round" stroke-linejoin="round"/>
<path d="M142.295 77.4492L143.639 87.4332" stroke="white" stroke-width="1.51181" stroke-linecap="round" stroke-linejoin="round"/>
<path d="M128.279 70.0566L129.047 78.6007" stroke="white" stroke-width="1.51181" stroke-linecap="round" stroke-linejoin="round"/>
<path d="M118.104 69.4805L118.392 74.3765" stroke="white" stroke-width="1.51181" stroke-linecap="round" stroke-linejoin="round"/>
<path fill-rule="evenodd" clip-rule="evenodd" d="M133.944 130.249C134.04 130.153 124.631 140.233 108.023 138.217C108.407 137.545 110.999 134.953 111.671 135.049C121.559 136.009 133.56 130.729 133.944 130.249Z" fill="black"/>
<path fill-rule="evenodd" clip-rule="evenodd" d="M80.9512 106.73C75.6712 111.146 56.7591 128.427 43.7991 155.979C41.1111 161.739 45.8151 162.411 48.8871 159.339C50.3271 157.803 51.9591 155.403 53.6871 153.483C56.2791 150.507 61.9431 143.979 65.6872 140.331C71.1592 135.051 77.9752 129.195 83.4472 124.779C83.7352 124.587 84.0232 124.395 84.2152 124.107C84.2152 124.107 84.1192 123.915 83.9272 122.859C83.4472 120.747 83.4472 118.058 83.7352 116.234C83.8312 115.37 89.9752 116.81 88.6312 116.33C83.4472 114.41 79.2232 108.65 80.9512 106.73Z" fill="#F7F7F7" stroke="black" stroke-width="1.66829" stroke-linecap="round" stroke-linejoin="round"/>
<path fill-rule="evenodd" clip-rule="evenodd" d="M98.0393 124.297C100.727 130.441 110.903 137.161 114.071 132.361C101.399 142.729 91.6072 152.233 76.9192 167.497C71.6392 172.873 69.0472 175.945 66.4552 173.065C65.3992 171.817 67.2232 167.689 71.3512 161.161C84.2152 141.193 87.7672 137.737 98.0393 124.297Z" fill="#F7F7F7"/>
<path d="M114.552 133.033L113.496 131.593L114.744 132.841L114.36 133.417L113.88 133.801L113.4 134.185L112.92 134.473L112.344 134.665L111.768 134.857H111.192H110.616H109.944L109.368 134.761L108.696 134.569L108.12 134.377L107.448 134.185L106.776 133.897L106.2 133.609L105.528 133.225L104.856 132.841L104.28 132.457L103.608 131.977L103.032 131.593L102.36 131.113L101.784 130.537L101.208 130.057L100.728 129.481L100.152 128.905L99.6715 128.329L99.1915 127.753L98.7115 127.177L98.3275 126.601L97.9435 125.929L97.5595 125.353L97.2715 124.777L98.8075 123.913L98.9995 124.489L99.2875 124.969L99.6715 125.545L100.056 126.025L100.44 126.601L100.824 127.177L101.304 127.657L101.784 128.137L102.36 128.713L102.84 129.193L103.416 129.673L103.992 130.057L104.568 130.537L105.144 130.921L105.72 131.305L106.296 131.593L106.872 131.977L107.448 132.265L108.024 132.457L108.6 132.649L109.08 132.841L109.656 132.937L110.136 133.033L110.616 133.129H111.096L111.48 133.033L111.864 132.937L112.248 132.841L112.536 132.649L112.824 132.457L113.112 132.169L113.4 131.881L114.552 133.033ZM113.4 131.881C113.592 131.401 114.168 131.305 114.552 131.593C114.84 131.881 114.936 132.457 114.744 132.841L113.4 131.881ZM77.4954 168.073L76.3434 166.825L77.6874 165.385L79.0314 164.041L80.3755 162.697L81.6235 161.353L82.8715 160.009L84.1195 158.761L85.3675 157.513L86.6155 156.361L87.7675 155.113L88.9195 153.961L90.0715 152.809L91.2235 151.753L92.3755 150.601L93.4315 149.545L94.5835 148.489L95.7355 147.433L96.7915 146.377L97.8475 145.321L98.9995 144.265L100.056 143.305L101.112 142.345L102.264 141.289L103.32 140.329L104.472 139.369L105.528 138.409L106.68 137.449L107.736 136.489L108.888 135.529L110.04 134.569L111.192 133.609L112.344 132.649L113.496 131.593L114.552 133.033L113.4 134.089L112.152 135.049L111.096 136.009L109.944 136.873L108.792 137.833L107.64 138.793L106.584 139.753L105.432 140.809L104.376 141.769L103.32 142.729L102.168 143.689L101.112 144.649L100.056 145.705L98.9995 146.665L97.8475 147.721L96.7915 148.777L95.6395 149.833L94.5835 150.889L93.4315 151.945L92.3755 153.001L91.2235 154.153L90.0715 155.305L88.9195 156.457L87.6715 157.609L86.5195 158.857L85.2715 160.105L84.0235 161.353L82.7755 162.601L81.5275 163.945L80.1835 165.289L78.8394 166.729L77.4954 168.073ZM65.8794 173.641L67.1274 172.489L67.3194 172.681L67.5114 172.873L67.7034 172.969L67.7994 173.065L67.9914 173.161L68.1834 173.257H68.2794H68.4714H68.6634H68.8554H69.0474L69.2394 173.161L69.4314 173.065L69.7194 172.969L70.0074 172.777L70.1994 172.681L70.4874 172.489L70.7754 172.201L71.1594 172.009L71.4474 171.721L71.7354 171.433L72.1194 171.049L72.5034 170.761L72.8874 170.377L73.2714 169.993L73.6554 169.609L74.0394 169.129L74.5194 168.745L74.9034 168.265L75.3834 167.785L75.8634 167.305L76.3434 166.825L77.4954 168.073L77.0154 168.649L76.5354 169.129L76.0554 169.609L75.5754 169.993L75.1914 170.473L74.8074 170.953L74.3274 171.337L73.9434 171.721L73.5594 172.105L73.1754 172.489L72.7914 172.777L72.5034 173.065L72.1194 173.449L71.7354 173.641L71.4474 173.929L71.0634 174.217L70.7754 174.409L70.3914 174.601L70.1034 174.697L69.7194 174.889L69.4314 174.985L69.0474 175.081H68.7594H68.3754H68.0874L67.7034 174.985L67.4154 174.889L67.0314 174.697L66.7434 174.505L66.4554 174.217L66.1674 174.025L65.8794 173.641ZM70.6794 160.681L72.0234 161.737L71.6394 162.313L71.2554 162.889L70.9674 163.465L70.5834 164.041L70.2954 164.521L70.0074 165.097L69.7194 165.577L69.4314 166.057L69.1434 166.537L68.8554 167.017L68.6634 167.497L68.4714 167.881L68.1834 168.361L68.0874 168.745L67.8954 169.129L67.7034 169.513L67.6074 169.801L67.4154 170.185L67.3194 170.473L67.2234 170.761L67.1274 171.049V171.337L67.0314 171.529V171.721V171.913V172.105V172.201V172.297V172.393L67.1274 172.489L65.8794 173.641L65.6874 173.449L65.5914 173.161L65.4954 172.969L65.3994 172.681V172.393V172.105V171.817V171.529V171.145L65.4954 170.857L65.5914 170.569L65.6874 170.185L65.7834 169.897L65.8794 169.513L66.0714 169.129L66.1674 168.745L66.3594 168.361L66.5514 167.977L66.7434 167.497L66.9354 167.113L67.2234 166.633L67.4154 166.153L67.7034 165.673L67.9914 165.193L68.2794 164.617L68.5674 164.137L68.8554 163.561L69.2394 162.985L69.5274 162.505L69.9114 161.833L70.2954 161.257L70.6794 160.681ZM98.8075 123.913L97.2715 124.777L98.7115 124.873L97.7515 126.121L96.7915 127.273L95.9275 128.425L95.0635 129.481L94.2955 130.537L93.5275 131.593L92.7595 132.553L91.9915 133.513L91.2235 134.473L90.5515 135.337L89.7835 136.297L89.1115 137.161L88.4395 138.025L87.6715 138.985L86.9995 139.849L86.3275 140.809L85.5595 141.769L84.8875 142.729L84.1195 143.785L83.3515 144.841L82.5835 145.897L81.8155 146.953L81.0475 148.201L80.1835 149.353L79.3194 150.697L78.3594 152.041L77.3994 153.385L76.4394 154.921L75.3834 156.457L74.3274 158.089L73.1754 159.913L72.0234 161.737L70.6794 160.681L71.8314 158.857L72.9834 157.129L74.0394 155.401L75.0954 153.865L76.0554 152.425L77.0154 150.985L77.9754 149.641L78.8394 148.297L79.7035 147.049L80.4715 145.897L81.3355 144.745L82.1035 143.689L82.8715 142.633L83.5435 141.673L84.3115 140.617L84.9835 139.657L85.7515 138.793L86.4235 137.833L87.0955 136.873L87.8635 136.009L88.5355 135.145L89.2075 134.185L89.9755 133.225L90.7435 132.361L91.5115 131.401L92.2795 130.441L93.0475 129.385L93.8155 128.329L94.6795 127.273L95.5435 126.121L96.5035 124.969L97.3675 123.721L98.8075 123.913ZM97.3675 123.721C97.6555 123.337 98.2315 123.337 98.5195 123.625C98.9035 124.009 98.9995 124.489 98.7115 124.873L97.3675 123.721Z" fill="black"/>
<path fill-rule="evenodd" clip-rule="evenodd" d="M127.128 86.4736C112.823 83.3056 97.8474 91.3696 93.8154 104.522C91.1274 112.97 95.7354 111.914 95.8314 118.538C96.0234 125.45 105.719 133.802 112.823 135.338C127.224 138.506 142.296 129.098 146.328 116.042C150.456 102.89 141.528 89.5456 127.128 86.4736Z" fill="#98EFE4"/>
<path fill-rule="evenodd" clip-rule="evenodd" d="M109.559 76.6806C101.207 76.2006 87.9588 81.7686 78.9348 98.5687C75.5748 104.809 76.2468 112.297 85.0788 117.481C88.1508 119.209 91.1269 119.593 92.8549 120.073C107.255 123.529 124.247 116.809 127.991 104.521C131.735 92.2326 118.007 77.1606 109.559 76.6806Z" fill="#98EFE4"/>
<path d="M112.919 77.0646C101.783 75.1446 87.5749 83.5926 81.1429 94.1527C74.9028 104.617 75.7668 114.889 89.7829 119.593C91.7029 120.265 94.3909 120.553 96.5029 120.457" stroke="black" stroke-width="1.65809" stroke-linecap="round" stroke-linejoin="round"/>
<path d="M103.895 102.986C97.5594 109.802 92.9514 117.77 100.151 127.562C107.927 138.026 125.688 139.274 138.264 127.178C147.672 118.346 147.096 106.25 144.216 96.8418" stroke="black" stroke-width="1.65809" stroke-linecap="round" stroke-linejoin="round"/>
<path d="M96.5996 80.4245C93.8156 80.2325 82.4876 80.1365 73.5596 83.9765" stroke="black" stroke-width="1.65846" stroke-linecap="round" stroke-linejoin="round"/>
<path d="M86.7114 87.3379C82.8714 88.2019 66.8393 92.3299 56.2793 99.9139" stroke="black" stroke-width="1.65846" stroke-linecap="round" stroke-linejoin="round"/>
<path d="M83.8308 96.6504C80.6628 97.8984 67.6067 103.466 60.8867 112.298" stroke="black" stroke-width="1.65846" stroke-linecap="round" stroke-linejoin="round"/>
<path d="M134.039 114.697C135.671 117.289 142.199 128.425 141.431 139.081" stroke="black" stroke-width="1.65846" stroke-linecap="round" stroke-linejoin="round"/>
<path d="M125.783 124.969C126.263 128.041 127.511 140.617 122.327 150.409" stroke="black" stroke-width="1.65846" stroke-linecap="round" stroke-linejoin="round"/>
<path fill-rule="evenodd" clip-rule="evenodd" d="M131.639 105.097C131.255 104.905 130.871 105.097 130.679 105.385C130.487 105.673 130.679 106.057 130.967 106.153C131.351 106.345 131.735 106.153 131.927 105.865C132.119 105.577 131.927 105.193 131.639 105.097Z" fill="black"/>
<path fill-rule="evenodd" clip-rule="evenodd" d="M132.024 112.009C131.64 111.913 131.256 112.009 131.064 112.297C130.872 112.585 131.064 112.969 131.352 113.161C131.736 113.257 132.12 113.161 132.312 112.873C132.504 112.489 132.312 112.201 132.024 112.009Z" fill="black"/>
<path fill-rule="evenodd" clip-rule="evenodd" d="M130.871 122.474C130.583 122.378 130.103 122.474 130.007 122.858C129.815 123.146 129.911 123.434 130.295 123.626C130.583 123.722 131.063 123.626 131.255 123.338C131.351 123.05 131.255 122.666 130.871 122.474Z" fill="black"/>
<path fill-rule="evenodd" clip-rule="evenodd" d="M97.8472 83.4015C97.4632 83.2095 97.0792 83.4015 96.8872 83.6895C96.7912 83.9775 96.8872 84.3615 97.2712 84.4575C97.5592 84.6495 98.0392 84.4575 98.1352 84.1695C98.3272 83.8815 98.2312 83.4975 97.8472 83.4015Z" fill="black"/>
<path fill-rule="evenodd" clip-rule="evenodd" d="M91.4149 85.7059C91.1269 85.6099 90.7429 85.7059 90.5509 85.9939C90.3589 86.2819 90.5509 86.6659 90.8389 86.8579C91.2229 86.9539 91.6069 86.8579 91.7989 86.5699C91.8949 86.1859 91.7989 85.8979 91.4149 85.7059Z" fill="black"/>
<path fill-rule="evenodd" clip-rule="evenodd" d="M139.128 111.913C138.84 111.721 138.456 111.913 138.264 112.201C138.072 112.489 138.264 112.873 138.552 112.969C138.936 113.161 139.32 112.969 139.512 112.681C139.608 112.393 139.512 112.009 139.128 111.913Z" fill="black"/>
<path fill-rule="evenodd" clip-rule="evenodd" d="M140.184 118.347C139.8 118.251 139.416 118.347 139.224 118.635C139.032 118.923 139.224 119.307 139.512 119.499C139.896 119.595 140.28 119.499 140.472 119.211C140.664 118.827 140.472 118.539 140.184 118.347Z" fill="black"/>
<path fill-rule="evenodd" clip-rule="evenodd" d="M119.831 89.4502C120.983 90.2182 130.487 90.7942 133.079 87.9142C136.631 83.6902 122.615 78.3142 120.791 79.7542C117.239 82.5382 118.103 88.2982 119.831 89.4502Z" fill="#98EFE4"/>
<path d="M132.599 87.2416L133.463 88.4896L133.175 88.8736L132.887 89.1616L132.503 89.3536L132.119 89.6416L131.639 89.8336L131.159 90.0256L130.775 90.1216L130.199 90.3136L129.719 90.4096L129.239 90.5056L128.663 90.6016L128.183 90.6976L127.607 90.7936H127.031L126.551 90.8896H125.975H125.399H124.919H124.343H123.863H123.383H122.903L122.423 90.7936H122.039L121.559 90.6976H121.175L120.887 90.6016H120.503L120.215 90.5056L119.927 90.4096L119.735 90.3136L119.543 90.2176L120.119 88.6816L120.311 88.7776H120.503L120.695 88.8736L120.983 88.9696H121.271L121.655 89.0656H122.039L122.519 89.1616H122.903H123.383L123.863 89.2576H124.343H124.823H125.399L125.879 89.1616H126.359H126.935L127.415 89.0656H127.991L128.471 88.9696L128.951 88.8736L129.431 88.7776L129.911 88.5856L130.391 88.4896L130.775 88.3936L131.159 88.2016L131.543 88.0096L131.831 87.8176L132.119 87.6256L132.407 87.4336L132.599 87.2416ZM121.175 80.4256L120.407 78.9856L120.791 78.7936L121.175 78.6976L121.559 78.6016H121.943L122.423 78.6976H122.903L123.479 78.7936L124.055 78.9856L124.631 79.0816L125.303 79.2736L125.879 79.5616L126.551 79.7536L127.223 80.0416L127.895 80.3296L128.567 80.6176L129.143 80.9056L129.815 81.2896L130.391 81.5776L130.967 81.9616L131.543 82.3456L132.023 82.7296L132.503 83.2096L132.983 83.5936L133.367 84.0736L133.751 84.5536L133.943 85.0336L134.231 85.6096L134.327 86.1856L134.231 86.8576L134.135 87.4336L133.847 88.0096L133.463 88.4896L132.599 87.2416L132.791 86.9536L132.887 86.6656L132.983 86.4736V86.2816L132.887 86.0896L132.791 85.8976L132.695 85.5136L132.407 85.2256L132.119 84.8416L131.735 84.5536L131.351 84.1696L130.871 83.7856L130.391 83.4976L129.815 83.1136L129.335 82.8256L128.663 82.4416L128.087 82.1536L127.511 81.8656L126.839 81.5776L126.263 81.3856L125.591 81.1936L125.015 80.9056L124.439 80.8096L123.863 80.6176L123.287 80.5216L122.807 80.4256L122.423 80.3296H121.943H121.655H121.367L121.175 80.4256ZM120.119 88.6816L119.543 90.2176L119.255 90.0256L119.063 89.8336L118.871 89.5456L118.679 89.3536L118.487 89.0656L118.391 88.7776L118.199 88.4896L118.103 88.1056L118.007 87.8176L117.911 87.4336L117.815 87.1456L117.719 86.7616V86.3776L117.623 85.9936V85.6096V85.1296V84.7456L117.719 84.3616V83.8816L117.815 83.4976L117.911 83.1136L118.007 82.6336L118.103 82.2496L118.295 81.8656L118.487 81.4816L118.679 81.0976L118.871 80.7136L119.159 80.3296L119.447 79.9456L119.735 79.6576L120.023 79.2736L120.407 78.9856L121.175 80.4256L120.887 80.7136L120.599 80.9056L120.407 81.1936L120.119 81.4816L119.927 81.7696L119.735 82.0576L119.639 82.3456L119.447 82.7296L119.351 83.0176L119.255 83.3056L119.159 83.6896L119.063 83.9776V84.2656L118.967 84.6496V84.9376V85.2256V85.6096V85.8976L119.063 86.1856V86.4736L119.159 86.7616V87.0496L119.255 87.2416L119.351 87.5296L119.447 87.7216L119.543 87.9136L119.639 88.1056L119.735 88.2976L119.831 88.3936L119.927 88.4896L120.023 88.5856L120.119 88.6816Z" fill="black"/>
<path fill-rule="evenodd" clip-rule="evenodd" d="M127.991 88.3943C125.975 87.6263 124.535 88.0103 122.615 90.1223C122.519 90.2183 120.599 93.0023 119.831 92.2343C118.679 90.9863 122.999 93.9623 124.727 94.6343C126.839 95.4023 129.239 94.7303 130.103 92.9063C130.967 91.1783 130.007 89.1623 127.991 88.3943Z" fill="#98EFE4"/>
<path fill-rule="evenodd" clip-rule="evenodd" d="M117.431 82.9224C116.279 82.7304 113.975 83.2104 113.111 84.9384C112.151 86.6664 112.727 88.5864 114.263 89.1624C115.031 89.5464 115.223 90.3144 116.087 89.9304C116.855 89.4504 118.199 87.0504 118.775 86.3784C120.791 84.1704 118.679 83.1144 117.431 82.9224Z" fill="#98EFE4"/>
<path d="M83.6396 116.906C82.4876 123.722 85.5596 129.578 91.1276 132.458" stroke="black" stroke-width="1.70041" stroke-linecap="round" stroke-linejoin="round"/>
<path d="M135.191 105.097C134.807 104.713 134.711 104.233 135.191 103.849C135.575 103.561 136.247 103.561 136.631 103.849L135.191 105.097ZM156.023 127.945L154.007 128.425L153.623 127.465L153.239 126.409L152.759 125.449L152.279 124.489L151.799 123.529L151.223 122.473L150.647 121.513L149.975 120.649L149.399 119.689L148.727 118.729L147.959 117.865L147.287 117.001L146.615 116.137L145.847 115.273L145.175 114.409L144.407 113.641L143.735 112.873L142.967 112.105L142.295 111.337L141.527 110.665L140.855 109.993L140.183 109.321L139.511 108.745L138.935 108.169L138.263 107.689L137.783 107.209L137.207 106.729L136.727 106.249L136.247 105.961L135.863 105.577L135.479 105.289L135.191 105.097L136.631 103.849L136.919 104.137L137.303 104.425L137.783 104.713L138.167 105.097L138.743 105.577L139.223 106.057L139.799 106.537L140.471 107.113L141.143 107.689L141.719 108.265L142.487 108.937L143.159 109.609L143.831 110.377L144.599 111.049L145.367 111.817L146.135 112.681L146.807 113.449L147.575 114.313L148.343 115.177L149.015 116.041L149.783 117.001L150.455 117.961L151.127 118.825L151.799 119.785L152.471 120.841L153.047 121.801L153.623 122.761L154.199 123.817L154.679 124.873L155.159 125.929L155.639 126.985L156.023 127.945ZM156.023 127.945C156.119 128.425 155.831 128.905 155.255 129.001C154.679 129.097 154.103 128.809 154.007 128.425L156.023 127.945Z" fill="black"/>
<path d="M184.728 109.994L182.52 97.418" stroke="black" stroke-width="1.65922"/>
<path d="M194.136 92.2335L190.104 80.5215" stroke="black" stroke-width="1.65922"/>
</svg>
