<svg width="137" height="21" viewBox="0 0 137 21" fill="none" xmlns="http://www.w3.org/2000/svg">
<path d="M104.438 13.0621C104.438 14.4322 103.311 15.5457 101.927 15.5457C100.543 15.5457 99.4147 14.4307 99.4147 13.0621V6.99811C99.4147 5.62795 100.542 4.51451 101.927 4.51451C103.313 4.51451 104.438 5.62947 104.438 6.99811V7.07255H106.36V6.99811C106.36 4.58134 104.371 2.61572 101.926 2.61572C99.48 2.61572 97.4932 4.58134 97.4932 6.99811V13.056C97.4932 15.4728 99.4816 17.4384 101.926 17.4384C104.37 17.4384 106.355 15.4743 106.358 13.0621V12.9816H104.437V13.0621H104.438Z" fill="#61686D"/>
<path d="M114.427 6.5332C112.39 6.5332 110.716 8.11147 110.617 10.1287V13.8428C110.717 15.86 112.39 17.4383 114.427 17.4383C116.464 17.4383 118.138 15.857 118.237 13.8382V10.1242C118.138 8.11147 116.464 6.5332 114.427 6.5332ZM116.31 13.6271C116.292 14.6843 115.464 15.5137 114.427 15.5137C113.389 15.5137 112.562 14.6858 112.542 13.6286V10.346C112.542 9.30543 113.388 8.45933 114.427 8.45933C115.466 8.45933 116.31 9.30543 116.31 10.346V13.6271Z" fill="#61686D"/>
<path d="M109.234 2.61572H107.317V17.1984H109.234V2.61572Z" fill="#61686D"/>
<path d="M56.4258 6.5332H54.5088V17.1983H56.4258V6.5332Z" fill="#61686D"/>
<path d="M52.5957 2.61572H50.6787V17.1984H52.5957V2.61572Z" fill="#61686D"/>
<path d="M45.845 2.61724H43.4859L39.6139 17.1801L39.6094 17.1984H41.5233L42.5517 13.3294L46.7853 13.3416L47.8076 17.1862L47.8106 17.1969H49.7246L45.8495 2.62635L45.8465 2.61572L45.845 2.61724ZM46.2764 11.4321H43.056L44.6662 5.37731L46.2764 11.4321Z" fill="#61686D"/>
<path d="M125.317 13.8276C125.317 14.8696 124.47 15.7172 123.428 15.7172C122.386 15.7172 121.538 14.8696 121.538 13.8276V6.5332H119.621V14.1405C119.621 15.9588 121.101 17.4383 122.919 17.4383C123.253 17.4383 123.584 17.3882 123.902 17.2894C124.087 17.2347 124.265 17.1603 124.429 17.0692C124.724 16.9173 124.992 16.7244 125.225 16.495L125.307 16.4145V17.1983H127.241V6.5332H125.316V13.8276H125.317Z" fill="#61686D"/>
<path d="M56.4258 2.61572H54.5088V4.53273H56.4258V2.61572Z" fill="#61686D"/>
<path d="M62.6443 6.52456C61.7785 6.52456 60.9582 6.85875 60.3369 7.46787L60.2549 7.54838V2.61914H58.3379V17.2018H60.2549V16.418L60.3369 16.4985C60.9582 17.1061 61.777 17.4418 62.6443 17.4418C64.4641 17.4418 65.9437 15.9623 65.9437 14.1425V9.8254C65.9437 8.00561 64.4641 6.52608 62.6443 6.52608M64.0509 10.1748V13.7916C64.0509 14.8367 63.2018 15.6858 62.1567 15.6858C61.1116 15.6858 60.2625 14.8367 60.2625 13.7916V10.1748C60.2625 9.13121 61.1116 8.28055 62.1567 8.28055C63.2018 8.28055 64.0509 9.12969 64.0509 10.1748Z" fill="#61686D"/>
<path d="M80.4895 6.52309C79.6236 6.52309 78.8034 6.85728 78.1836 7.46641L78.1016 7.54692V2.61768H76.1846V17.2003H78.1016V16.4165L78.1836 16.497C78.8049 17.1046 79.6236 17.4403 80.4895 17.4403C82.3093 17.4403 83.7888 15.9608 83.7888 14.141V9.82394C83.7888 8.00414 82.3093 6.52461 80.4895 6.52461M81.8961 10.1733V13.7901C81.8961 14.8352 81.047 15.6843 80.0019 15.6843C78.9568 15.6843 78.1077 14.8352 78.1077 13.7901V10.1733C78.1077 9.12974 78.9568 8.27909 80.0019 8.27909C81.047 8.27909 81.8961 9.12822 81.8961 10.1733Z" fill="#61686D"/>
<path d="M134.314 2.61583V7.54507L134.232 7.46456C133.61 6.85695 132.792 6.52125 131.924 6.52125C130.106 6.52125 128.625 8.00078 128.625 9.82057V14.1392V14.1498C128.625 15.962 130.108 17.4355 131.926 17.4355C132.792 17.4355 133.612 17.1013 134.233 16.4921L134.315 16.4116V17.1954H136.232V2.61279H134.315L134.314 2.61583ZM134.306 10.173V13.7898C134.306 14.8349 133.457 15.684 132.412 15.684C131.367 15.684 130.518 14.8349 130.518 13.7898V10.173C130.518 9.12942 131.367 8.27876 132.412 8.27876C133.457 8.27876 134.306 9.1279 134.306 10.173Z" fill="#61686D"/>
<path d="M74.8097 10.1413C74.8037 10.0258 74.7915 9.9043 74.7702 9.76911L74.7611 9.71594C74.6639 9.13719 74.4437 8.59946 74.1049 8.11945C73.4259 7.17157 72.3899 6.5913 71.2613 6.53054C71.2324 6.53054 71.1064 6.52295 71.0395 6.52295C70.1448 6.52295 69.2774 6.83587 68.5939 7.40246C67.9118 7.96906 67.4455 8.76351 67.2814 9.64151L67.2784 9.65974H69.1544V9.64759C69.3291 8.76503 70.1068 8.12248 71.0061 8.12248C71.4952 8.12248 71.96 8.31084 72.314 8.65262C72.6679 8.9944 72.873 9.45011 72.8927 9.93772L72.8958 10.8324H70.1767C68.3569 10.8324 66.8789 12.312 66.8789 14.1302C66.8789 15.6614 67.9286 16.9495 69.3458 17.3187C69.361 17.3232 69.3777 17.3263 69.3944 17.3308C69.4552 17.346 69.5159 17.3597 69.5767 17.3703C69.6496 17.384 69.7256 17.3961 69.8061 17.4053C69.8213 17.4068 69.838 17.4098 69.8532 17.4113C70.0096 17.428 70.1767 17.4387 70.3499 17.4387C70.8056 17.4387 71.2157 17.3749 71.5013 17.2716C71.9874 17.1166 72.4355 16.8523 72.8107 16.4847L72.8927 16.4042V17.188H74.8097V15.9136V10.1413ZM70.5306 12.2877H72.8669V13.6365C72.8624 14.6604 72.1317 15.5399 71.1276 15.7298C70.9788 15.7632 70.839 15.7799 70.7023 15.7799C70.3681 15.7799 70.043 15.6888 69.7332 15.508C69.6435 15.4609 69.563 15.4093 69.4886 15.3515C69.3747 15.2619 69.2774 15.1662 69.1924 15.0568L69.1726 15.031C68.9417 14.7272 68.8202 14.3718 68.8202 14.0011C68.8202 13.0563 69.5888 12.2892 70.5322 12.2892" fill="#61686D"/>
<path d="M92.6794 10.1515C92.6734 10.0361 92.6612 9.91456 92.6399 9.77936L92.6308 9.7262C92.5336 9.14745 92.3133 8.60971 91.9746 8.1297C91.2956 7.18031 90.2596 6.60156 89.131 6.5408C89.1021 6.5408 88.976 6.5332 88.9077 6.5332C88.0145 6.5332 87.1456 6.84612 86.4621 7.41272C85.78 7.97932 85.3137 8.77377 85.1496 9.65176L85.1466 9.66999H87.0226V9.65784C87.1988 8.77529 87.975 8.13274 88.8743 8.13274C89.3634 8.13274 89.8282 8.3211 90.1837 8.66288C90.5376 9.00466 90.7427 9.46037 90.7624 9.94646V10.8427H88.0449C86.2266 10.8427 84.7471 12.3222 84.7471 14.1405C84.7471 15.6717 85.7982 16.9598 87.2155 17.3289C87.2307 17.3335 87.2474 17.3365 87.2641 17.3411C87.3249 17.3563 87.3856 17.3699 87.4464 17.3806C87.5193 17.3942 87.5952 17.4064 87.6758 17.4155C87.6909 17.4155 87.7077 17.4201 87.7228 17.4216C87.8793 17.4383 88.0464 17.4489 88.2196 17.4489C88.6753 17.4489 89.0854 17.3851 89.371 17.2818C89.8571 17.1269 90.3052 16.8626 90.6804 16.495L90.7624 16.4145V17.1983H92.6794V15.9238V10.1515ZM88.4003 12.2964H90.7366V13.6438C90.732 14.6676 90.0014 15.5486 88.9988 15.737C88.85 15.7704 88.7102 15.7871 88.5735 15.7871C88.2393 15.7871 87.9127 15.696 87.6044 15.5152C87.5147 15.4681 87.4357 15.4165 87.3598 15.3587C87.2459 15.2691 87.1487 15.1734 87.0636 15.0641L87.0438 15.0382C86.8129 14.7344 86.6914 14.379 86.6914 14.0083C86.6914 13.065 87.4601 12.2964 88.4034 12.2964" fill="#61686D"/>
<path d="M21.6075 8.771H10.8877V11.1878H21.6075V8.771Z" fill="#61686D"/>
<path d="M26.9771 0.00151903H19.8848L21.5967 2.42285L26.7675 4.00719C27.726 4.30948 28.3351 5.19811 28.329 6.15358C28.329 6.1551 28.329 6.15813 28.329 6.15965V13.9036C28.329 13.9036 28.329 13.9067 28.329 13.9097C28.3351 14.8652 27.726 15.7538 26.7675 16.0561L21.5967 17.6405L19.8848 20.0618H26.9771C29.9362 20.0618 32.3347 17.6632 32.3347 14.7042V5.35761C32.3347 2.39854 29.9362 0 26.9771 0" fill="#61686D"/>
<path d="M5.51776 0.00151903H12.6101L10.8982 2.42285L5.72739 4.00719C4.76888 4.30948 4.15975 5.19811 4.16583 6.15358C4.16583 6.1551 4.16583 6.15813 4.16583 6.15965V13.9036C4.16583 13.9036 4.16583 13.9067 4.16583 13.9097C4.15975 14.8652 4.76888 15.7538 5.72739 16.0561L10.8982 17.6405L12.6101 20.0618H5.51776C2.5587 20.0618 0.160156 17.6632 0.160156 14.7042V5.35761C0.160156 2.39854 2.5587 0 5.51776 0" fill="#61686D"/>
</svg>
