<svg width="90" height="20" viewBox="0 0 90 20" fill="none" xmlns="http://www.w3.org/2000/svg">
<path fill-rule="evenodd" clip-rule="evenodd" d="M12.8426 0.0288117C11.7377 0.114669 10.388 0.287035 9.67865 0.432866C7.68139 0.843501 6.11827 1.71621 4.74475 3.18757L4.28661 3.67836L3.86351 3.59505C3.19243 3.46293 2.98306 3.44384 2.2105 3.44444C1.37417 3.44509 0.651334 3.53487 0.516743 3.65487C0.380337 3.77639 0.183525 4.14293 0.0776151 4.47266C0.0109073 4.68015 -0.00976198 4.88661 0.00407097 5.20671C0.0309356 5.82891 0.238964 6.26983 0.744105 6.77497C1.09634 7.12726 1.11712 7.16168 1.11712 7.39283C1.11712 7.62783 1.12566 7.64104 1.33198 7.7251C1.59149 7.83082 1.87867 8.15782 1.96269 8.44329C1.99654 8.55838 2.06175 8.98058 2.10758 9.38161C2.15335 9.78264 2.21723 10.2208 2.24949 10.3554C2.3273 10.6803 2.55841 11.145 2.80596 11.4744L3.00699 11.742L3.01404 12.4488C3.02205 13.2561 3.11263 13.7246 3.39767 14.4335C4.03111 16.0085 5.11509 17.1158 6.72083 17.8285C7.57356 18.2069 8.65251 18.4566 9.43708 18.457C9.75856 18.4572 9.87871 18.4843 10.1314 18.6135C11.3774 19.2509 13.0334 19.4654 14.4159 19.1683C15.1146 19.0182 15.927 18.6983 16.4997 18.3479C16.8628 18.1257 17.0216 18.0645 17.4261 17.9904C18.887 17.723 20.6386 16.8837 21.6109 15.9852C22.5029 15.1609 23.1902 13.8432 23.3897 12.575C23.478 12.0147 23.4323 10.6467 23.3126 10.2601C23.2284 9.98819 23.2292 9.95807 23.3293 9.62812C23.5174 9.00788 23.5709 8.26428 23.494 7.3403C23.4563 6.88899 23.4422 6.42921 23.4627 6.31855C23.5055 6.08621 23.7074 5.81978 23.9291 5.70304L24.0829 5.62207V5.05729V4.49256L23.8693 4.4558C23.7518 4.43558 23.6557 4.39675 23.6557 4.36946C23.6557 4.34216 23.6778 4.31987 23.7048 4.31987C23.7318 4.31987 23.8874 4.19562 24.0506 4.04375C24.7582 3.38539 24.963 2.19693 24.5359 1.22804L24.3914 0.900216L24.0102 0.810496C23.1445 0.60681 22.1029 0.652213 21.2269 0.931855C20.7329 1.08955 19.9728 1.4738 19.6342 1.73709L19.401 1.91837L19.0582 1.67494C17.9385 0.879986 16.6564 0.343475 15.3239 0.112385C14.7076 0.00548502 13.616 -0.0312719 12.8426 0.0288117ZM12.8671 0.440479C12.7643 0.450484 12.4158 0.483815 12.0926 0.514537C8.99184 0.809572 7.47598 1.33308 5.87051 2.66352C5.53414 2.94229 4.85899 3.62877 4.58468 3.971L4.45031 4.13869L3.83851 4.00602C3.34069 3.89808 3.05767 3.87188 2.31882 3.86551C1.81944 3.86122 1.30084 3.87688 1.16636 3.90037L0.921849 3.94311L0.960889 4.22661C1.03508 4.76524 1.23403 5.09529 1.64405 5.36004C2.00915 5.59576 2.22829 5.6374 3.22676 5.66084C3.72614 5.67253 4.21884 5.68629 4.32165 5.6914C4.42446 5.69646 4.77296 5.65633 5.09608 5.60212C5.90992 5.46564 9.02144 5.42073 10.8643 5.51887C12.9608 5.6305 13.7468 5.53633 15.8847 4.91728C16.5016 4.73866 17.2947 4.54242 17.6472 4.48125C18.5959 4.31644 20.1918 4.24891 21.6682 4.31111L22.912 4.36348L23.1816 4.19214C23.759 3.82522 23.9618 3.62888 24.1366 3.26739C24.2691 2.99346 24.3117 2.82403 24.3324 2.49023C24.3469 2.25543 24.338 1.96704 24.3127 1.84937L24.2665 1.6354L24.0102 2.05404C23.397 3.05561 22.275 3.87301 21.2247 4.08307C20.7096 4.18616 20.5958 4.1587 20.5682 3.92484C20.5497 3.76802 20.5251 3.77982 21.2041 3.61898C22.2168 3.37914 23.0153 2.82979 23.5839 1.98177C23.7957 1.66586 23.9914 1.27241 23.9552 1.23554C23.819 1.09683 22.4001 1.0716 21.8024 1.19731C21.0658 1.35222 20.4172 1.65471 19.7448 2.15686L19.3856 2.42509L18.9436 2.10096C17.3679 0.945072 15.6687 0.393554 13.7483 0.414706C13.3665 0.418892 12.9699 0.430475 12.8671 0.440479ZM0.474283 4.53883C0.427764 4.65117 0.397321 4.89292 0.399137 5.13548C0.402662 5.6049 0.557761 5.99302 0.888896 6.36102C1.05329 6.54372 1.08528 6.56009 1.11407 6.47646C1.14552 6.38522 1.15408 6.38619 1.24748 6.4913C1.30239 6.55307 1.36989 6.60359 1.39756 6.60359C1.47564 6.60359 2.68632 6.15457 2.74342 6.10443C2.7713 6.07991 2.69828 6.05984 2.58105 6.05984C2.31561 6.05984 1.81944 5.93087 1.55335 5.79265C1.13704 5.5764 0.762317 5.08784 0.614749 4.56895L0.552474 4.34999L0.474283 4.53883ZM19.4033 5.01118L19.2368 5.03254L18.6608 6.67449C17.5799 9.75585 17.2955 10.6395 17.3116 10.8665C17.3286 11.1041 17.4803 11.2559 17.7554 11.3107L17.9169 11.3428L18.9685 8.1576L20.02 4.97236L19.7949 4.98106C19.6711 4.98585 19.495 4.99938 19.4033 5.01118ZM17.6205 5.31948C16.8217 5.59364 16.7892 5.61065 16.6953 5.80347C16.5136 6.17648 16.0309 7.5528 15.9058 8.05473L15.7812 8.55429L15.9013 8.96983C16.0735 9.56591 16.4924 10.4598 16.5506 10.3554C16.5756 10.3106 17.0442 9.11326 17.5918 7.69487C18.1393 6.27641 18.5996 5.09584 18.6145 5.07132C18.6688 4.98187 18.4313 5.04114 17.6205 5.31948ZM4.88677 6.42921L3.92978 6.68064L3.59924 7.38978C3.19125 8.2651 2.90252 8.99542 2.8192 9.36292C2.76675 9.59433 2.77049 9.70252 2.84126 9.99451C2.93264 10.3712 3.35131 11.4431 3.40697 11.4426C3.42534 11.4424 3.99153 10.274 4.66512 8.84619C5.33872 7.41838 5.89892 6.23177 5.91003 6.20937C5.93823 6.15239 5.95073 6.14972 4.88677 6.42921ZM6.21889 7.05217C5.47576 8.7548 4.54292 10.943 4.35086 11.434C4.17558 11.8822 4.15976 11.9601 4.2159 12.0981C4.28544 12.269 4.72264 12.5252 4.80271 12.442C4.84612 12.397 7.36596 6.31094 7.36596 6.25118C7.36596 6.23569 7.18928 6.22296 6.97341 6.22296H6.58084L6.21889 7.05217ZM12.4665 6.65687C11.9681 6.72772 11.9229 6.79112 11.824 7.55807C11.7331 8.26331 11.5014 8.97324 11.1265 9.69587C10.9473 10.0411 10.8656 10.2473 10.9158 10.2277C11.2202 10.1088 12.0988 9.90338 12.5839 9.83759C13.2719 9.74433 13.9098 9.73665 14.5172 9.81413C14.7623 9.84553 14.9728 9.86097 14.9849 9.8486C14.997 9.83631 14.8406 9.60073 14.6373 9.32504C14.1409 8.65216 13.7618 7.93863 13.5597 7.29691C13.4505 6.95055 13.353 6.73849 13.2782 6.6852C13.1593 6.60038 12.922 6.59211 12.4665 6.65687ZM12.3597 10.2738C11.4261 10.4412 10.4689 10.7947 10.3532 11.015C10.3221 11.0741 10.1424 11.3169 9.95401 11.5546C9.76551 11.7922 9.62884 11.9863 9.65031 11.9859C9.67169 11.9855 9.87645 11.9244 10.1052 11.85C10.5174 11.716 10.9614 11.6757 11.0925 11.7604C11.1803 11.8172 11.0614 11.9278 10.7307 12.0969C10.4628 12.2339 10.232 12.3997 9.87913 12.7084C9.6685 12.8927 9.61442 12.9143 9.39851 12.8999C9.18696 12.886 9.14436 12.8618 9.07251 12.7155L8.98983 12.5471L8.80545 12.6801C8.70399 12.7532 8.42545 12.9103 8.18643 13.029L7.75178 13.245L7.65426 13.5809C7.51823 14.0495 7.51833 14.9508 7.65453 15.3579C8.07187 16.6052 9.04861 17.4179 10.2467 17.5148C11.3102 17.6008 12.5018 16.9327 13.1027 15.9137L13.3039 15.5723L13.7709 16.0224C14.3106 16.5426 14.7995 16.8317 15.407 16.9898C16.9637 17.3952 18.352 16.6512 18.9401 15.0967C19.1417 14.5638 19.1747 13.6788 19.0112 13.1874C18.838 12.6667 18.4043 12.0954 18.1822 12.0954C18.1431 12.0954 17.9574 12.0251 17.7694 11.9393C17.2035 11.6808 17.214 11.6809 17.2378 11.9352C17.2524 12.0915 17.2311 12.1859 17.1641 12.2612C17.0414 12.3992 16.7168 12.4016 16.5462 12.266C16.3802 12.1339 15.723 11.8463 15.4841 11.801C15.3813 11.7817 15.2491 11.7282 15.1904 11.6825C15.0861 11.6014 15.086 11.5974 15.1841 11.5235C15.3665 11.3857 15.8008 11.3288 16.2318 11.3863C16.8127 11.4636 16.8178 11.4611 16.5131 11.2522C16.3601 11.1473 16.0813 10.9152 15.8935 10.7363C15.5914 10.4487 15.5098 10.4013 15.1843 10.3246C14.6652 10.2024 12.9317 10.1711 12.3597 10.2738ZM22.5875 10.8569C22.2075 11.2787 21.4685 11.773 20.9102 11.9786C20.4025 12.1656 19.7418 12.2777 19.3087 12.2503C19.1438 12.2399 19.009 12.2366 19.0091 12.2431C19.0091 12.2495 19.0921 12.4086 19.1935 12.5965C19.6758 13.4899 19.6556 14.5557 19.136 15.6274C18.4846 16.9707 17.1481 17.7028 15.75 17.482C14.9687 17.3586 14.3597 17.0728 13.6998 16.5203L13.3671 16.2417L13.2437 16.4251C12.8423 17.0215 11.9431 17.6363 11.1868 17.8313C10.7773 17.9369 10.0389 17.9365 9.63865 17.8303C8.61335 17.5584 7.67247 16.6485 7.30716 15.5753C7.1527 15.1217 7.10762 14.1795 7.21743 13.6995L7.29204 13.3732L6.59463 13.3682C6.06075 13.3645 5.79974 13.3362 5.48148 13.2477C4.94728 13.099 4.24298 12.7623 3.81303 12.4499C3.62696 12.3147 3.46096 12.2041 3.44419 12.2041C3.38112 12.2041 3.41696 12.9861 3.49851 13.389C3.84562 15.1039 5.04043 16.5935 6.68713 17.3644C7.57147 17.7784 8.39199 17.9856 9.39549 18.0481C9.89523 18.0792 10.0057 18.106 10.4102 18.2951C11.8092 18.9488 13.3741 19.0707 14.8373 18.6402C15.3549 18.4879 16.156 18.1179 16.5191 17.8635C16.7006 17.7365 16.8776 17.6739 17.2306 17.6123C17.9088 17.4937 18.5534 17.2954 19.2497 16.9913C20.3043 16.5305 20.9505 16.0972 21.5741 15.4324C22.3884 14.5643 22.8523 13.5486 23.0208 12.2646C23.1021 11.6453 23.0326 10.5033 22.9151 10.5246C22.8965 10.5281 22.7491 10.6775 22.5875 10.8569ZM12.9468 11.3347C12.8615 11.4753 12.8587 12.0248 12.9416 12.3479C12.9887 12.5317 13.0273 12.8681 13.0273 13.0955C13.0273 13.4556 13.0396 13.5091 13.1222 13.5091C13.2798 13.5091 13.4426 13.3573 13.5108 13.147C13.5905 12.9011 13.5501 12.4579 13.3878 11.7963C13.2766 11.3436 13.2571 11.3057 13.1257 11.2903C13.0479 11.2811 12.9673 11.3011 12.9468 11.3347Z" fill="#61686D"/>
<path fill-rule="evenodd" clip-rule="evenodd" d="M32.5715 2.9133C32.0309 3.04701 31.6897 3.30957 31.3665 3.84059C31.1137 4.25584 30.9498 4.97492 30.8869 5.94457C30.8689 6.22072 30.8194 6.78019 30.7766 7.18784C30.6708 8.19799 30.6244 11.2223 30.7012 12.1131C30.8866 14.2675 31.6359 15.9165 32.6317 16.3616C33.279 16.6509 34.3705 16.3233 34.6792 15.7469C34.888 15.3573 35.0237 14.605 35.1067 13.3774C35.1874 12.1861 35.2222 12.0262 35.4424 11.8381L35.6243 11.6827H36.8565C37.8676 11.6827 38.1085 11.6956 38.1994 11.7544C38.4075 11.8889 38.511 12.1214 38.5722 12.5913C38.7902 14.2645 39.1533 15.3484 39.6692 15.8651C39.9197 16.1161 40.3972 16.322 40.8084 16.3565C41.5933 16.4222 42.2439 15.7592 42.5847 14.5463C42.9403 13.2802 43.0523 11.8898 43.0485 8.78973C43.0435 4.92419 42.9323 4.09479 42.3191 3.35237C41.7691 2.68646 40.4393 2.67383 39.6318 3.32684C39.37 3.53848 38.9686 4.32202 38.8389 4.8746C38.71 5.42331 38.6525 5.84602 38.5051 7.32823L38.3841 8.54459L38.1969 8.70295L38.0096 8.86149L36.9084 8.86123C35.9092 8.86115 35.7918 8.85245 35.6421 8.76823C35.3335 8.5945 35.3415 8.65022 35.2897 6.30321C35.2746 5.61941 35.2499 4.97387 35.2349 4.86867C35.0969 3.90606 35.0485 3.77451 34.6792 3.35777C34.3486 2.98489 34.0587 2.87357 33.373 2.85626C33.0384 2.8478 32.7548 2.86798 32.5715 2.9133ZM52.7419 2.92593C51.8541 3.16229 51.0355 3.78301 50.6529 4.51004C50.1776 5.41298 49.9323 6.78511 49.883 8.81669C49.8483 10.2467 49.911 11.1996 50.1281 12.5434C50.3479 13.9037 50.3759 14.0403 50.523 14.4712C50.8843 15.5291 51.4041 16.0657 52.3151 16.3216C52.6147 16.4058 52.7788 16.4228 53.1303 16.4064C54.0661 16.3626 54.579 15.8916 54.8138 14.8604C54.9792 14.1348 54.9159 12.458 54.6503 10.5268C54.6231 10.3282 54.6352 10.2888 54.7589 10.1747C54.8969 10.0474 54.9024 10.0465 55.3478 10.0874C56.0744 10.154 57.7431 10.1277 58.4605 10.0383C60.3624 9.80127 61.7529 8.8789 62.1182 7.61193C62.2902 7.01488 62.1584 6.18017 61.7927 5.5518C61.1188 4.39369 59.4131 3.5118 57.1014 3.12629C55.3382 2.83221 53.4244 2.74427 52.7419 2.92593ZM65.6858 2.88543C65.148 2.98403 64.4577 3.34051 64.0105 3.7506C63.3791 4.32967 63.0633 5.10054 62.8135 6.67279C62.565 8.2371 62.5786 10.585 62.8456 12.1848C62.8895 12.4478 62.9675 12.9427 63.0191 13.2846C63.2436 14.7733 63.7412 15.7079 64.5167 16.0977C65.5038 16.5937 66.5517 16.5114 67.1252 15.8928C67.3326 15.6691 67.5526 15.1127 67.6368 14.5996C67.7301 14.0307 67.6552 12.3478 67.4692 10.8328L67.403 10.2937L67.5376 10.1694L67.6722 10.045L68.3786 10.1061C68.8226 10.1445 69.3777 10.1561 69.8729 10.1375C71.4115 10.0793 72.1404 9.94189 73.0167 9.54418C73.5388 9.30715 73.6661 9.22387 74.0548 8.86448C75.0715 7.92481 75.2515 6.84833 74.5952 5.63376C74.29 5.06893 73.9509 4.72264 73.3364 4.34832C72.6988 3.9598 72.4786 3.85053 71.8987 3.63488C71.0595 3.32282 69.8192 3.07397 68.2788 2.90862C67.5738 2.83298 66.0467 2.8193 65.6858 2.88543ZM82.0284 2.89126C81.1181 3.06804 79.6174 3.6737 78.7276 4.22337C76.8128 5.40638 75.5973 7.14422 75.2726 9.16354C75.1521 9.91262 75.1619 11.183 75.2933 11.8524C75.6901 13.8746 76.8161 15.2098 78.6998 15.8924C79.8608 16.3131 81.1939 16.5062 82.5096 16.4442C83.8155 16.3826 84.7876 16.1479 85.7309 15.666C86.4638 15.292 86.821 15.0454 87.2721 14.6028C88.6581 13.2424 89.4345 11.1478 89.4345 8.76652C89.4345 8.00203 89.3725 7.6247 89.1411 6.97265C88.3546 4.76118 86.6658 3.4141 84.1001 2.95276C83.5912 2.86128 82.3695 2.82503 82.0284 2.89126ZM45.6172 2.9583C45.1309 3.09659 44.8004 3.5599 44.5955 4.39049C44.3053 5.56624 44.2497 6.53349 44.2491 10.4155C44.2486 13.9689 44.2789 14.4403 44.5613 15.2657C44.6905 15.6433 44.9744 16.0415 45.219 16.1883C45.6378 16.4395 46.4226 16.4958 47.0412 16.3189C47.7498 16.1163 48.219 15.4951 48.4481 14.4562C48.557 13.9619 48.6012 13.598 48.7763 11.7545C48.8628 10.844 48.9475 8.33609 48.9121 7.73774C48.7867 5.62261 48.4821 4.51764 47.7914 3.67304C47.4801 3.29236 47.1102 3.08019 46.5418 2.95649C46.1444 2.86994 45.9262 2.87037 45.6172 2.9583ZM45.7966 3.70909C45.381 4.22983 45.1455 4.75185 44.9718 5.53812C44.8791 5.95763 44.8553 7.62628 44.9356 8.07246C44.9758 8.2952 44.9812 8.27474 45.016 7.77327C45.0841 6.78894 45.4343 5.22099 45.8439 4.066C45.9718 3.70536 46.0673 3.41023 46.0559 3.41023C46.0445 3.41023 45.9277 3.54474 45.7966 3.70909ZM32.5821 3.791C32.106 4.30136 31.7077 5.04302 31.5578 5.69821C31.4348 6.23564 31.3596 7.17684 31.4062 7.59429L31.4488 7.97683L31.5166 7.49865C31.6561 6.51341 32.1761 4.91697 32.706 3.84748C32.7762 3.70569 32.826 3.58257 32.8166 3.57386C32.8071 3.56516 32.7016 3.6629 32.5821 3.791ZM40.1534 3.84791C39.5481 4.60056 39.2946 5.50761 39.2263 7.16393C39.2122 7.50582 39.2217 7.85011 39.2473 7.92901C39.2935 8.07103 39.294 8.0706 39.2983 7.8812C39.3129 7.25506 39.7208 5.59091 40.1772 4.29486C40.3161 3.90036 40.4225 3.57013 40.4137 3.561C40.4048 3.55187 40.2877 3.68097 40.1534 3.84791ZM53.037 3.86168C52.3079 4.22452 51.7333 4.76404 51.4222 5.37803C51.1806 5.85473 51.0024 6.56023 50.9773 7.14002L50.9555 7.6421L51.0357 7.31436C51.2925 6.26567 52.0947 5.00763 53.1517 3.996C53.3235 3.83165 53.4413 3.69761 53.4137 3.69823C53.3861 3.69881 53.2165 3.7724 53.037 3.86168ZM65.9267 3.79746C65.3682 4.02622 64.6257 4.64861 64.3155 5.14802C64.0028 5.6514 63.7586 6.52527 63.719 7.28347L63.6951 7.73774L63.7937 7.35519C64.0348 6.41921 64.7067 5.27307 65.5239 4.40393C65.7002 4.21644 65.922 3.9807 66.0168 3.88009C66.1116 3.77948 66.1815 3.69867 66.1721 3.70053C66.1628 3.70235 66.0524 3.74601 65.9267 3.79746ZM80.5408 4.19683C79.7062 4.47667 79.1422 4.81277 78.4472 5.44455C77.7803 6.05068 77.3533 6.70411 77.0005 7.65812C76.8583 8.04253 76.6779 8.79784 76.6215 9.24401L76.5944 9.4592L76.6797 9.29179C77.1857 8.2994 77.6867 7.40675 77.9748 6.98447C78.9734 5.52043 79.8062 4.70475 80.7991 4.21807C81.2589 3.99265 81.1712 3.98543 80.5408 4.19683ZM82.0802 5.49652C81.7051 5.67125 81.3293 6.0239 80.9509 6.55602C80.35 7.40086 80.0613 8.49063 80.0613 9.91348C80.0613 11.2156 80.3052 12.2215 80.7829 12.8899C81.0985 13.3314 81.2948 13.5012 81.7344 13.7125C82.0351 13.857 82.1387 13.8823 82.4301 13.8823C82.8501 13.8823 83.1066 13.7778 83.4385 13.4713C84.0967 12.8635 84.495 11.4911 84.5965 9.48309C84.6526 8.37678 84.4371 7.13136 84.0749 6.47191C83.898 6.14904 83.4064 5.67402 83.1029 5.53205C82.7076 5.34704 82.4223 5.33715 82.0802 5.49652ZM55.0465 5.49729C54.7157 5.62018 54.4178 6.26347 54.4074 6.87716C54.4029 7.14432 54.4277 7.26037 54.5299 7.45093C54.7659 7.89051 55.0921 7.98706 56.1845 7.94063C56.9046 7.90998 57.1768 7.84208 57.4165 7.63336C57.5898 7.48244 57.5959 7.46551 57.5746 7.19424C57.528 6.5991 56.9936 5.93802 56.309 5.62883C56.0674 5.51962 55.9314 5.49264 55.5686 5.48175C55.3241 5.47443 55.0893 5.48141 55.0465 5.49729ZM67.7488 5.53444C67.5215 5.6295 67.3954 5.83956 67.2705 6.33103C67.1443 6.82729 67.1384 7.0582 67.245 7.33707C67.443 7.85513 67.7967 7.98343 68.9 7.93733C69.7251 7.9029 69.9282 7.8516 70.1877 7.61203C70.3833 7.43147 70.3891 7.41674 70.3588 7.18047C70.2833 6.59231 69.7902 5.98039 69.133 5.65958C68.8394 5.51622 68.7402 5.49327 68.3562 5.47983C68.0494 5.46912 67.8653 5.48566 67.7488 5.53444Z" fill="#61686D"/>
</svg>
