<?xml version="1.0" encoding="utf-8"?>
<!-- Generator: Adobe Illustrator 27.0.0, SVG Export Plug-In . SVG Version: 6.00 Build 0)  -->
<svg version="1.1" id="图层_1" xmlns="http://www.w3.org/2000/svg" xmlns:xlink="http://www.w3.org/1999/xlink" x="0px" y="0px"
	 viewBox="0 0 343.82 81.49" style="enable-background:new 0 0 343.82 81.49;" xml:space="preserve">
<style type="text/css">
	.st0{opacity:0.7;fill:#231815;}
	.st1{fill:#231815;}
	.st2{opacity:0.8;fill:#231815;}
	.st3{opacity:0.9;fill:#231815;}
</style>
<g>
	<rect x="0.2" y="69.58" class="st0" width="11.92" height="11.92"/>
	<path class="st1" d="M131.76,23.21H106.6v34.67h25.16c8.96,0,16.84-5.55,16.84-17.34S140.73,23.21,131.76,23.21z M128.39,50.4
		h-12.88V30.69h12.88c6.74,0,11.29,1.44,11.29,9.86C139.69,48.96,135.13,50.4,128.39,50.4z"/>
	<path class="st1" d="M189.7,40.49c0,4.8-1.34,10.4-12.88,10.4c-11.54,0-12.88-5.55-12.88-10.4V23.21h-8.92v17.29
		c0,12.09,6.54,17.88,21.79,17.88c15.21,0,21.79-5.84,21.79-17.88V23.21h-8.92V40.49z"/>
	<path class="st1" d="M243.39,39.06c1.73-1.93,2.72-4.31,2.72-6.74c0-5.1-2.43-9.11-10.3-9.11H205.3v34.67H237
		c7.88,0,11.29-4.26,11.29-10.1C248.29,43.76,246.36,40.89,243.39,39.06z M214.21,29.65h18.38c2.43,0,4.61,0,4.61,3.57
		c0,3.62-2.18,3.62-4.56,3.62h-0.05h-18.38V29.65z M234.82,50.99h-20.6v-7.33h20.6c2.38,0,4.56,0,4.56,3.67
		C239.37,50.99,237.2,50.99,234.82,50.99z"/>
	<polygon class="st1" points="291.32,36.78 263.09,36.78 263.09,23.21 254.18,23.21 254.18,57.88 263.09,57.88 263.09,44.31 
		291.32,44.31 291.32,57.88 300.24,57.88 300.24,23.21 291.32,23.21 	"/>
	<polygon class="st1" points="343.82,30.29 343.82,23.21 307.16,23.21 307.16,57.88 343.82,57.88 343.82,50.8 316.08,50.8 
		316.08,43.76 343.82,43.76 343.82,37.32 316.08,37.32 316.08,30.29 	"/>
	<rect y="46.67" class="st2" width="11.92" height="11.92"/>
	<rect x="22.93" y="46.67" class="st2" width="11.92" height="11.92"/>
	<rect y="22.99" class="st3" width="11.92" height="11.92"/>
	<rect class="st1" width="11.92" height="11.92"/>
	<rect x="22.93" y="22.99" class="st3" width="11.92" height="11.92"/>
	<rect x="22.93" class="st1" width="11.92" height="11.92"/>
	<path class="st1" d="M63.99,40.79c0-9.83-7.97-17.8-17.8-17.8v11.18c3.66,0,6.62,2.96,6.62,6.62s-2.96,6.62-6.62,6.62v11.18
		C56.02,58.59,63.99,50.62,63.99,40.79z"/>
	<path class="st1" d="M46.49,0.09V12c15.9,0,28.79,12.89,28.79,28.79c0,15.88-12.85,28.75-28.71,28.79c-0.02,0-0.04-0.01-0.06-0.01
		H34.87h-1.63h-10.1v11.92h10.1h1.63h11.8c0.02,0,0.04-0.01,0.06-0.01c22.37-0.13,40.47-18.3,40.47-40.7
		C87.19,18.31,68.97,0.09,46.49,0.09z"/>
</g>
</svg>
